<svg xmlns="http://www.w3.org/2000/svg" xmlns:xlink="http://www.w3.org/1999/xlink" width="190" height="190" viewBox="0 0 190 190">
  <defs>
    <clipPath id="clip-path">
      <rect id="Rectángulo_35385" data-name="Rectángulo 35385" width="92" height="92" transform="translate(229 11353)" fill="#fff" stroke="#707070" stroke-width="1"/>
    </clipPath>
  </defs>
  <g id="Grupo_176252" data-name="Grupo 176252" transform="translate(-180 -11047)">
    <path id="Trazado_124304" data-name="Trazado 124304" d="M10,0H180a10,10,0,0,1,10,10V180a10,10,0,0,1-10,10H10A10,10,0,0,1,0,180V10A10,10,0,0,1,10,0Z" transform="translate(180 11047)" fill="#fed2b2"/>
    <path id="Trazado_124305" data-name="Trazado 124305" d="M-27.013-6.135a7.562,7.562,0,0,1-.589,3.1A5.385,5.385,0,0,1-29.228-.914L-27.163.721-29.07,2.338-31.821.123a5.718,5.718,0,0,1-.773.053,5.547,5.547,0,0,1-2.9-.756,5.141,5.141,0,0,1-1.973-2.162A7.343,7.343,0,0,1-38.2-5.977v-.677a7.572,7.572,0,0,1,.69-3.322,5.142,5.142,0,0,1,1.969-2.215,5.5,5.5,0,0,1,2.931-.782,5.479,5.479,0,0,1,2.9.773A5.211,5.211,0,0,1-27.729-10a7.362,7.362,0,0,1,.716,3.274Zm-3.138-.536a5.381,5.381,0,0,0-.637-2.9,2.044,2.044,0,0,0-1.824-.989,2.03,2.03,0,0,0-1.837.976,5.451,5.451,0,0,0-.624,2.856v.589a5.531,5.531,0,0,0,.624,2.9,2.043,2.043,0,0,0,1.854,1.006,2.014,2.014,0,0,0,1.806-.993,5.414,5.414,0,0,0,.637-2.856Zm10.239,5.643a3.054,3.054,0,0,1-2.54,1.2,3,3,0,0,1-2.369-.91,3.826,3.826,0,0,1-.8-2.615V-9.51h2.962v6.179a1.065,1.065,0,0,0,1.187,1.222,1.548,1.548,0,0,0,1.45-.729V-9.51h2.979V0h-2.777Zm9.088,1.2a4.889,4.889,0,0,1-3.542-1.305,4.507,4.507,0,0,1-1.354-3.4v-.246a5.84,5.84,0,0,1,.541-2.575A3.955,3.955,0,0,1-13.6-9.075a4.763,4.763,0,0,1,2.461-.611A4.117,4.117,0,0,1-7.976-8.442a4.887,4.887,0,0,1,1.16,3.467v1.151H-12.7a2.135,2.135,0,0,0,.694,1.257,2.066,2.066,0,0,0,1.389.457,2.662,2.662,0,0,0,2.2-.984l1.354,1.6A3.784,3.784,0,0,1-8.64-.277,5.3,5.3,0,0,1-10.824.176ZM-11.158-7.4q-1.3,0-1.547,1.723h2.988v-.229a1.467,1.467,0,0,0-.36-1.1A1.434,1.434,0,0,0-11.158-7.4ZM-2.826-9.51l.1,1.116A3.27,3.27,0,0,1-.013-9.686,2.407,2.407,0,0,1,2.421-8.253,3.165,3.165,0,0,1,5.216-9.686q2.892,0,2.971,3.5V0H5.216V-6A1.813,1.813,0,0,0,4.97-7.066a1.048,1.048,0,0,0-.9-.334,1.4,1.4,0,0,0-1.31.782l.009.123V0H-.2V-5.985A1.906,1.906,0,0,0-.435-7.066,1.045,1.045,0,0,0-1.34-7.4a1.42,1.42,0,0,0-1.3.782V0H-5.6V-9.51ZM15.236,0a3.344,3.344,0,0,1-.281-.853A2.754,2.754,0,0,1,12.669.176a3.374,3.374,0,0,1-2.285-.813,2.588,2.588,0,0,1-.94-2.043,2.66,2.66,0,0,1,1.143-2.338,5.821,5.821,0,0,1,3.322-.791h.914v-.5q0-1.316-1.134-1.316a.927.927,0,0,0-1.055,1.042H9.672a2.655,2.655,0,0,1,1.173-2.239,4.931,4.931,0,0,1,2.993-.86,4.323,4.323,0,0,1,2.874.888,3.086,3.086,0,0,1,1.081,2.435v4.21a4.311,4.311,0,0,0,.4,2V0ZM13.381-1.934a1.652,1.652,0,0,0,.918-.237,1.487,1.487,0,0,0,.523-.536V-4.228h-.861q-1.547,0-1.547,1.389a.848.848,0,0,0,.272.655A.986.986,0,0,0,13.381-1.934Zm5.678-2.892a5.809,5.809,0,0,1,.976-3.56,3.211,3.211,0,0,1,2.725-1.3,2.731,2.731,0,0,1,2.145,1V-13.5h2.971V0H25.211l-.149-1.02a2.8,2.8,0,0,1-2.32,1.2,3.205,3.205,0,0,1-2.689-1.3A5.993,5.993,0,0,1,19.059-4.825Zm2.962.185q0,2.531,1.477,2.531A1.458,1.458,0,0,0,24.9-2.936V-6.557A1.419,1.419,0,0,0,23.515-7.4q-1.371,0-1.485,2.215Zm7.163-.2a5.613,5.613,0,0,1,.554-2.536,3.96,3.96,0,0,1,1.591-1.709,4.791,4.791,0,0,1,2.435-.6,4.373,4.373,0,0,1,3.366,1.323,5.076,5.076,0,0,1,1.23,3.6v.105a4.925,4.925,0,0,1-1.235,3.529A4.384,4.384,0,0,1,33.781.176,4.434,4.434,0,0,1,30.52-1.042a4.761,4.761,0,0,1-1.327-3.3Zm2.962.185a3.538,3.538,0,0,0,.413,1.934,1.376,1.376,0,0,0,1.222.615q1.582,0,1.617-2.435v-.3Q35.4-7.4,33.763-7.4q-1.485,0-1.608,2.206Z" transform="translate(275 11207.889)" fill="#12263f"/>
    <g id="Enmascarar_grupo_194" data-name="Enmascarar grupo 194" transform="translate(0 -276)" clip-path="url(#clip-path)">
      <g id="XMLID_1089_" transform="translate(229 11353)">
        <g id="XMLID_1439_">
          <g id="XMLID_2024_">
            <path id="XMLID_185_" d="M62.632,14.283l-1.6-10.628a1.617,1.617,0,0,1,1.6-1.859h5.739A1.617,1.617,0,0,1,69.956,3.7L68.024,14.283Z" fill="#c68a65"/>
          </g>
          <path id="XMLID_1978_" d="M62.587,14.928a6.828,6.828,0,0,0-3.9-1.421c-6.295,0-13.639,14.758-13.639,29.628,0,16.481,5.172,28.559,11.761,35.609a26.129,26.129,0,0,1,5.546,9.222,3.34,3.34,0,0,0,6.3,0A26.132,26.132,0,0,1,74.2,78.744c6.588-7.05,11.761-19.128,11.761-35.609,0-14.87-7.345-29.628-13.639-29.628a6.827,6.827,0,0,0-3.9,1.421Z" fill="#c68a65"/>
        </g>
        <g id="XMLID_1103_">
          <path id="XMLID_2029_" d="M43.842,23.107a6.827,6.827,0,0,0-2.67-3.183c-5.451-3.147-19.191,5.961-26.626,18.839C6.3,53.037,4.745,66.083,6.926,75.483a26.13,26.13,0,0,1,.191,10.76,3.34,3.34,0,0,0,5.46,3.152,26.131,26.131,0,0,1,9.414-5.214C31.222,81.369,41.74,73.5,49.981,59.222c7.435-12.878,8.454-29.331,3-32.478a6.827,6.827,0,0,0-4.092-.721Z" fill="#ffcd69"/>
          <g id="XMLID_1090_">
            <path id="XMLID_1094_" d="M42.765,30.8a9.988,9.988,0,0,0-10.975.906c-.129.1.132-.107,0,0a42.768,42.768,0,0,0-9.775,11.366c-6.235,10.8-8.672,21.9-6.687,30.457a34.25,34.25,0,0,1,.645,3.676,34.272,34.272,0,0,1,3.506-1.28c8.4-2.559,16.8-10.221,23.033-21.02a42.769,42.769,0,0,0,4.956-14.149c.027-.168-.023.163,0,0a9.988,9.988,0,0,0-4.7-9.957Z" fill="#fff3da"/>
          </g>
        </g>
        <g id="XMLID_48_">
          <path id="XMLID_188_" d="M83.127,21.976C80.043,15.452,76.1,11.71,72.322,11.71a7.243,7.243,0,0,0-2.058.307l1.459-7.989A3.414,3.414,0,0,0,68.365,0H62.626a3.414,3.414,0,0,0-3.376,3.924l1.21,8.015a7.167,7.167,0,0,0-1.778-.229c-3.762,0-7.668,3.716-10.71,10.068a5.343,5.343,0,0,0-3.163-.663,7.892,7.892,0,0,0-2.742-2.747c-2.716-1.568-6.838-.969-11.607,1.686A46.538,46.538,0,0,0,17.785,30.981a1.8,1.8,0,1,0,2.772,2.287c7.412-8.981,16.521-13.632,19.715-11.787a5.064,5.064,0,0,1,1.936,2.376,1.8,1.8,0,0,0,2.1.985,2.471,2.471,0,0,1,1.866.049,2.47,2.47,0,0,1,.976,1.591,1.8,1.8,0,0,0,1.906,1.33,5.064,5.064,0,0,1,3.025.488c1.933,1.116,2.891,5.39,2.439,10.887a47.492,47.492,0,0,1-6.1,19.137C41.333,70.606,31.508,79.4,21.467,82.462A27.751,27.751,0,0,0,11.4,88.033a1.543,1.543,0,0,1-2.523-1.457,27.755,27.755,0,0,0-.206-11.5c-1.917-8.264-.544-18.351,3.866-28.4A1.8,1.8,0,0,0,9.25,45.228C4.531,55.986,3.084,66.875,5.175,75.889a24.177,24.177,0,0,1,.176,10.02,5.138,5.138,0,0,0,8.4,4.849A24.179,24.179,0,0,1,22.514,85.9a42.909,42.909,0,0,0,15.008-8.532,61.154,61.154,0,0,0,9.816-10.754,41.985,41.985,0,0,0,8.153,13.357,24.185,24.185,0,0,1,5.162,8.589,5.137,5.137,0,0,0,9.7,0,24.183,24.183,0,0,1,5.162-8.589,42.9,42.9,0,0,0,8.731-14.893,65.509,65.509,0,0,0,3.513-21.943,51.214,51.214,0,0,0-4.631-21.158ZM68.15,3.594l-1.506,8.248a5.005,5.005,0,0,0-1.14-.132,5.085,5.085,0,0,0-1.412.2L62.835,3.594ZM53.881,25.188a7.63,7.63,0,0,0-3.085-.955c2.732-6.123,5.943-8.93,7.886-8.93a3.752,3.752,0,0,1,1.147.2c-1.825,2.783-3.17,6.86-4.044,11.406a6.444,6.444,0,0,0-1.906-1.717ZM72.888,77.517a27.756,27.756,0,0,0-5.929,9.856,1.543,1.543,0,0,1-2.913,0,27.755,27.755,0,0,0-5.929-9.856,39.783,39.783,0,0,1-8.289-14.579q.874-1.377,1.708-2.817a51.211,51.211,0,0,0,6.568-20.639q.08-.977.108-1.9v0a54.453,54.453,0,0,1,2.86-16.492c1.605-4.261,3.341-5.78,4.429-5.78,2.966,0,7.274,9.789,7.274,25.129a110.519,110.519,0,0,1-3.5,28.806,1.8,1.8,0,1,0,3.46.971,114.178,114.178,0,0,0,3.637-29.778A63.826,63.826,0,0,0,73.62,20.819,23.36,23.36,0,0,0,71.163,15.5a3.758,3.758,0,0,1,1.16-.2c2.232,0,5.2,3.222,7.556,8.209a47.494,47.494,0,0,1,4.287,19.622C84.165,57.317,80.055,69.849,72.888,77.517Z"/>
          <path id="XMLID_233_" d="M13.577,73.939a32.62,32.62,0,0,1,.611,3.484,1.8,1.8,0,0,0,2.492,1.438A32.6,32.6,0,0,1,20,77.649C28.836,74.958,37.607,67,44.067,55.809a45.021,45.021,0,0,0,5.177-14.786c0-.026,0,.028,0,0a11.833,11.833,0,0,0-5.581-11.774A11.937,11.937,0,0,0,30.613,30.3c-.023.017.019-.016,0,0A44.776,44.776,0,0,0,20.459,42.178C14,53.368,11.49,64.944,13.577,73.939Zm7.268-24.689,6.9,3.981-2.393,4.144L19.02,53.723q.793-2.22,1.825-4.472Zm2.726-5.276c.4-.693.837-1.386,1.3-2.074l7.058,4.075L29.538,50.12l-7.1-4.1Q22.982,45,23.571,43.975Zm19.961,4.549L36.84,44.66l2.393-4.144L45,43.846A42.328,42.328,0,0,1,43.533,48.524ZM42.1,51.847c-.364.747-.746,1.472-1.146,2.165s-.8,1.349-1.206,2l-7.1-4.1,2.393-4.144Zm-7.312,10.98-6.328-3.654,2.393-4.144,6.9,3.981Q36.317,61.025,34.789,62.827ZM23.551,60.489l-2.393,4.144-4.308-2.487a42.7,42.7,0,0,1,1.059-4.914Zm-4.19,7.257-2.5,4.328a27.447,27.447,0,0,1-.391-6Zm.614,6.125,2.5-4.328,2.889,1.668a27.436,27.436,0,0,1-5.388,2.66Zm8.6-4.953L24.271,66.43l2.393-4.144L32.3,65.543A42.72,42.72,0,0,1,28.578,68.917Zm17.155-28.8L41.03,37.4l2.278-3.945A8.355,8.355,0,0,1,45.734,40.119ZM40.2,31.661l-2.278,3.945-4.7-2.716A8.357,8.357,0,0,1,40.2,31.661Zm-9.843,3.727,5.769,3.331-2.393,4.144L27.035,39a42.3,42.3,0,0,1,3.317-3.611Z"/>
          <path id="XMLID_249_" d="M14.546,40.561a1.8,1.8,0,1,0-1.27-.526A1.81,1.81,0,0,0,14.546,40.561Z"/>
        </g>
      </g>
    </g>
  </g>
</svg>
