<svg xmlns="http://www.w3.org/2000/svg" xmlns:xlink="http://www.w3.org/1999/xlink" width="190" height="190" viewBox="0 0 190 190">
  <defs>
    <clipPath id="clip-path">
      <rect id="Rectángulo_35389" data-name="Rectángulo 35389" width="92" height="92" transform="translate(649 11353)" fill="#fff" stroke="#707070" stroke-width="1"/>
    </clipPath>
  </defs>
  <g id="Grupo_176254" data-name="Grupo 176254" transform="translate(-600 -11047)">
    <path id="Trazado_124308" data-name="Trazado 124308" d="M10,0H180a10,10,0,0,1,10,10V180a10,10,0,0,1-10,10H10A10,10,0,0,1,0,180V10A10,10,0,0,1,10,0Z" transform="translate(600 11047)" fill="#fed2b2"/>
    <path id="Trazado_124309" data-name="Trazado 124309" d="M-17.987-12.8l2.856,8.9,2.848-8.9h4.061V0h-3.094V-2.988l.3-6.117L-14.111,0H-16.15l-3.1-9.114.3,6.126V0h-3.085V-12.8ZM-1.042,0a3.344,3.344,0,0,1-.281-.853A2.754,2.754,0,0,1-3.608.176,3.374,3.374,0,0,1-5.893-.637a2.588,2.588,0,0,1-.94-2.043A2.66,2.66,0,0,1-5.691-5.019,5.821,5.821,0,0,1-2.369-5.81h.914v-.5q0-1.316-1.134-1.316A.927.927,0,0,0-3.643-6.587H-6.6A2.655,2.655,0,0,1-5.432-8.825a4.931,4.931,0,0,1,2.993-.86A4.323,4.323,0,0,1,.435-8.8,3.086,3.086,0,0,1,1.516-6.363v4.21a4.311,4.311,0,0,0,.4,2V0ZM-2.9-1.934a1.652,1.652,0,0,0,.918-.237,1.487,1.487,0,0,0,.523-.536V-4.228h-.861q-1.547,0-1.547,1.389a.848.848,0,0,0,.272.655A.986.986,0,0,0-2.9-1.934ZM6.28,0H3.309V-13.5H6.28Zm5.273-11.874V-9.51h1.564v2.057H11.553V-3.1a1.111,1.111,0,0,0,.193.747,1.037,1.037,0,0,0,.765.211A4.345,4.345,0,0,0,13.25-2.2V-.079a5.466,5.466,0,0,1-1.67.255A3.1,3.1,0,0,1,9.321-.545a2.954,2.954,0,0,1-.729-2.188v-4.72H7.378V-9.51H8.591v-2.364ZM19.639,0a3.344,3.344,0,0,1-.281-.853A2.754,2.754,0,0,1,17.073.176a3.374,3.374,0,0,1-2.285-.813,2.588,2.588,0,0,1-.94-2.043A2.66,2.66,0,0,1,14.99-5.019a5.821,5.821,0,0,1,3.322-.791h.914v-.5q0-1.316-1.134-1.316a.927.927,0,0,0-1.055,1.042H14.076a2.655,2.655,0,0,1,1.173-2.239,4.931,4.931,0,0,1,2.993-.86,4.323,4.323,0,0,1,2.874.888A3.086,3.086,0,0,1,22.2-6.363v4.21a4.311,4.311,0,0,0,.4,2V0ZM17.785-1.934a1.652,1.652,0,0,0,.918-.237,1.487,1.487,0,0,0,.523-.536V-4.228h-.861q-1.547,0-1.547,1.389a.848.848,0,0,0,.272.655A.986.986,0,0,0,17.785-1.934Z" transform="translate(695 11207.889)" fill="#12263f"/>
    <g id="Enmascarar_grupo_196" data-name="Enmascarar grupo 196" transform="translate(0 -276)" clip-path="url(#clip-path)">
      <g id="malta" transform="translate(649 11352.999)">
        <g id="Grupo_175741" data-name="Grupo 175741">
          <g id="Grupo_175740" data-name="Grupo 175740">
            <g id="Grupo_175737" data-name="Grupo 175737">
              <g id="Grupo_175735" data-name="Grupo 175735">
                <path id="Trazado_122754" data-name="Trazado 122754" d="M41.664,62.633A1.7,1.7,0,0,0,39.733,60.7c-3.664.548-11.041,2.131-15.238,6.328-3.544,3.544-3.99,8.844-1,11.837s8.294,2.548,11.837-1c4.2-4.2,5.78-11.573,6.328-15.238Z" fill="#fad59a"/>
                <path id="Trazado_122755" data-name="Trazado 122755" d="M39.733,60.7a44.014,44.014,0,0,0-4.9,1.019c-.405,3.192-1.871,11.567-6.453,16.149a10.448,10.448,0,0,1-3.216,2.2c3.042,1.552,7.217.753,10.173-2.2,4.2-4.2,5.779-11.574,6.328-15.238A1.7,1.7,0,0,0,39.733,60.7Z" fill="#f9c36e"/>
                <path id="Trazado_122756" data-name="Trazado 122756" d="M1.367,62.633A1.7,1.7,0,0,1,3.3,60.7c3.664.548,11.041,2.131,15.238,6.328,3.544,3.544,3.99,8.844,1,11.837s-8.294,2.548-11.837-1C3.5,73.674,1.915,66.3,1.367,62.633Z" fill="#fad59a"/>
                <path id="Trazado_122757" data-name="Trazado 122757" d="M18.536,67.029C14.339,62.833,6.963,61.25,3.3,60.7a1.7,1.7,0,0,0-1.843,1.09c3.466.961,7.414,2.571,10.08,5.237,3.544,3.544,3.99,8.844,1,11.837a6.561,6.561,0,0,1-1.644,1.2c3.058,1.338,6.463.985,8.644-1.2C22.526,75.873,22.08,70.573,18.536,67.029Z" fill="#f9c36e"/>
              </g>
              <g id="Grupo_175736" data-name="Grupo 175736">
                <path id="Trazado_122758" data-name="Trazado 122758" d="M22.441,2.7a1.15,1.15,0,0,0-1.85,0C19.1,4.718,16.322,9.01,16.322,13.031c0,3.4,2.325,6.148,5.194,6.148s5.194-2.753,5.194-6.148c0-4.021-2.776-8.313-4.269-10.331Z" fill="#f9c36e"/>
              </g>
            </g>
            <g id="Grupo_175738" data-name="Grupo 175738">
              <path id="Trazado_122759" data-name="Trazado 122759" d="M40.856,41.492A1.63,1.63,0,0,0,39,39.639c-3.518.526-10.6,2.046-14.627,6.074-3.4,3.4-3.83,8.489-.956,11.363s7.961,2.446,11.363-.956C38.811,52.091,40.33,45.01,40.856,41.492Z" fill="#fad59a"/>
              <path id="Trazado_122760" data-name="Trazado 122760" d="M39,39.639A42.032,42.032,0,0,0,33.98,40.7c-.4,3.127-1.826,11.056-6.184,15.414a10.054,10.054,0,0,1-2.922,2.04c2.931,1.589,7.025.843,9.908-2.04,4.028-4.028,5.548-11.11,6.074-14.627A1.63,1.63,0,0,0,39,39.639Z" fill="#f9c36e"/>
              <path id="Trazado_122761" data-name="Trazado 122761" d="M2.175,41.492a1.63,1.63,0,0,1,1.853-1.853c3.518.526,10.6,2.046,14.627,6.074,3.4,3.4,3.83,8.489.956,11.363s-7.961,2.446-11.363-.956C4.22,52.091,2.7,45.01,2.175,41.492Z" fill="#fad59a"/>
              <path id="Trazado_122762" data-name="Trazado 122762" d="M18.655,45.712c-4.028-4.028-11.11-5.548-14.627-6.074a1.629,1.629,0,0,0-1.8,1.13c3.254.932,6.9,2.46,9.38,4.944,3.4,3.4,3.83,8.489.956,11.363a6.293,6.293,0,0,1-1.429,1.069c2.98,1.377,6.338,1.066,8.474-1.069C22.485,54.2,22.057,49.114,18.655,45.712Z" fill="#f9c36e"/>
            </g>
            <g id="Grupo_175739" data-name="Grupo 175739">
              <path id="Trazado_122763" data-name="Trazado 122763" d="M39.846,20.361A1.545,1.545,0,0,0,38.089,18.6c-3.334.5-10.045,1.939-13.863,5.756C21,27.585,20.6,32.407,23.32,35.13s7.545,2.318,10.769-.906c3.818-3.818,5.258-10.529,5.756-13.863Z" fill="#fad59a"/>
              <path id="Trazado_122764" data-name="Trazado 122764" d="M38.089,18.6a39.553,39.553,0,0,0-5.142,1.12c-.4,3.036-1.767,10.42-5.846,14.5a9.562,9.562,0,0,1-2.568,1.839c2.788,1.628,6.769.949,9.557-1.839,3.818-3.818,5.258-10.529,5.756-13.863A1.545,1.545,0,0,0,38.089,18.6Z" fill="#f9c36e"/>
              <path id="Trazado_122765" data-name="Trazado 122765" d="M3.185,20.361A1.545,1.545,0,0,1,4.942,18.6c3.334.5,10.045,1.939,13.863,5.756,3.224,3.224,3.63,8.046.906,10.769s-7.545,2.318-10.769-.906C5.124,30.406,3.684,23.694,3.185,20.361Z" fill="#fad59a"/>
              <path id="Trazado_122766" data-name="Trazado 122766" d="M18.8,24.361C14.987,20.543,8.276,19.1,4.942,18.6a1.544,1.544,0,0,0-1.722,1.138,20.563,20.563,0,0,1,8.658,4.618c3.224,3.224,3.63,8.046.906,10.769a5.957,5.957,0,0,1-1.241.949c2.858,1.379,6.112,1.108,8.169-.949,2.724-2.724,2.318-7.545-.906-10.769Z" fill="#f9c36e"/>
            </g>
          </g>
        </g>
        <g id="Grupo_175748" data-name="Grupo 175748">
          <g id="Grupo_175747" data-name="Grupo 175747">
            <g id="Grupo_175744" data-name="Grupo 175744">
              <g id="Grupo_175742" data-name="Grupo 175742">
                <path id="Trazado_122767" data-name="Trazado 122767" d="M90.633,62.633A1.7,1.7,0,0,0,88.7,60.7c-3.664.548-11.041,2.131-15.238,6.328-3.544,3.544-3.99,8.844-1,11.837s8.294,2.548,11.837-1c4.2-4.2,5.78-11.573,6.328-15.238Z" fill="#fad59a"/>
                <path id="Trazado_122768" data-name="Trazado 122768" d="M88.7,60.7a44.014,44.014,0,0,0-4.9,1.019c-.405,3.192-1.871,11.567-6.453,16.149a10.448,10.448,0,0,1-3.216,2.2c3.042,1.552,7.217.753,10.173-2.2,4.2-4.2,5.779-11.574,6.328-15.238A1.7,1.7,0,0,0,88.7,60.7Z" fill="#f9c36e"/>
                <path id="Trazado_122769" data-name="Trazado 122769" d="M50.337,62.633A1.7,1.7,0,0,1,52.267,60.7c3.664.548,11.041,2.131,15.238,6.328,3.544,3.544,3.99,8.844,1,11.837s-8.294,2.548-11.837-1c-4.2-4.2-5.78-11.573-6.328-15.238Z" fill="#fad59a"/>
                <path id="Trazado_122770" data-name="Trazado 122770" d="M67.505,67.029c-4.2-4.2-11.574-5.779-15.238-6.328a1.7,1.7,0,0,0-1.843,1.09c3.466.961,7.414,2.571,10.081,5.237,3.544,3.544,3.99,8.844,1,11.837a6.561,6.561,0,0,1-1.644,1.2c3.058,1.338,6.463.985,8.644-1.2C71.5,75.873,71.049,70.573,67.505,67.029Z" fill="#f9c36e"/>
              </g>
              <g id="Grupo_175743" data-name="Grupo 175743">
                <path id="Trazado_122771" data-name="Trazado 122771" d="M71.41,2.7a1.15,1.15,0,0,0-1.85,0c-1.493,2.018-4.269,6.31-4.269,10.331,0,3.4,2.325,6.148,5.194,6.148s5.194-2.753,5.194-6.148C75.678,9.01,72.9,4.718,71.41,2.7Z" fill="#f9c36e"/>
              </g>
            </g>
            <g id="Grupo_175745" data-name="Grupo 175745">
              <path id="Trazado_122772" data-name="Trazado 122772" d="M89.826,41.492a1.63,1.63,0,0,0-1.853-1.853c-3.518.526-10.6,2.046-14.627,6.074-3.4,3.4-3.83,8.489-.956,11.363s7.961,2.446,11.363-.956c4.028-4.028,5.548-11.11,6.074-14.627Z" fill="#fad59a"/>
              <path id="Trazado_122773" data-name="Trazado 122773" d="M87.972,39.639A42.032,42.032,0,0,0,82.949,40.7c-.4,3.127-1.826,11.056-6.184,15.414a10.054,10.054,0,0,1-2.922,2.04c2.931,1.589,7.025.843,9.908-2.04,4.028-4.028,5.548-11.11,6.074-14.627a1.63,1.63,0,0,0-1.853-1.853Z" fill="#f9c36e"/>
              <path id="Trazado_122774" data-name="Trazado 122774" d="M51.144,41.492A1.63,1.63,0,0,1,53,39.639c3.518.526,10.6,2.046,14.627,6.074,3.4,3.4,3.83,8.489.956,11.363s-7.961,2.446-11.363-.956c-4.028-4.028-5.548-11.11-6.074-14.627Z" fill="#fad59a"/>
              <path id="Trazado_122775" data-name="Trazado 122775" d="M67.625,45.712C63.6,41.684,56.515,40.165,53,39.639a1.629,1.629,0,0,0-1.8,1.13c3.254.932,6.9,2.46,9.38,4.944,3.4,3.4,3.83,8.489.956,11.363a6.293,6.293,0,0,1-1.429,1.069c2.98,1.377,6.338,1.066,8.474-1.069C71.455,54.2,71.027,49.114,67.625,45.712Z" fill="#f9c36e"/>
            </g>
            <g id="Grupo_175746" data-name="Grupo 175746">
              <path id="Trazado_122776" data-name="Trazado 122776" d="M88.815,20.361A1.545,1.545,0,0,0,87.059,18.6c-3.334.5-10.045,1.939-13.863,5.756-3.224,3.224-3.63,8.046-.906,10.769s7.545,2.318,10.769-.906c3.818-3.818,5.258-10.529,5.756-13.863Z" fill="#fad59a"/>
              <path id="Trazado_122777" data-name="Trazado 122777" d="M87.059,18.6a39.553,39.553,0,0,0-5.142,1.12c-.4,3.036-1.767,10.42-5.846,14.5A9.562,9.562,0,0,1,73.5,36.062c2.787,1.628,6.769.949,9.557-1.839,3.818-3.818,5.258-10.529,5.756-13.863A1.545,1.545,0,0,0,87.059,18.6Z" fill="#f9c36e"/>
              <path id="Trazado_122778" data-name="Trazado 122778" d="M52.154,20.361A1.545,1.545,0,0,1,53.911,18.6c3.334.5,10.045,1.939,13.863,5.756C71,27.585,71.4,32.407,68.68,35.13s-7.545,2.318-10.769-.906c-3.818-3.818-5.258-10.529-5.756-13.863Z" fill="#fad59a"/>
              <path id="Trazado_122779" data-name="Trazado 122779" d="M67.774,24.361C63.956,20.543,57.245,19.1,53.911,18.6a1.544,1.544,0,0,0-1.722,1.138,20.563,20.563,0,0,1,8.658,4.618c3.224,3.224,3.63,8.046.906,10.769a5.957,5.957,0,0,1-1.241.949c2.858,1.379,6.112,1.108,8.169-.949C71.4,32.406,71,27.585,67.774,24.361Z" fill="#f9c36e"/>
            </g>
          </g>
        </g>
        <g id="Grupo_175749" data-name="Grupo 175749">
          <path id="Trazado_122780" data-name="Trazado 122780" d="M39.534,59.369c-4.077.61-11.576,2.292-15.992,6.707q-.358.358-.679.738V58.4c3.585,3.108,9.251,2.3,12.872-1.326,4.25-4.25,5.868-11.461,6.454-15.381A2.976,2.976,0,0,0,38.8,38.306c-3.92.586-11.131,2.2-15.381,6.454q-.293.293-.56.6V36.537c3.5,2.921,8.831,1.989,12.179-1.36,4.042-4.042,5.58-10.893,6.137-14.617h0a2.891,2.891,0,0,0-3.289-3.288c-3.724.557-10.575,2.095-14.617,6.137q-.212.212-.41.432V20.367c2.963-.714,5.194-3.732,5.194-7.336,0-4.356-2.84-8.845-4.533-11.133A2.475,2.475,0,0,0,21.516.886h0A2.476,2.476,0,0,0,19.507,1.9c-1.693,2.288-4.533,6.777-4.533,11.132,0,3.6,2.231,6.622,5.194,7.336V23.84q-.2-.22-.41-.432c-4.042-4.042-10.893-5.58-14.617-6.137A2.891,2.891,0,0,0,1.852,20.56a40.972,40.972,0,0,0,1.211,5.5,1.348,1.348,0,0,0,2.583-.769,38.263,38.263,0,0,1-1.128-5.128.2.2,0,0,1,.224-.224c2.734.409,9.484,1.751,13.109,5.377,2.519,2.519,3.226,6.544.906,8.863-2.342,2.342-6.369,1.588-8.863-.907A13.2,13.2,0,0,1,7.932,30.7a1.348,1.348,0,0,0-2.315,1.381,15.879,15.879,0,0,0,2.372,3.1c3.338,3.338,8.666,4.288,12.179,1.36V45.36q-.267-.307-.56-.6c-4.25-4.25-11.461-5.868-15.381-6.454A2.976,2.976,0,0,0,.842,41.692c.586,3.92,2.2,11.131,6.454,15.381,3.633,3.633,9.3,4.419,12.872,1.326v8.416q-.321-.379-.679-.738c-4.416-4.416-11.915-6.1-15.992-6.707A3.044,3.044,0,0,0,.035,62.832c.61,4.077,2.292,11.576,6.707,15.992,3.784,3.784,9.729,4.605,13.426,1.3v9.647a1.348,1.348,0,1,0,2.7,0V80.12c3.725,3.334,9.668,2.461,13.426-1.3a16.875,16.875,0,0,0,2.28-2.88A1.348,1.348,0,1,0,36.294,74.5a14.189,14.189,0,0,1-1.911,2.421c-3.013,3.013-7.468,3.46-9.932,1-2.676-2.676-1.732-7.2,1-9.932,4.014-4.013,11.466-5.5,14.484-5.947a.349.349,0,0,1,.4.4,41.133,41.133,0,0,1-1.521,6.542,1.348,1.348,0,1,0,2.562.838A43.884,43.884,0,0,0,43,62.832a3.044,3.044,0,0,0-3.463-3.463Zm-14.205-12.7C29.17,42.824,36.31,41.4,39.2,40.972a.282.282,0,0,1,.321.321c-.433,2.892-1.853,10.033-5.694,13.874-2.871,2.871-7.114,3.3-9.457.956-2.546-2.546-1.644-6.857.956-9.458Zm-.15-21.352c3.626-3.626,10.376-4.968,13.109-5.377a.2.2,0,0,1,.224.224h0c-.409,2.734-1.751,9.484-5.377,13.11-2.52,2.52-6.542,3.228-8.863.906-2.381-2.381-1.527-6.43.907-8.863ZM21.357,3.5h0ZM17.67,13.031c0-3.562,2.572-7.555,3.846-9.313,1.274,1.759,3.846,5.752,3.846,9.313,0,2.647-1.725,4.8-3.846,4.8S17.67,15.678,17.67,13.031Zm.989,43.092c-2.52,2.52-6.82,1.681-9.457-.956C5.36,51.325,3.94,44.184,3.508,41.293a.281.281,0,0,1,.321-.321c2.892.433,10.033,1.853,13.874,5.694C20.3,49.264,21.2,53.578,18.659,56.123Zm-.08,21.791c-2.464,2.464-6.919,2.016-9.932-1C4.634,72.9,3.151,65.451,2.7,62.433a.349.349,0,0,1,.4-.4c3.018.451,10.471,1.934,14.484,5.947C20.314,70.713,21.25,75.243,18.579,77.914Z"/>
        </g>
        <path id="Trazado_122781" data-name="Trazado 122781" d="M88.5,59.369c-4.077.61-11.576,2.292-15.992,6.707q-.358.358-.679.738V58.4c3.585,3.108,9.251,2.3,12.872-1.326,4.25-4.25,5.868-11.461,6.454-15.381a2.976,2.976,0,0,0-3.386-3.385c-3.92.586-11.131,2.2-15.381,6.454q-.293.293-.56.6V36.537c3.5,2.921,8.831,1.989,12.179-1.36,4.042-4.042,5.58-10.893,6.137-14.617h0a2.891,2.891,0,0,0-3.289-3.288c-3.724.557-10.575,2.095-14.617,6.137q-.212.212-.41.432V20.367c2.963-.714,5.194-3.732,5.194-7.336,0-4.356-2.84-8.845-4.533-11.133A2.475,2.475,0,0,0,70.485.886h0A2.476,2.476,0,0,0,68.476,1.9c-1.693,2.288-4.533,6.777-4.533,11.133,0,3.6,2.231,6.622,5.194,7.336V23.84q-.2-.22-.41-.432c-4.042-4.042-10.893-5.58-14.617-6.137a2.891,2.891,0,0,0-3.289,3.289,40.972,40.972,0,0,0,1.211,5.5,1.348,1.348,0,1,0,2.583-.769,38.263,38.263,0,0,1-1.128-5.128.2.2,0,0,1,.224-.224c2.734.409,9.484,1.751,13.109,5.377,2.519,2.519,3.226,6.544.906,8.863-2.342,2.342-6.369,1.588-8.863-.907A13.2,13.2,0,0,1,56.9,30.7a1.348,1.348,0,1,0-2.315,1.381,15.879,15.879,0,0,0,2.372,3.1c3.338,3.338,8.666,4.288,12.179,1.36v8.824q-.267-.307-.56-.6c-4.25-4.25-11.461-5.868-15.381-6.454a2.976,2.976,0,0,0-3.385,3.386c.586,3.92,2.2,11.131,6.454,15.381,3.633,3.633,9.3,4.419,12.872,1.326v8.416q-.321-.379-.679-.738c-4.416-4.416-11.915-6.1-15.992-6.707A3.044,3.044,0,0,0,49,62.833c.61,4.077,2.292,11.576,6.707,15.992,3.784,3.784,9.729,4.605,13.426,1.3v9.647a1.348,1.348,0,0,0,2.7,0V80.121c3.725,3.334,9.668,2.461,13.426-1.3a16.875,16.875,0,0,0,2.28-2.88A1.348,1.348,0,0,0,85.263,74.5a14.188,14.188,0,0,1-1.911,2.421c-3.013,3.013-7.468,3.46-9.932,1-2.676-2.676-1.732-7.2,1-9.932,4.014-4.013,11.466-5.5,14.484-5.947a.349.349,0,0,1,.4.4,41.134,41.134,0,0,1-1.521,6.542,1.348,1.348,0,1,0,2.562.838,43.883,43.883,0,0,0,1.625-6.981A3.044,3.044,0,0,0,88.5,59.369ZM74.3,46.666c3.841-3.841,10.982-5.261,13.874-5.694a.282.282,0,0,1,.321.321C88.06,44.185,86.64,51.325,82.8,55.167c-2.871,2.871-7.114,3.3-9.457.956C70.8,53.577,71.7,49.266,74.3,46.666Zm-.15-21.352c3.626-3.626,10.376-4.968,13.109-5.377a.2.2,0,0,1,.224.224h0c-.409,2.734-1.751,9.484-5.377,13.11-2.52,2.52-6.542,3.228-8.863.906C70.861,31.8,71.715,27.747,74.148,25.314ZM70.327,3.5h0Zm-3.688,9.529c0-3.562,2.572-7.555,3.846-9.313,1.274,1.759,3.846,5.752,3.846,9.313,0,2.647-1.725,4.8-3.846,4.8S66.639,15.678,66.639,13.031Zm.989,43.092c-2.52,2.52-6.82,1.681-9.457-.956-3.841-3.841-5.262-10.982-5.694-13.874a.281.281,0,0,1,.321-.321c2.892.433,10.033,1.853,13.874,5.694,2.6,2.6,3.5,6.912.956,9.457Zm-.079,21.791c-2.464,2.464-6.919,2.016-9.932-1-4.013-4.013-5.5-11.466-5.947-14.484a.349.349,0,0,1,.4-.4c3.018.451,10.471,1.934,14.484,5.947C69.283,70.713,70.219,75.243,67.549,77.914Z"/>
      </g>
    </g>
  </g>
</svg>
