<svg xmlns="http://www.w3.org/2000/svg" xmlns:xlink="http://www.w3.org/1999/xlink" width="190" height="190" viewBox="0 0 190 190">
  <defs>
    <clipPath id="clip-path">
      <rect id="Rectángulo_35391" data-name="Rectángulo 35391" width="92" height="92" transform="translate(859 11353)" fill="#fff" stroke="#707070" stroke-width="1"/>
    </clipPath>
  </defs>
  <g id="Grupo_176255" data-name="Grupo 176255" transform="translate(-810 -11047)">
    <path id="Trazado_124310" data-name="Trazado 124310" d="M10,0H180a10,10,0,0,1,10,10V180a10,10,0,0,1-10,10H10A10,10,0,0,1,0,180V10A10,10,0,0,1,10,0Z" transform="translate(810 11047)" fill="#fed2b2"/>
    <path id="Trazado_124311" data-name="Trazado 124311" d="M-26.266,0h-3.076V-12.8h3.076Zm4.729-9.51.1,1.116a3.225,3.225,0,0,1,2.716-1.292,2.713,2.713,0,0,1,2.219.888,4.226,4.226,0,0,1,.76,2.672V0h-2.971V-6a1.6,1.6,0,0,0-.29-1.059A1.342,1.342,0,0,0-20.061-7.4a1.413,1.413,0,0,0-1.292.686V0h-2.962V-9.51Zm10.881-2.364V-9.51h1.564v2.057h-1.564V-3.1a1.111,1.111,0,0,0,.193.747,1.037,1.037,0,0,0,.765.211A4.345,4.345,0,0,0-8.96-2.2V-.079a5.466,5.466,0,0,1-1.67.255,3.1,3.1,0,0,1-2.259-.721,2.954,2.954,0,0,1-.729-2.188v-4.72h-1.213V-9.51h1.213v-2.364ZM-3.327.176A4.889,4.889,0,0,1-6.869-1.129a4.507,4.507,0,0,1-1.354-3.4v-.246a5.84,5.84,0,0,1,.541-2.575A3.955,3.955,0,0,1-6.1-9.075a4.763,4.763,0,0,1,2.461-.611A4.117,4.117,0,0,1-.479-8.442,4.887,4.887,0,0,1,.681-4.975v1.151H-5.208a2.135,2.135,0,0,0,.694,1.257,2.066,2.066,0,0,0,1.389.457,2.662,2.662,0,0,0,2.2-.984l1.354,1.6A3.784,3.784,0,0,1-1.143-.277,5.3,5.3,0,0,1-3.327.176ZM-3.661-7.4q-1.3,0-1.547,1.723h2.988v-.229a1.467,1.467,0,0,0-.36-1.1A1.434,1.434,0,0,0-3.661-7.4ZM4.592-9.51l.1,1.116A3.225,3.225,0,0,1,7.4-9.686,2.713,2.713,0,0,1,9.624-8.8a4.226,4.226,0,0,1,.76,2.672V0H7.414V-6a1.6,1.6,0,0,0-.29-1.059A1.342,1.342,0,0,0,6.069-7.4a1.413,1.413,0,0,0-1.292.686V0H1.815V-9.51ZM17-2.672a.684.684,0,0,0-.4-.606,6.016,6.016,0,0,0-1.5-.475A6.853,6.853,0,0,1,13.276-4.4a3.062,3.062,0,0,1-1.1-.971A2.319,2.319,0,0,1,11.8-6.68,2.628,2.628,0,0,1,12.88-8.837a4.453,4.453,0,0,1,2.83-.848,4.934,4.934,0,0,1,3.023.853,2.666,2.666,0,0,1,1.143,2.241H16.906q0-1.143-1.2-1.143a1.194,1.194,0,0,0-.782.259.8.8,0,0,0-.316.646.737.737,0,0,0,.387.642,3.654,3.654,0,0,0,1.235.4,10.671,10.671,0,0,1,1.49.378A2.706,2.706,0,0,1,19.859-2.76,2.491,2.491,0,0,1,18.7-.642,5.068,5.068,0,0,1,15.71.176a5.172,5.172,0,0,1-2.18-.439,3.645,3.645,0,0,1-1.494-1.2A2.707,2.707,0,0,1,11.5-3.05h2.769a1.145,1.145,0,0,0,.439.962,1.808,1.808,0,0,0,1.081.3,1.422,1.422,0,0,0,.91-.246A.787.787,0,0,0,17-2.672ZM20.87-4.843a5.613,5.613,0,0,1,.554-2.536,3.96,3.96,0,0,1,1.591-1.709,4.791,4.791,0,0,1,2.435-.6,4.373,4.373,0,0,1,3.366,1.323,5.076,5.076,0,0,1,1.23,3.6v.105a4.925,4.925,0,0,1-1.235,3.529A4.384,4.384,0,0,1,25.466.176a4.434,4.434,0,0,1-3.261-1.217,4.761,4.761,0,0,1-1.327-3.3Zm2.962.185a3.538,3.538,0,0,0,.413,1.934,1.376,1.376,0,0,0,1.222.615q1.582,0,1.617-2.435v-.3q0-2.558-1.635-2.558-1.485,0-1.608,2.206Z" transform="translate(905 11207.889)" fill="#12263f"/>
    <g id="Enmascarar_grupo_199" data-name="Enmascarar grupo 199" transform="translate(0 -276)" clip-path="url(#clip-path)">
      <g id="Page-1" transform="translate(872.8 11353)">
        <g id="_013---Dipped-Strawberry" data-name="013---Dipped-Strawberry" transform="translate(-1.533)">
          <path id="Shape" d="M64.4,35.267a33.12,33.12,0,0,1-2.131,11.224,2.475,2.475,0,0,0-2.223.69c-1.687,1.641-3.113,3.419-5.873,3.419-5.121,0-5.121-6.133-10.243-6.133S38.793,50.6,33.687,50.6s-5.121-6.133-10.227-6.133S18.339,50.6,13.217,50.6c-2.714,0-4.14-1.733-5.781-3.358a2.444,2.444,0,0,0-2.223-.705,33.338,33.338,0,0,1-2.147-11.27,19.961,19.961,0,0,1,7.9-16.437,29.771,29.771,0,0,0,4.155-.061,1.515,1.515,0,0,1,1.533,2.1,8.225,8.225,0,0,0-.629,3.588,1.543,1.543,0,0,0,1.9,1.411,15.936,15.936,0,0,0,8-3.8,1.553,1.553,0,0,1,2.484.445,10.051,10.051,0,0,0,4.738,4.968,1.4,1.4,0,0,0,1.165,0,10.051,10.051,0,0,0,4.738-4.968,1.553,1.553,0,0,1,2.484-.445,15.936,15.936,0,0,0,8,3.8,1.543,1.543,0,0,0,1.9-1.411,8.225,8.225,0,0,0-.629-3.588,1.515,1.515,0,0,1,1.533-2.1,29.771,29.771,0,0,0,4.155.061,19.961,19.961,0,0,1,7.9,16.437Z" fill="#f04335"/>
          <path id="Shape-2" data-name="Shape" d="M12.052,20.869a8.225,8.225,0,0,0-.629,3.588,1.543,1.543,0,0,0,1.9,1.411,23.74,23.74,0,0,0,2.869-.8,1.5,1.5,0,0,1-.17-.613,8.225,8.225,0,0,1,.629-3.588,1.515,1.515,0,0,0-1.533-2.1,30.11,30.11,0,0,1-4.039.066,1.509,1.509,0,0,1,.972,2.039Z" fill="#c41e1e"/>
          <path id="Shape-3" data-name="Shape" d="M44.942,25.867a1.553,1.553,0,0,0,1.731-.8,13.734,13.734,0,0,1-5.135-3,1.553,1.553,0,0,0-2.484.445c-.136.278-.294.567-.46.86a18.487,18.487,0,0,0,6.348,2.5Z" fill="#c41e1e"/>
          <path id="Shape-4" data-name="Shape" d="M28.551,27.477a1.4,1.4,0,0,0,1.165,0,7.443,7.443,0,0,0,1.717-1.04,11.5,11.5,0,0,1-3.021-3.928,1.553,1.553,0,0,0-2.484-.445,11.261,11.261,0,0,1-1.651,1.3,9.421,9.421,0,0,0,4.273,4.108Z" fill="#c41e1e"/>
          <path id="Shape-5" data-name="Shape" d="M18.86,44.467c-4.217,0-4.968,4.151-7.956,5.62a5.33,5.33,0,0,0,2.314.514c4.209,0,4.963-4.14,7.94-5.612A5.029,5.029,0,0,0,18.86,44.467Z" fill="#c41e1e"/>
          <path id="Shape-6" data-name="Shape" d="M56.5,18.829a29.771,29.771,0,0,1-4.155-.061,1.566,1.566,0,0,0-.561.066H51.9a19.961,19.961,0,0,1,7.9,16.433,33.12,33.12,0,0,1-2.131,11.224,2.475,2.475,0,0,0-2.223.69,13.677,13.677,0,0,1-3.556,2.913,5.06,5.06,0,0,0,2.283.506c2.76,0,4.186-1.779,5.873-3.419a2.475,2.475,0,0,1,2.223-.69A33.12,33.12,0,0,0,64.4,35.267a19.961,19.961,0,0,0-7.9-16.437Z" fill="#c41e1e"/>
          <path id="Shape-7" data-name="Shape" d="M39.33,44.467c-4.221,0-4.979,4.14-7.946,5.612a5.06,5.06,0,0,0,2.3.521c4.2,0,4.95-4.14,7.94-5.615A5.06,5.06,0,0,0,39.33,44.467Z" fill="#c41e1e"/>
          <path id="Shape-8" data-name="Shape" d="M60.336,18.109a13.019,13.019,0,0,1-3.833.721,29.771,29.771,0,0,1-4.155-.061,1.515,1.515,0,0,0-1.533,2.1,8.225,8.225,0,0,1,.629,3.588,1.543,1.543,0,0,1-1.9,1.411,15.936,15.936,0,0,1-8-3.8,1.553,1.553,0,0,0-2.484.445,10.051,10.051,0,0,1-4.738,4.968,1.4,1.4,0,0,1-1.165,0,10.051,10.051,0,0,1-4.738-4.968,1.553,1.553,0,0,0-2.484-.445,15.936,15.936,0,0,1-8,3.8,1.543,1.543,0,0,1-1.9-1.411,8.225,8.225,0,0,1,.629-3.588,1.515,1.515,0,0,0-1.533-2.1,29.771,29.771,0,0,1-4.155.061,13.019,13.019,0,0,1-3.833-.721A1.51,1.51,0,0,1,6.7,15.533c2.637-2.254,9.614-6.241,24.257-3.772-.061.567-.123,1.15-.169,1.763,0,.077-.015.169-.015.245a3.077,3.077,0,0,0,6.149.23c.077-.843.184-1.625.322-2.361,14.137-2.208,20.915,1.671,23.521,3.895a1.51,1.51,0,0,1-.429,2.576Z" fill="#60a517"/>
          <path id="Shape-9" data-name="Shape" d="M10.519,18.768h-.133c.193.018.37.041.578.054h.117A1.566,1.566,0,0,0,10.519,18.768Z" fill="#549014"/>
          <path id="Shape-10" data-name="Shape" d="M26.358,11.761c-.061.567-.123,1.15-.169,1.763,0,.077-.015.169-.015.245a3.085,3.085,0,0,0,3.082,3.1,3.018,3.018,0,0,0,2.3-1.056,3.1,3.1,0,0,1-.782-2.041c0-.077.015-.169.015-.245.046-.613.107-1.2.169-1.763a48.781,48.781,0,0,0-10.953-.7,54.94,54.94,0,0,1,6.353.7Z" fill="#549014"/>
          <path id="Shape-11" data-name="Shape" d="M60.766,15.533c-2.237-1.907-7.559-5.023-17.952-4.477,7.408.423,11.474,2.875,13.352,4.477a1.51,1.51,0,0,1-.429,2.576,12.42,12.42,0,0,1-3.255.667,29.376,29.376,0,0,0,4.022.054,13.019,13.019,0,0,0,3.833-.721,1.51,1.51,0,0,0,.429-2.576Z" fill="#549014"/>
          <path id="Shape-12" data-name="Shape" d="M51.787,18.834a30.11,30.11,0,0,1-4.039-.066,1.515,1.515,0,0,0-1.533,2.1,8.225,8.225,0,0,1,.629,3.588,1.5,1.5,0,0,1-.17.613,23.741,23.741,0,0,0,2.869.8,1.543,1.543,0,0,0,1.9-1.411,8.225,8.225,0,0,0-.629-3.588,1.509,1.509,0,0,1,.972-2.039Z" fill="#549014"/>
          <path id="Shape-13" data-name="Shape" d="M39.146,5.566a22.327,22.327,0,0,0-1.9,6.072c-.138.736-.245,1.518-.322,2.361a3.077,3.077,0,0,1-6.149-.23c0-.077.015-.169.015-.245.046-.613.107-1.2.169-1.763a29.949,29.949,0,0,1,2.515-9.369A1.489,1.489,0,0,1,35.6,1.748l2.913,1.733a1.638,1.638,0,0,1,.629,2.085Z" fill="#9c522d"/>
          <path id="Shape-14" data-name="Shape" d="M64.216,49.895c-5.106,12.987-15.7,23.9-24.993,27.247A3.571,3.571,0,0,0,36.8,80.484v.629a3.887,3.887,0,0,0,.751,2.177,4.609,4.609,0,1,1-7.59-.061,3.568,3.568,0,0,0,.705-2.1V80.5a3.593,3.593,0,0,0-2.423-3.343C18.937,73.845,8.357,62.928,3.251,49.941a2.51,2.51,0,0,1,1.963-3.4,2.444,2.444,0,0,1,2.223.705C9.077,48.867,10.5,50.6,13.217,50.6c5.121,0,5.121-6.133,10.243-6.133S28.566,50.6,33.687,50.6s5.106-6.133,10.243-6.133S49.051,50.6,54.173,50.6c2.76,0,4.186-1.779,5.873-3.419a2.475,2.475,0,0,1,2.223-.69,2.512,2.512,0,0,1,1.947,3.4Z" fill="#9c522d"/>
          <path id="Shape-15" data-name="Shape" d="M62.268,46.491a2.475,2.475,0,0,0-2.223.69c-.195.19-.386.382-.577.572a2.394,2.394,0,0,1,.153,2.147c-5.106,12.987-15.7,23.9-24.993,27.247A3.571,3.571,0,0,0,32.2,80.484v.629a3.887,3.887,0,0,0,.751,2.177,4.666,4.666,0,0,1,.721,3.373,4.611,4.611,0,0,1-2.231,3.18,4.585,4.585,0,0,0,6.831-3.18,4.666,4.666,0,0,0-.721-3.373,3.887,3.887,0,0,1-.751-2.177v-.629a3.571,3.571,0,0,1,2.423-3.343C48.515,73.8,59.11,62.882,64.216,49.895a2.512,2.512,0,0,0-1.947-3.4Z" fill="#783e22"/>
          <g id="Grupo_175750" data-name="Grupo 175750">
            <path id="Shape-16" data-name="Shape" d="M59.883,19.838c.345-.1.708-.178,1.014-.3a3.044,3.044,0,0,0,.862-5.169c-2.844-2.427-9.471-6.093-22.546-4.539a19.984,19.984,0,0,1,1.3-3.591A3.153,3.153,0,0,0,39.29,2.162L36.377.434A3.079,3.079,0,0,0,33.923.127a3.034,3.034,0,0,0-1.84,1.6,30.514,30.514,0,0,0-2.427,8.3C15.68,8.035,8.671,11.84,5.712,14.369a3.045,3.045,0,0,0,.865,5.177c.307.117.665.2,1.007.293A21.583,21.583,0,0,0,1.533,35.267,35.909,35.909,0,0,0,3.289,45.725,3.945,3.945,0,0,0,1.825,50.5c5.068,12.909,15.717,24.466,25.9,28.106A2.036,2.036,0,0,1,29.133,80.5v.626a2.147,2.147,0,0,1-.423,1.21A6.141,6.141,0,0,0,33.741,92a6.338,6.338,0,0,0,1.136-.1,6.133,6.133,0,0,0,3.933-9.476,2.348,2.348,0,0,1-.477-1.308v-.636a2.032,2.032,0,0,1,1.4-1.9c10.181-3.665,20.833-15.234,25.9-28.129a3.959,3.959,0,0,0-1.451-4.776,35.256,35.256,0,0,0,1.743-10.408,21.588,21.588,0,0,0-6.051-15.428ZM34.817,3.074,37.731,4.8a.113.113,0,0,1,.028.1A25.655,25.655,0,0,0,35.4,13.866a1.576,1.576,0,0,1-1.538,1.467,1.509,1.509,0,0,1-1.118-.488,1.6,1.6,0,0,1-.422-1.217,30.973,30.973,0,0,1,2.5-10.554Zm-5.531,10c-.009.113-.023.218-.032.333a4.689,4.689,0,0,0,1.227,3.527A4.543,4.543,0,0,0,33.854,18.4a4.625,4.625,0,0,0,4.6-4.261c.035-.394.084-.767.133-1.133,13.047-1.777,19.144,1.957,21.191,3.68a17.2,17.2,0,0,1-7.312.56,3.05,3.05,0,0,0-3.079,4.194,5.922,5.922,0,0,1,.477,2.939A14.5,14.5,0,0,1,42.6,20.971a3.087,3.087,0,0,0-4.922.874,8.674,8.674,0,0,1-3.925,4.221,8.587,8.587,0,0,1-3.964-4.234,3.085,3.085,0,0,0-4.931-.865,14.361,14.361,0,0,1-7.3,3.383,6.668,6.668,0,0,1,.521-2.906,3.05,3.05,0,0,0-3.067-4.206,17.523,17.523,0,0,1-7.3-.54c2.067-1.766,8.262-5.545,21.582-3.626Zm-17.771,7.3a32.726,32.726,0,0,0,3.712-.066,9.842,9.842,0,0,0-.734,4.223,3.036,3.036,0,0,0,1.2,2.279,3.1,3.1,0,0,0,2.553.557,18.093,18.093,0,0,0,8.789-4.18,11.534,11.534,0,0,0,5.469,5.689,2.955,2.955,0,0,0,1.227.268,2.827,2.827,0,0,0,1.175-.251,11.753,11.753,0,0,0,5.549-5.727,17.581,17.581,0,0,0,8.74,4.2,3.108,3.108,0,0,0,2.57-.554,3.024,3.024,0,0,0,1.2-2.248,9.781,9.781,0,0,0-.742-4.264,32.636,32.636,0,0,0,3.721.074,18.314,18.314,0,0,1,6.921,14.89,32.2,32.2,0,0,1-1.674,9.7,4.073,4.073,0,0,0-2.216,1.118l-.581.577c-1.533,1.533-2.495,2.409-4.221,2.409-1.759,0-2.607-.909-3.945-2.516s-3.022-3.617-6.3-3.617-4.966,2.01-6.316,3.625-2.179,2.509-3.925,2.509-2.607-.911-3.945-2.519-3.013-3.614-6.282-3.614-4.953,2.006-6.3,3.617-2.187,2.516-3.944,2.516c-1.723,0-2.726-.92-4.22-2.43l-.485-.486a4.082,4.082,0,0,0-2.22-1.132A32.322,32.322,0,0,1,4.6,35.267a18.317,18.317,0,0,1,6.915-14.89ZM62.787,49.332C58.093,61.276,47.963,72.365,38.7,75.705a5.134,5.134,0,0,0-3.433,4.778v.63a5.336,5.336,0,0,0,1.012,3.031,3.069,3.069,0,1,1-5.612,1.722,3.027,3.027,0,0,1,.547-1.754,5.157,5.157,0,0,0,.986-2.981V80.5a5.132,5.132,0,0,0-3.444-4.787C19.5,72.408,9.372,61.333,4.68,49.373a.92.92,0,0,1,.382-1.158,1.15,1.15,0,0,1,.613-.193.955.955,0,0,1,.688.307l.46.46c1.547,1.57,3.3,3.344,6.4,3.344,3.277,0,4.953-2.006,6.3-3.617S21.7,46,23.46,46s2.59.908,3.927,2.512,3.019,3.622,6.3,3.622,4.937-2,6.279-3.609S42.167,46,43.928,46s2.607.909,3.944,2.516,3.021,3.617,6.3,3.617a8.651,8.651,0,0,0,6.4-3.307l.554-.549a.989.989,0,0,1,1.293-.109.92.92,0,0,1,.374,1.164Z"/>
            <path id="Shape-17" data-name="Shape" d="M12.267,35.267A1.533,1.533,0,0,0,13.8,33.733V30.667a1.533,1.533,0,0,0-3.067,0v3.067A1.533,1.533,0,0,0,12.267,35.267Z"/>
            <path id="Shape-18" data-name="Shape" d="M18.4,39.867a1.533,1.533,0,0,0,1.533-1.533V35.267a1.533,1.533,0,0,0-3.067,0v3.067A1.533,1.533,0,0,0,18.4,39.867Z"/>
            <path id="Shape-19" data-name="Shape" d="M26.067,36.8A1.533,1.533,0,0,0,27.6,35.267V32.2a1.533,1.533,0,0,0-3.067,0v3.067A1.533,1.533,0,0,0,26.067,36.8Z"/>
            <path id="Shape-20" data-name="Shape" d="M55.2,35.267a1.533,1.533,0,0,0,1.533-1.533V30.667a1.533,1.533,0,1,0-3.067,0v3.067A1.533,1.533,0,0,0,55.2,35.267Z"/>
            <path id="Shape-21" data-name="Shape" d="M49.067,39.867A1.533,1.533,0,0,0,50.6,38.333V35.267a1.533,1.533,0,1,0-3.067,0v3.067A1.533,1.533,0,0,0,49.067,39.867Z"/>
            <path id="Shape-22" data-name="Shape" d="M41.4,36.8a1.533,1.533,0,0,0,1.533-1.533V32.2a1.533,1.533,0,0,0-3.067,0v3.067A1.533,1.533,0,0,0,41.4,36.8Z"/>
            <path id="Shape-23" data-name="Shape" d="M33.733,39.867a1.533,1.533,0,0,0,1.533-1.533V35.267a1.533,1.533,0,0,0-3.067,0v3.067A1.533,1.533,0,0,0,33.733,39.867Z"/>
          </g>
          <path id="Shape-24" data-name="Shape" d="M26.067,70.8a1.533,1.533,0,0,1-.816-.236,44.16,44.16,0,0,1-11.758-11.4,1.533,1.533,0,1,1,2.489-1.791,41.041,41.041,0,0,0,10.9,10.6,1.533,1.533,0,0,1-.811,2.831Z" fill="#fff"/>
        </g>
      </g>
    </g>
  </g>
</svg>
