<svg xmlns="http://www.w3.org/2000/svg" xmlns:xlink="http://www.w3.org/1999/xlink" width="190" height="190" viewBox="0 0 190 190">
  <defs>
    <clipPath id="clip-path">
      <rect id="Rectángulo_35393" data-name="Rectángulo 35393" width="92" height="92" transform="translate(1069 11353)" fill="#fff" stroke="#707070" stroke-width="1"/>
    </clipPath>
  </defs>
  <g id="Grupo_176256" data-name="Grupo 176256" transform="translate(-1020 -11047)">
    <path id="Trazado_124312" data-name="Trazado 124312" d="M10,0H180a10,10,0,0,1,10,10V180a10,10,0,0,1-10,10H10A10,10,0,0,1,0,180V10A10,10,0,0,1,10,0Z" transform="translate(1020 11047)" fill="#fed2b2"/>
    <path id="Trazado_124313" data-name="Trazado 124313" d="M-27.6-4.333a4.673,4.673,0,0,1-.721,2.36,4.35,4.35,0,0,1-1.85,1.586,6.3,6.3,0,0,1-2.72.563,5.025,5.025,0,0,1-3.973-1.644,6.786,6.786,0,0,1-1.45-4.641v-.633a7.746,7.746,0,0,1,.655-3.292,4.961,4.961,0,0,1,1.885-2.18,5.26,5.26,0,0,1,2.848-.769,5.516,5.516,0,0,1,3.744,1.226,4.844,4.844,0,0,1,1.608,3.379h-3.076a2.292,2.292,0,0,0-.589-1.679,2.422,2.422,0,0,0-1.687-.51,1.843,1.843,0,0,0-1.687.861,5.536,5.536,0,0,0-.562,2.751v.905A6.126,6.126,0,0,0-34.66-3.12a1.882,1.882,0,0,0,1.771.879,2.369,2.369,0,0,0,1.626-.5,2.126,2.126,0,0,0,.6-1.591ZM-20.918,0A3.344,3.344,0,0,1-21.2-.853,2.754,2.754,0,0,1-23.484.176,3.374,3.374,0,0,1-25.77-.637a2.588,2.588,0,0,1-.94-2.043,2.66,2.66,0,0,1,1.143-2.338,5.821,5.821,0,0,1,3.322-.791h.914v-.5q0-1.316-1.134-1.316A.927.927,0,0,0-23.52-6.587h-2.962a2.655,2.655,0,0,1,1.173-2.239,4.931,4.931,0,0,1,2.993-.86,4.323,4.323,0,0,1,2.874.888A3.086,3.086,0,0,1-18.36-6.363v4.21a4.311,4.311,0,0,0,.4,2V0Zm-1.854-1.934a1.652,1.652,0,0,0,.918-.237,1.487,1.487,0,0,0,.523-.536V-4.228h-.861q-1.547,0-1.547,1.389a.848.848,0,0,0,.272.655A.986.986,0,0,0-22.772-1.934Zm11.8-4.9-.976-.07a1.752,1.752,0,0,0-1.793.879V0H-16.7V-9.51h2.777l.1,1.222a2.294,2.294,0,0,1,2.083-1.4,2.888,2.888,0,0,1,.826.105ZM-4.808,0a3.344,3.344,0,0,1-.281-.853A2.754,2.754,0,0,1-7.374.176,3.374,3.374,0,0,1-9.659-.637a2.588,2.588,0,0,1-.94-2.043A2.66,2.66,0,0,1-9.457-5.019,5.821,5.821,0,0,1-6.135-5.81h.914v-.5q0-1.316-1.134-1.316A.927.927,0,0,0-7.409-6.587h-2.962A2.655,2.655,0,0,1-9.2-8.825a4.931,4.931,0,0,1,2.993-.86A4.323,4.323,0,0,1-3.331-8.8,3.086,3.086,0,0,1-2.25-6.363v4.21a4.311,4.311,0,0,0,.4,2V0ZM-6.662-1.934a1.652,1.652,0,0,0,.918-.237,1.487,1.487,0,0,0,.523-.536V-4.228h-.861q-1.547,0-1.547,1.389a.848.848,0,0,0,.272.655A.986.986,0,0,0-6.662-1.934ZM2.188-9.51l.1,1.116A3.27,3.27,0,0,1,5-9.686,2.407,2.407,0,0,1,7.436-8.253,3.165,3.165,0,0,1,10.23-9.686q2.892,0,2.971,3.5V0H10.23V-6a1.813,1.813,0,0,0-.246-1.063,1.048,1.048,0,0,0-.9-.334,1.4,1.4,0,0,0-1.31.782l.009.123V0H4.816V-5.985a1.906,1.906,0,0,0-.237-1.081A1.045,1.045,0,0,0,3.674-7.4a1.42,1.42,0,0,0-1.3.782V0H-.589V-9.51ZM19.494.176a4.889,4.889,0,0,1-3.542-1.305,4.507,4.507,0,0,1-1.354-3.4v-.246a5.84,5.84,0,0,1,.541-2.575,3.955,3.955,0,0,1,1.578-1.727,4.763,4.763,0,0,1,2.461-.611,4.117,4.117,0,0,1,3.164,1.244A4.887,4.887,0,0,1,23.5-4.975v1.151H17.613a2.135,2.135,0,0,0,.694,1.257,2.066,2.066,0,0,0,1.389.457,2.662,2.662,0,0,0,2.2-.984l1.354,1.6A3.784,3.784,0,0,1,21.678-.277,5.3,5.3,0,0,1,19.494.176ZM19.16-7.4q-1.3,0-1.547,1.723H20.6v-.229a1.467,1.467,0,0,0-.36-1.1A1.434,1.434,0,0,0,19.16-7.4ZM27.817,0H24.847V-13.5h2.971Zm1.45-4.843a5.613,5.613,0,0,1,.554-2.536,3.96,3.96,0,0,1,1.591-1.709,4.791,4.791,0,0,1,2.435-.6,4.373,4.373,0,0,1,3.366,1.323,5.076,5.076,0,0,1,1.23,3.6v.105a4.925,4.925,0,0,1-1.235,3.529A4.384,4.384,0,0,1,33.864.176,4.434,4.434,0,0,1,30.6-1.042a4.761,4.761,0,0,1-1.327-3.3Zm2.962.185a3.538,3.538,0,0,0,.413,1.934,1.376,1.376,0,0,0,1.222.615q1.582,0,1.617-2.435v-.3q0-2.558-1.635-2.558-1.485,0-1.608,2.206Z" transform="translate(1115 11207.889)" fill="#12263f"/>
    <g id="Enmascarar_grupo_197" data-name="Enmascarar grupo 197" transform="translate(0 -276)" clip-path="url(#clip-path)">
      <g id="caramelo" transform="translate(1058.385 11342.195)">
        <path id="Trazado_122782" data-name="Trazado 122782" d="M12.385,85.41l.31-46.487c.239-2.388,1.415-4.989,4.423-7.723L32.819,17a14.384,14.384,0,0,1,11.332-3.645L92.8,18.922a9.023,9.023,0,0,1,7.962,8.97v45.77a7.254,7.254,0,0,1-1.159,3.928L86.984,97.051a7.218,7.218,0,0,1-6.962,3.238l-61.4-7.723a7.218,7.218,0,0,1-6.237-7.157Z" fill="#d1a074"/>
        <path id="Trazado_122783" data-name="Trazado 122783" d="M99.546,23.212,92,33.023c-1.513,2.123-1.769,5.945-1.769,8.554V92l-3.167,5.06c-1.5,2.327-2.928,3.247-5.679,2.9V52.192a4.98,4.98,0,0,0-4.538-4.839h0C72.538,46.787,69,50.52,69,54.846V57.5a5.308,5.308,0,0,1-5.308,5.308h0A5.308,5.308,0,0,1,58.385,57.5V51.1a7.139,7.139,0,0,0-6.193-7.077l-3.644-.478a6.776,6.776,0,0,0-7.855,6.882v11.5a5.308,5.308,0,0,1-5.308,5.308h0a5.308,5.308,0,0,1-5.308-5.308V47.769a7.864,7.864,0,0,0-6.52-7.519L13.269,38.923A10.628,10.628,0,0,1,17.135,31.2L32.819,17a14.384,14.384,0,0,1,11.332-3.645L92.8,18.922a9.386,9.386,0,0,1,6.705,4.29" fill="#f4ba7f"/>
        <path id="Trazado_122784" data-name="Trazado 122784" d="M93.044,17.162,44.39,11.6a16.242,16.242,0,0,0-12.73,4.087L15.923,29.891A16.215,16.215,0,0,0,10.615,41.9V85.41a9.014,9.014,0,0,0,7.873,8.926l61.392,7.714a9.041,9.041,0,0,0,8.669-4.025l12.615-19.462a8.97,8.97,0,0,0,1.451-4.9V27.892a10.792,10.792,0,0,0-9.572-10.73ZM14.154,85.41c0-30.077,0-43.541.053-44.585l9.12,1.185a6.086,6.086,0,0,1,4.98,5.759V61.923a7.077,7.077,0,1,0,14.154,0v-11.5a5.007,5.007,0,0,1,5.847-5.131l3.645.478a5.387,5.387,0,0,1,4.662,5.308V57.5a7.077,7.077,0,1,0,14.154,0V54.846c0-3.255,2.654-6.192,5.847-5.741a3.247,3.247,0,0,1,3,3.087V98.449L18.922,90.823a5.467,5.467,0,0,1-4.768-5.414Zm69,12.721V52.192a6.714,6.714,0,0,0-6.077-6.6c-5.352-.7-9.846,3.857-9.846,9.253V57.5a3.538,3.538,0,1,1-7.077,0V51.1a8.917,8.917,0,0,0-7.74-8.846l-3.645-.478a8.537,8.537,0,0,0-9.846,8.652v11.5a3.538,3.538,0,1,1-7.077,0V47.769A9.58,9.58,0,0,0,23.787,38.5l-8.749-1.132a12.65,12.65,0,0,1,3.308-4.857L34.031,18.356a12.694,12.694,0,0,1,9.943-3.2l48.7,5.564a7.254,7.254,0,0,1,4.715,2.539L90.6,32.041c-1.424,1.92-2.141,5.113-2.141,9.536V91.655C85.949,95.158,85.6,97.069,83.154,98.13ZM99.077,73.662a5.458,5.458,0,0,1-.885,2.972L92,86.2V41.577c0-3.538.522-6.192,1.415-7.475L99,26.883a7.512,7.512,0,0,1,.08,1.008Z"/>
      </g>
    </g>
  </g>
</svg>
