<svg xmlns="http://www.w3.org/2000/svg" width="83.832" height="93.5" viewBox="0 0 83.832 93.5">
  <g id="expertos" transform="translate(-26.473)">
    <g id="Grupo_175821" data-name="Grupo 175821" transform="translate(27.843 1.37)">
      <path id="Trazado_123718" data-name="Trazado 123718" d="M102.5,371.455H33.974l3.574-20.1a11.666,11.666,0,0,1,11.487-9.626H87.441a11.665,11.665,0,0,1,11.487,9.626l2.224,12.509Z" transform="translate(-33.974 -280.694)" fill="#eaf6ff"/>
      <path id="Trazado_123719" data-name="Trazado 123719" d="M310.549,363.865v4.491a3.1,3.1,0,0,1-3.1,3.1h-4.039a3.1,3.1,0,0,1-3.1-3.1V362.2a7.256,7.256,0,0,0-3.24-6.083,15.257,15.257,0,0,1-6.83-14.39h6.6a11.665,11.665,0,0,1,11.487,9.626Z" transform="translate(-243.371 -280.694)" fill="#c8effe"/>
      <path id="Trazado_123720" data-name="Trazado 123720" d="M181.168,341.733h14.767v29.724H181.168Z" transform="translate(-154.288 -280.696)" fill="#0268b4"/>
      <path id="Trazado_123721" data-name="Trazado 123721" d="M241.445,341.733H245.2v29.724h-3.759Z" transform="translate(-203.557 -280.696)" fill="#015a9a"/>
      <path id="Trazado_123722" data-name="Trazado 123722" d="M195.935,341.733v12.392l-7.383-8.007-7.384,8.007V341.733Z" transform="translate(-154.288 -280.696)" fill="#f07281"/>
      <g id="Grupo_175820" data-name="Grupo 175820" transform="translate(26.88 61.037)">
        <path id="Trazado_123723" data-name="Trazado 123723" d="M181.168,369.675v4.077l7.384-8.007h-3.759Z" transform="translate(-181.168 -361.36)" fill="#eb5569"/>
        <path id="Trazado_123724" data-name="Trazado 123724" d="M241.445,341.733v8.315l3.759,4.077V341.733Z" transform="translate(-230.437 -341.733)" fill="#eb5569"/>
      </g>
      <path id="Trazado_123725" data-name="Trazado 123725" d="M195.937,268.876H181.171v13.3l7.383,4.385,7.383-4.385Z" transform="translate(-154.29 -221.144)" fill="#ffdfcf"/>
      <path id="Trazado_123726" data-name="Trazado 123726" d="M216.81,268.876v13.3l-5.5,3.268,1.88,1.116,7.383-4.385v-13.3Z" transform="translate(-178.923 -221.144)" fill="#ffcebf"/>
      <path id="Trazado_123727" data-name="Trazado 123727" d="M80.844,150.407h4.419V134.93H80.844a5.694,5.694,0,0,0-5.694,5.694v4.088A5.694,5.694,0,0,0,80.844,150.407Z" transform="translate(-67.631 -111.659)" fill="#ffdfcf"/>
      <path id="Trazado_123728" data-name="Trazado 123728" d="M109.947,134.93h3.759v15.477h-3.759Z" transform="translate(-96.073 -111.659)" fill="#ffcebf"/>
      <path id="Trazado_123729" data-name="Trazado 123729" d="M317.086,150.407h-4.419V134.93h4.419a5.694,5.694,0,0,1,5.694,5.694v4.088A5.694,5.694,0,0,1,317.086,150.407Z" transform="translate(-261.773 -111.659)" fill="#ffdfcf"/>
      <path id="Trazado_123730" data-name="Trazado 123730" d="M320.04,134.93h-3.759a5.694,5.694,0,0,1,5.694,5.694v4.088a5.694,5.694,0,0,1-5.694,5.694h3.759a5.694,5.694,0,0,0,5.694-5.694v-4.088A5.694,5.694,0,0,0,320.04,134.93Z" transform="translate(-264.727 -111.659)" fill="#ffcebf"/>
      <path id="Trazado_123731" data-name="Trazado 123731" d="M153.281,27.484V18.55a7.444,7.444,0,0,0-7.444-7.444h-2.172a5.728,5.728,0,0,0-5.32-3.605H116.353A2.258,2.258,0,0,0,114.1,9.758V27.484a3.287,3.287,0,0,0,3.287,3.287h32.612a3.287,3.287,0,0,0,3.287-3.287Z" transform="translate(-99.464 -7.5)" fill="#eaf6ff"/>
      <path id="Trazado_123732" data-name="Trazado 123732" d="M237.555,11.105h-2.172a5.728,5.728,0,0,0-5.32-3.605H226.3a5.728,5.728,0,0,1,5.32,3.605H233.8a7.444,7.444,0,0,1,7.444,7.444v8.934a3.287,3.287,0,0,1-3.287,3.287h3.759A3.287,3.287,0,0,0,245,27.484V18.55a7.444,7.444,0,0,0-7.444-7.444Z" transform="translate(-191.181 -7.5)" fill="#c8effe"/>
      <path id="Trazado_123733" data-name="Trazado 123733" d="M150.926,128.78H143.4a12.867,12.867,0,0,1-12.867-12.867V100.832a8.473,8.473,0,0,1,8.473-8.473H155.32a8.473,8.473,0,0,1,8.473,8.473v15.081a12.867,12.867,0,0,1-12.867,12.867Z" transform="translate(-112.899 -76.862)" fill="#ffdfcf"/>
      <path id="Trazado_123734" data-name="Trazado 123734" d="M229.778,92.359h-3.759a8.473,8.473,0,0,1,8.473,8.473v15.081a12.867,12.867,0,0,1-12.867,12.867h3.759a12.867,12.867,0,0,0,12.867-12.867V100.832A8.473,8.473,0,0,0,229.778,92.359Z" transform="translate(-187.357 -76.862)" fill="#ffcebf"/>
      <path id="Trazado_123735" data-name="Trazado 123735" d="M341.288,282.156a15.275,15.275,0,1,0-23.635,12.784,7.258,7.258,0,0,1,3.24,6.083h10.239a7.326,7.326,0,0,1,3.288-6.114A15.257,15.257,0,0,0,341.288,282.156Z" transform="translate(-260.196 -219.514)" fill="#ffd15b"/>
      <path id="Trazado_123736" data-name="Trazado 123736" d="M385.615,266.885c-.509.012-1.011.05-1.507.112a15.275,15.275,0,0,1,6.524,27.911,7.326,7.326,0,0,0-3.288,6.114H391.1a7.326,7.326,0,0,1,3.288-6.114,15.274,15.274,0,0,0-8.777-28.023Z" transform="translate(-320.168 -219.514)" fill="#feb137"/>
      <path id="Trazado_123737" data-name="Trazado 123737" d="M376.589,453.839H366.35v6.152a3.1,3.1,0,0,0,3.1,3.1h4.04a3.1,3.1,0,0,0,3.1-3.1Z" transform="translate(-305.653 -372.33)" fill="#0268b4"/>
      <path id="Trazado_123738" data-name="Trazado 123738" d="M387.958,453.839v6.152a3.1,3.1,0,0,1-3.1,3.1h3.759a3.1,3.1,0,0,0,3.1-3.1v-6.152Z" transform="translate(-320.781 -372.33)" fill="#015a9a"/>
      <path id="Trazado_123739" data-name="Trazado 123739" d="M210.346,184.784h-.017a2.508,2.508,0,0,1-2.508-2.508v-3.9a2.508,2.508,0,0,1,2.508-2.508h.017a2.508,2.508,0,0,1,2.508,2.508v3.9A2.507,2.507,0,0,1,210.346,184.784Z" transform="translate(-176.074 -145.122)" fill="#ffa78f"/>
      <circle id="Elipse_3994" data-name="Elipse 3994" cx="7.057" cy="7.057" r="7.057" transform="translate(17.633 24.969)" fill="#99e6fc"/>
      <path id="Trazado_123740" data-name="Trazado 123740" d="M160.764,144.231a7.058,7.058,0,0,0-1.88.255,7.057,7.057,0,0,1,0,13.6,7.057,7.057,0,1,0,1.88-13.859Z" transform="translate(-136.073 -119.262)" fill="#62dbfb"/>
      <circle id="Elipse_3995" data-name="Elipse 3995" cx="7.057" cy="7.057" r="7.057" transform="translate(36.78 24.969)" fill="#99e6fc"/>
      <path id="Trazado_123741" data-name="Trazado 123741" d="M265.609,144.231a7.059,7.059,0,0,0-1.88.255,7.057,7.057,0,0,1,0,13.6,7.057,7.057,0,1,0,1.88-13.859Z" transform="translate(-221.772 -119.262)" fill="#62dbfb"/>
    </g>
    <g id="Grupo_175822" data-name="Grupo 175822" transform="translate(26.473 0)">
      <path id="Trazado_123742" data-name="Trazado 123742" d="M215.47,433.917a1.37,1.37,0,0,0-1.37,1.37v11.52a1.37,1.37,0,0,0,2.739,0v-11.52A1.37,1.37,0,0,0,215.47,433.917Z" transform="translate(-179.836 -354.676)"/>
      <path id="Trazado_123743" data-name="Trazado 123743" d="M101.69,441.131a1.369,1.369,0,0,0-1.48,1.25l-.858,10.2a1.37,1.37,0,0,0,1.25,1.48q.059,0,.117,0a1.37,1.37,0,0,0,1.363-1.255l.858-10.2A1.37,1.37,0,0,0,101.69,441.131Z" transform="translate(-86.039 -360.569)"/>
      <path id="Trazado_123744" data-name="Trazado 123744" d="M203.973,245.5a4.892,4.892,0,0,0,3.571-1.557,1.37,1.37,0,1,0-2.006-1.865,2.135,2.135,0,0,1-3.131,0,1.37,1.37,0,0,0-2.006,1.866A4.895,4.895,0,0,0,203.973,245.5Z" transform="translate(-168.339 -197.515)"/>
      <path id="Trazado_123745" data-name="Trazado 123745" d="M108.2,55.908a1.37,1.37,0,0,0-2.392,1.335,13.912,13.912,0,0,1-4.5,18.378,8.667,8.667,0,0,0-3.8,5.887H89.8A8.546,8.546,0,0,0,86.05,75.65a13.9,13.9,0,0,1,7.271-25.539,13.764,13.764,0,0,1,8.62,2.73,1.37,1.37,0,1,0,1.633-2.2,16.488,16.488,0,0,0-10.317-3.27A16.676,16.676,0,0,0,77.282,61.036H70.859V53.752a14.264,14.264,0,0,0,9.2-12.265h3.094a7.072,7.072,0,0,0,7.064-7.064V30.335a7.072,7.072,0,0,0-7.064-7.064h-.535a4.672,4.672,0,0,0,.409-1.917V12.42A8.824,8.824,0,0,0,74.216,3.6H72.9A7.1,7.1,0,0,0,66.725,0H44.733A3.632,3.632,0,0,0,41.1,3.627V21.353a4.614,4.614,0,0,0,.417,1.917h-.465a7.072,7.072,0,0,0-7.064,7.064v4.088a7.072,7.072,0,0,0,7.064,7.064H44.15a14.265,14.265,0,0,0,9.2,12.266v7.283H42.9A13.021,13.021,0,0,0,30.068,71.792l-3.574,20.1a1.37,1.37,0,1,0,2.7.48l3.574-20.1a10.285,10.285,0,0,1,10.138-8.5H53.352V92.13a1.37,1.37,0,0,0,2.739,0v-16.8L60.737,70.3v3.891a1.37,1.37,0,0,0,2.739,0V70.3l4.645,5.037v16.8a1.37,1.37,0,1,0,2.739,0V63.775h6.158a16.755,16.755,0,0,0,7.532,14.166,5.862,5.862,0,0,1,2.621,4.935v6.154A4.474,4.474,0,0,0,91.64,93.5h4.04a4.474,4.474,0,0,0,4.469-4.469V82.879h0a5.941,5.941,0,0,1,2.673-4.971,16.65,16.65,0,0,0,5.38-22ZM87.481,30.335v4.088a4.33,4.33,0,0,1-4.325,4.325h-3.05V26.01h3.05A4.33,4.33,0,0,1,87.481,30.335ZM43.843,3.627a.889.889,0,0,1,.889-.888H66.725a4.36,4.36,0,0,1,4.048,2.743,1.369,1.369,0,0,0,1.272.862h2.171A6.082,6.082,0,0,1,80.29,12.42v8.934a1.913,1.913,0,0,1-.547,1.343,9.858,9.858,0,0,0-9.479-7.2,1.37,1.37,0,0,0,0,2.739,7.112,7.112,0,0,1,7.1,7.1v1.845a8.42,8.42,0,0,0-13.778,3.858,4.056,4.056,0,0,0-2.967,0,8.42,8.42,0,0,0-13.777-3.856V25.34a7.111,7.111,0,0,1,7.1-7.1h9.873a1.37,1.37,0,0,0,0-2.739H53.949a9.859,9.859,0,0,0-9.5,7.255,1.916,1.916,0,0,1-.61-1.4V3.627ZM77.367,33.4a5.688,5.688,0,1,1-5.688-5.688A5.694,5.694,0,0,1,77.367,33.4ZM52.533,39.084A5.688,5.688,0,1,1,58.221,33.4,5.694,5.694,0,0,1,52.533,39.084Zm8.427-4.46a1.146,1.146,0,0,1,2.293,0v3.9a1.139,1.139,0,0,1-1.138,1.138H62.1a1.139,1.139,0,0,1-1.138-1.138Zm-24.228-.2V30.335a4.33,4.33,0,0,1,4.325-4.325h3.05V38.748h-3.05A4.33,4.33,0,0,1,36.732,34.423Zm10.114,6v-.813a8.407,8.407,0,0,0,11.5-.12A3.88,3.88,0,0,0,62.1,42.4h.017a3.881,3.881,0,0,0,3.751-2.913,8.407,8.407,0,0,0,11.5.12,11.6,11.6,0,0,1-11.5,12.31H58.342a11.51,11.51,0,0,1-11.5-11.5Zm11.5,14.236H65.87a14.266,14.266,0,0,0,2.25-.18v7.149L62.107,65.2l-6.014-3.571V54.477a14.25,14.25,0,0,0,2.249.18ZM56.091,64.811,59.954,67.1l-3.862,4.188ZM64.26,67.1l3.861-2.293v6.48ZM97.409,89.031a1.732,1.732,0,0,1-1.73,1.73h-4.04a1.732,1.732,0,0,1-1.73-1.73V84.248h7.5v4.783Z" transform="translate(-26.473 0)"/>
      <path id="Trazado_123746" data-name="Trazado 123746" d="M370.763,318.959a1.37,1.37,0,0,0-1.827.642l-3.294,6.861-4.262-3.341a1.37,1.37,0,0,0-2.065.456l-3.321,6.518a1.37,1.37,0,1,0,2.44,1.244L361,326.3l4.294,3.366a1.37,1.37,0,0,0,2.08-.485l4.032-8.4A1.37,1.37,0,0,0,370.763,318.959Z" transform="translate(-295.694 -260.601)"/>
    </g>
  </g>
</svg>
