<svg xmlns="http://www.w3.org/2000/svg" xmlns:xlink="http://www.w3.org/1999/xlink" width="105" height="105" viewBox="0 0 105 105">
  <defs>
    <clipPath id="clip-path">
      <rect id="_1406" data-name="1406" width="105" height="105" rx="9" transform="translate(328 734)" fill="#fd7f23"/>
    </clipPath>
  </defs>
  <g id="Enmascarar_grupo_223" data-name="Enmascarar grupo 223" transform="translate(-328 -734)" clip-path="url(#clip-path)">
    <g id="pruebas" transform="translate(328 734)">
      <g id="Grupo_176180" data-name="Grupo 176180">
        <g id="Grupo_176175" data-name="Grupo 176175">
          <path id="Trazado_124159" data-name="Trazado 124159" d="M95.717,35.223V87.973L52.5,91.383,9.282,87.973V35.223a8.1,8.1,0,0,1,8.1-8.1h70.23A8.1,8.1,0,0,1,95.717,35.223Z" fill="#f9f6f9"/>
          <path id="Trazado_124160" data-name="Trazado 124160" d="M95.717,84.495v3.478L52.5,91.383,9.282,87.973V84.495Z" fill="#dddaec"/>
          <path id="Trazado_124161" data-name="Trazado 124161" d="M11.964,89.174l-2.681-1.2V35.224a8.1,8.1,0,0,1,8.1-8.1h4.093a8.1,8.1,0,0,0-8.1,8.1V87.974Z" fill="#dddaec"/>
          <path id="Trazado_124162" data-name="Trazado 124162" d="M95.717,87.974H9.283a7.744,7.744,0,0,0,0,15.489H95.717a7.744,7.744,0,0,0,0-15.489Z" fill="#f9f6f9"/>
          <path id="Trazado_124163" data-name="Trazado 124163" d="M102.223,99.916a7.736,7.736,0,0,1-6.507,3.546H9.283a7.745,7.745,0,1,1,0-15.489h2.494a7.745,7.745,0,0,0,6.507,11.944h83.939Z" fill="#dddaec"/>
          <path id="Trazado_124164" data-name="Trazado 124164" d="M17.075,76.375V39.028a4.114,4.114,0,0,1,4.114-4.114H83.81a4.114,4.114,0,0,1,4.114,4.114V76.375a3.8,3.8,0,0,1-3.8,3.8H20.88A3.8,3.8,0,0,1,17.075,76.375Z" fill="#9dc6fb"/>
          <path id="Trazado_124165" data-name="Trazado 124165" d="M26.864,80.179H20.879a3.8,3.8,0,0,1-3.8-3.8V39.028a4.114,4.114,0,0,1,4.114-4.114h5.984a4.114,4.114,0,0,0-4.114,4.114V76.375a3.805,3.805,0,0,0,3.8,3.8Z" fill="#80b4fb"/>
          <path id="Trazado_124166" data-name="Trazado 124166" d="M61.6,94.793H43.4a6.82,6.82,0,0,1-6.82-6.82H68.422A6.82,6.82,0,0,1,61.6,94.793Z" fill="#cacaca"/>
        </g>
        <g id="Grupo_176177" data-name="Grupo 176177">
          <path id="Trazado_124167" data-name="Trazado 124167" d="M72.542,27.6,70.09,26.589a17.562,17.562,0,0,0,0-3.962l2.449-1.014a4.9,4.9,0,1,0-3.753-9.059L66.34,13.569a17.57,17.57,0,0,0-2.8-2.8l1.015-2.45a4.9,4.9,0,1,0-9.059-3.753L54.479,7.017a17.55,17.55,0,0,0-3.962,0L49.5,4.566a4.9,4.9,0,1,0-9.059,3.753l1.015,2.448a17.57,17.57,0,0,0-2.8,2.8l-2.451-1.015a4.9,4.9,0,1,0-3.751,9.059l2.45,1.015a17.61,17.61,0,0,0,0,3.961L32.457,27.6a4.9,4.9,0,1,0,3.752,9.058l2.449-1.015.035.043,0,.007a17.479,17.479,0,0,0,2.763,2.751L40.445,40.9a4.9,4.9,0,0,0,6.561,6.337h0a4.876,4.876,0,0,0,2.5-2.585l1.016-2.45a17.61,17.61,0,0,0,3.961,0l1.014,2.448A4.9,4.9,0,1,0,64.553,40.9L63.539,38.45a17.6,17.6,0,0,0,2.8-2.8l2.45,1.015A4.9,4.9,0,1,0,72.542,27.6ZM52.5,32.842a8.234,8.234,0,1,1,8.234-8.234A8.234,8.234,0,0,1,52.5,32.842Z" fill="#4a80aa"/>
          <g id="Grupo_176176" data-name="Grupo 176176">
            <path id="Trazado_124168" data-name="Trazado 124168" d="M54.582,7.015a17.562,17.562,0,0,1,3.961,0l1.015-2.451a4.885,4.885,0,0,1,2.5-2.585c-.051-.023-.1-.047-.155-.069a4.9,4.9,0,0,0-6.406,2.654l-.963,2.327Z" fill="#407093"/>
            <path id="Trazado_124169" data-name="Trazado 124169" d="M33.867,34.009A4.9,4.9,0,0,1,36.52,27.6l2.448-1.015a17.61,17.61,0,0,1,0-3.962l-2.45-1.015a4.9,4.9,0,0,1-.151-8.992l-.161-.067a4.9,4.9,0,1,0-3.751,9.059l2.45,1.015a17.61,17.61,0,0,0,0,3.962L32.457,27.6a4.9,4.9,0,1,0,3.752,9.059l.161-.067a4.886,4.886,0,0,1-2.5-2.587Z" fill="#407093"/>
            <path id="Trazado_124170" data-name="Trazado 124170" d="M59.558,44.651,58.544,42.2a17.61,17.61,0,0,1-3.961,0l-.051.124.963,2.326A4.9,4.9,0,0,0,61.9,47.3c.053-.022.1-.045.156-.068a4.883,4.883,0,0,1-2.5-2.585Z" fill="#407093"/>
            <path id="Trazado_124171" data-name="Trazado 124171" d="M47.006,47.236A4.9,4.9,0,0,1,40.445,40.9l1.016-2.451A17.479,17.479,0,0,1,38.7,35.7l0-.007a.39.39,0,0,0-.035-.043h4.064a17.528,17.528,0,0,0,2.8,2.8L44.508,40.9a4.9,4.9,0,0,0,2.5,6.336Z" fill="#407093"/>
            <path id="Trazado_124172" data-name="Trazado 124172" d="M47.006,1.982a4.9,4.9,0,0,0-6.561,6.336l1.016,2.451A17.479,17.479,0,0,0,38.7,13.52l0,.007a.39.39,0,0,1-.035.043h4.064a17.528,17.528,0,0,1,2.8-2.8L44.508,8.318a4.9,4.9,0,0,1,2.5-6.336Z" fill="#407093"/>
          </g>
        </g>
        <g id="Grupo_176178" data-name="Grupo 176178">
          <path id="Trazado_124173" data-name="Trazado 124173" d="M69.028,72.873a3.5,3.5,0,0,1-2.767-1.356l-5.854-7.551a3.5,3.5,0,0,1,5.534-4.29l2.628,3.39L73.7,53.985a3.5,3.5,0,0,1,6.1,3.443L72.077,71.094a3.5,3.5,0,0,1-2.794,1.77q-.129.009-.255.009Z" fill="#a2e19f"/>
        </g>
        <g id="Grupo_176179" data-name="Grupo 176179">
          <path id="Trazado_124174" data-name="Trazado 124174" d="M42.56,63.562,45.623,60.5a3.646,3.646,0,0,0-5.156-5.156L37.4,58.407l-3.063-3.063A3.646,3.646,0,0,0,29.186,60.5l3.063,3.063-3.063,3.063a3.646,3.646,0,0,0,5.156,5.156L37.4,68.718l3.063,3.063a3.646,3.646,0,0,0,5.156-5.156Z" fill="#e28086"/>
        </g>
      </g>
      <g id="Grupo_176181" data-name="Grupo 176181">
        <path id="Trazado_124175" data-name="Trazado 124175" d="M102.279,89.153a9.225,9.225,0,0,0-5.024-2.589V35.224a9.65,9.65,0,0,0-9.641-9.638h-15.9a19.192,19.192,0,0,0,0-1.964l1.414-.585a6.449,6.449,0,0,0,3.486-8.416c-.013-.031-.027-.062-.041-.091a1.538,1.538,0,0,0-2.786,1.3,3.369,3.369,0,0,1-1.835,4.361L69.5,21.207a1.538,1.538,0,0,0-.94,1.593,16.16,16.16,0,0,1,0,3.617,1.538,1.538,0,0,0,.94,1.594l2.451,1.015a3.364,3.364,0,1,1-2.574,6.216l-2.451-1.015a1.538,1.538,0,0,0-1.792.463,16.17,16.17,0,0,1-2.558,2.56,1.538,1.538,0,0,0-.461,1.791l1.015,2.448a3.364,3.364,0,0,1-6.217,2.575L55.9,41.615a1.536,1.536,0,0,0-1.593-.939,16.134,16.134,0,0,1-3.617,0,1.538,1.538,0,0,0-1.594.94l-1.015,2.451a3.364,3.364,0,0,1-6.216-2.576l1.015-2.451a1.538,1.538,0,0,0-.463-1.792,16.048,16.048,0,0,1-2.556-2.554,1.538,1.538,0,0,0-1.791-.463l-2.452,1.014a3.364,3.364,0,0,1-2.574-6.216l2.449-1.013a1.538,1.538,0,0,0,.94-1.593,16.163,16.163,0,0,1,0-3.617,1.538,1.538,0,0,0-.94-1.594l-2.451-1.015a3.364,3.364,0,1,1,2.574-6.216l2.451,1.015a1.538,1.538,0,0,0,1.792-.463,16.1,16.1,0,0,1,2.557-2.559,1.538,1.538,0,0,0,.463-1.792L41.866,7.731a3.364,3.364,0,0,1,6.217-2.575L49.1,7.6a1.536,1.536,0,0,0,1.593.939,16.146,16.146,0,0,1,3.617,0,1.541,1.541,0,0,0,1.594-.94l1.015-2.451a3.364,3.364,0,0,1,6.216,2.576l-1.015,2.45a1.538,1.538,0,0,0,.463,1.792,16.058,16.058,0,0,1,2.556,2.554,1.538,1.538,0,0,0,1.791.463l2.455-1.015a3.363,3.363,0,0,1,.855-.229,1.538,1.538,0,1,0-.4-3.05,6.428,6.428,0,0,0-1.633.438l-1.415.585a19.132,19.132,0,0,0-1.4-1.4l.586-1.415a6.44,6.44,0,1,0-11.9-4.93l-.586,1.415a19.171,19.171,0,0,0-1.978,0l-.586-1.414a6.44,6.44,0,1,0-11.9,4.93l.586,1.413a19.207,19.207,0,0,0-1.4,1.4L36.8,11.136a6.44,6.44,0,1,0-4.928,11.9l1.415.586a19.347,19.347,0,0,0,0,1.963h-15.9a9.651,9.651,0,0,0-9.641,9.638V86.565A9.282,9.282,0,0,0,9.284,105H95.717a9.283,9.283,0,0,0,6.562-15.848ZM34.334,38.576a6.4,6.4,0,0,0,2.462-.492l1.415-.585a19.133,19.133,0,0,0,1.4,1.4l-.586,1.415a6.44,6.44,0,1,0,11.9,4.93l.586-1.415a19.229,19.229,0,0,0,1.978,0l.586,1.414a6.44,6.44,0,1,0,11.9-4.93L65.388,38.9a19.282,19.282,0,0,0,1.4-1.4l1.414.586a6.451,6.451,0,0,0,7.247-1.63H83.81a2.579,2.579,0,0,1,2.576,2.576V76.376a2.269,2.269,0,0,1-2.266,2.266H20.881a2.269,2.269,0,0,1-2.266-2.266V39.03a2.579,2.579,0,0,1,2.576-2.576h8.366a6.419,6.419,0,0,0,4.778,2.123Zm61.383,63.347H9.284a6.206,6.206,0,0,1,0-12.413H19.823a1.538,1.538,0,0,0,0-3.076h-9V35.224a6.571,6.571,0,0,1,6.565-6.562H28.914a6.455,6.455,0,0,0-.9,4.717H21.19a5.658,5.658,0,0,0-5.652,5.652V76.376a5.348,5.348,0,0,0,5.342,5.342H84.119a5.348,5.348,0,0,0,5.342-5.342V39.03a5.658,5.658,0,0,0-5.652-5.652H76.985a6.456,6.456,0,0,0-.9-4.717h11.53a6.571,6.571,0,0,1,6.564,6.562V86.434H25.934a1.538,1.538,0,0,0,0,3.076h9.25a8.37,8.37,0,0,0,8.213,6.82H61.6a8.37,8.37,0,0,0,8.213-6.82h25.9a6.207,6.207,0,0,1,0,12.413ZM66.656,89.512A5.292,5.292,0,0,1,61.6,93.255H43.4a5.291,5.291,0,0,1-5.053-3.743Z"/>
        <path id="Trazado_124176" data-name="Trazado 124176" d="M52.5,14.838a9.772,9.772,0,1,0,9.772,9.772A9.783,9.783,0,0,0,52.5,14.838Zm0,3.076a6.693,6.693,0,0,1,6.624,7.671H45.875A6.693,6.693,0,0,1,52.5,17.914Zm0,13.392a6.688,6.688,0,0,1-5.326-2.644H57.826A6.688,6.688,0,0,1,52.5,31.306Z"/>
        <path id="Trazado_124177" data-name="Trazado 124177" d="M65.046,72.46a5.073,5.073,0,0,0,3.982,1.952q.181,0,.366-.013a5.028,5.028,0,0,0,4.022-2.548l7.718-13.665a5.039,5.039,0,0,0-8.776-4.956L68.367,60.3l-1.211-1.562a5.039,5.039,0,1,0-7.965,6.175ZM61.227,61.575a1.964,1.964,0,0,1,1.944-1.717,2.024,2.024,0,0,1,.25.016,1.95,1.95,0,0,1,1.3.745l2.628,3.39a1.538,1.538,0,0,0,2.555-.186l5.128-9.08a1.963,1.963,0,1,1,3.419,1.93L70.737,70.338a1.958,1.958,0,0,1-1.565.992,1.979,1.979,0,0,1-1.7-.755l-5.854-7.551a1.949,1.949,0,0,1-.4-1.449Z"/>
        <path id="Trazado_124178" data-name="Trazado 124178" d="M28.1,61.588l1.976,1.976L28.1,65.539a5.184,5.184,0,0,0,7.331,7.331L37.4,70.894l1.975,1.976a5.184,5.184,0,1,0,7.331-7.331l-1.976-1.975,1.976-1.976a5.184,5.184,0,0,0-7.331-7.331L37.4,56.233l-1.976-1.976A5.184,5.184,0,0,0,28.1,61.588Zm2.175-5.156a2.107,2.107,0,0,1,2.98,0L36.317,59.5a1.538,1.538,0,0,0,2.175,0l3.063-3.063a2.107,2.107,0,0,1,2.98,2.98l-3.063,3.063a1.538,1.538,0,0,0,0,2.175l3.063,3.063a2.107,2.107,0,1,1-2.98,2.98l-3.063-3.063a1.538,1.538,0,0,0-2.175,0l-3.063,3.063a2.107,2.107,0,0,1-2.98-2.981l3.063-3.063a1.538,1.538,0,0,0,0-2.175l-3.063-3.063a2.11,2.11,0,0,1,0-2.98Z"/>
      </g>
    </g>
  </g>
</svg>
