<svg xmlns="http://www.w3.org/2000/svg" xmlns:xlink="http://www.w3.org/1999/xlink" width="105" height="105" viewBox="0 0 105 105">
  <defs>
    <clipPath id="clip-path">
      <rect id="_1406" data-name="1406" width="105" height="105" rx="9" transform="translate(1168 734)" fill="#fd7f23"/>
    </clipPath>
  </defs>
  <g id="Enmascarar_grupo_225" data-name="Enmascarar grupo 225" transform="translate(-1168 -734)" clip-path="url(#clip-path)">
    <g id="satisfaccion_1_" data-name="satisfaccion (1)" transform="translate(1168 738.778)">
      <path id="Trazado_124193" data-name="Trazado 124193" d="M102.437,7.61H84.394v4.414a1.741,1.741,0,0,1-1.739,1.733H32.571a8.113,8.113,0,0,1-3.265-.831l-8.071-4.4c-.461-.252-.667-.59-.622-.92H2.563A1.028,1.028,0,0,0,1.538,8.635V92.777A1.028,1.028,0,0,0,2.563,93.8h99.873a1.028,1.028,0,0,0,1.025-1.025V8.636a1.028,1.028,0,0,0-1.025-1.025Zm0,0" fill="#e6e9ed"/>
      <path id="Trazado_124194" data-name="Trazado 124194" d="M64.128,73.975A11.631,11.631,0,1,1,52.5,62.223,11.691,11.691,0,0,1,64.128,73.975Zm0,0" fill="#ffc502"/>
      <path id="Trazado_124195" data-name="Trazado 124195" d="M34.9,73.975a11.631,11.631,0,1,1-11.63-11.752A11.691,11.691,0,0,1,34.9,73.975Zm0,0" fill="#89c947"/>
      <path id="Trazado_124196" data-name="Trazado 124196" d="M93.366,73.975A11.631,11.631,0,1,1,81.735,62.223,11.692,11.692,0,0,1,93.366,73.975Zm0,0" fill="#ef5050"/>
      <g id="Grupo_176186" data-name="Grupo 176186">
        <path id="Trazado_124197" data-name="Trazado 124197" d="M23.528,33.42a.617.617,0,0,1-.615.615H12.25a.616.616,0,0,1-.615-.615V22.713a.617.617,0,0,1,.615-.615H22.913a.617.617,0,0,1,.615.615Zm0,0" fill="#fcdb67"/>
        <path id="Trazado_124198" data-name="Trazado 124198" d="M23.528,52.955a.617.617,0,0,1-.615.615H12.25a.617.617,0,0,1-.615-.615V42.249a.616.616,0,0,1,.615-.615H22.913a.617.617,0,0,1,.615.615Zm0,0" fill="#fcdb67"/>
        <path id="Trazado_124199" data-name="Trazado 124199" d="M68.668,33.42a.617.617,0,0,1-.615.615H57.39a.616.616,0,0,1-.615-.615V22.713a.617.617,0,0,1,.615-.615H68.053a.617.617,0,0,1,.615.615Zm0,0" fill="#fcdb67"/>
        <path id="Trazado_124200" data-name="Trazado 124200" d="M68.668,52.955a.617.617,0,0,1-.615.615H57.39a.617.617,0,0,1-.615-.615V42.249a.616.616,0,0,1,.615-.615H68.053a.617.617,0,0,1,.615.615Zm0,0" fill="#fcdb67"/>
      </g>
      <path id="Trazado_124201" data-name="Trazado 124201" d="M82.655,1.641a1.741,1.741,0,0,1,1.739,1.733v8.651a1.742,1.742,0,0,1-1.739,1.734H32.571a8.1,8.1,0,0,1-3.265-.832l-8.071-4.4c-.84-.457-.84-1.2,0-1.662l8.071-4.4a8.1,8.1,0,0,1,3.265-.832Zm0,0" fill="#ffc502"/>
      <path id="Trazado_124202" data-name="Trazado 124202" d="M33.272,1.641h-.7a8.1,8.1,0,0,0-3.265.832l-8.071,4.4c-.84.457-.84,1.2,0,1.662l8.071,4.4a8.1,8.1,0,0,0,3.265.832h.7Zm0,0" fill="#ffd5b3"/>
      <path id="Trazado_124203" data-name="Trazado 124203" d="M26.66,3.913,21.235,6.868c-.84.457-.84,1.2,0,1.662l5.425,2.955Zm0,0" fill="#775436"/>
      <path id="Trazado_124204" data-name="Trazado 124204" d="M84.394,12.024V3.373a1.741,1.741,0,0,0-1.739-1.733H74.309V13.758h8.347a1.742,1.742,0,0,0,1.739-1.734Zm0,0" fill="#fb8276"/>
      <path id="Trazado_124205" data-name="Trazado 124205" d="M102.437,6.072H96.8a1.538,1.538,0,1,0,0,3.076h5.127V92.264H22.559a1.538,1.538,0,0,0,0,3.076h79.878A2.566,2.566,0,0,0,105,92.777V8.636a2.566,2.566,0,0,0-2.563-2.563Zm0,0"/>
      <path id="Trazado_124206" data-name="Trazado 124206" d="M15.176,92.264H3.076V9.148H19.6a3.008,3.008,0,0,0,.9.732l8.071,4.4a9.584,9.584,0,0,0,4,1.019H82.655a3.279,3.279,0,0,0,3.277-3.272V9.148h3.687a1.538,1.538,0,0,0,0-3.076H85.933v-2.7A3.278,3.278,0,0,0,82.655.1H32.571a9.584,9.584,0,0,0-4,1.019L20.5,5.517a3.133,3.133,0,0,0-.743.555H2.563A2.566,2.566,0,0,0,0,8.636V92.777A2.566,2.566,0,0,0,2.563,95.34H15.176a1.538,1.538,0,0,0,0-3.076ZM75.847,3.179h6.808a.2.2,0,0,1,.2.195v8.651a.2.2,0,0,1-.2.2H75.847Zm-41.037,0h37.96V6.161H34.81Zm0,6.059h37.96V12.22H34.81ZM28.2,4.827l1.844-1a6.416,6.416,0,0,1,1.692-.55v8.854a6.462,6.462,0,0,1-1.693-.55l-1.843-1ZM25.122,6.5V8.9l-2.2-1.2Zm0,0"/>
      <path id="Trazado_124207" data-name="Trazado 124207" d="M52.5,87.264a13.119,13.119,0,0,0,12.58-9.355,1.538,1.538,0,0,0-2.941-.9A10.059,10.059,0,0,1,52.5,84.188,10.214,10.214,0,1,1,62.019,70.58a1.538,1.538,0,0,0,2.906-1.011A13.194,13.194,0,1,0,52.5,87.264Zm0,0"/>
      <path id="Trazado_124208" data-name="Trazado 124208" d="M49.084,72.231v-1.21a1.538,1.538,0,0,0-3.076,0v1.21a1.538,1.538,0,0,0,3.076,0Zm0,0"/>
      <path id="Trazado_124209" data-name="Trazado 124209" d="M58.987,72.231v-1.21a1.538,1.538,0,0,0-3.076,0v1.21a1.538,1.538,0,0,0,3.076,0Zm0,0"/>
      <path id="Trazado_124210" data-name="Trazado 124210" d="M49.088,79.328h6.819a1.538,1.538,0,0,0,0-3.076H49.088a1.538,1.538,0,0,0,0,3.076Zm0,0"/>
      <path id="Trazado_124211" data-name="Trazado 124211" d="M23.265,87.264A13.29,13.29,0,1,0,10.1,73.975,13.244,13.244,0,0,0,23.265,87.264Zm0-23.5A10.214,10.214,0,1,1,13.172,73.975,10.165,10.165,0,0,1,23.265,63.761Zm0,0"/>
      <path id="Trazado_124212" data-name="Trazado 124212" d="M18.314,73.769a1.537,1.537,0,0,0,1.538-1.538v-1.21a1.538,1.538,0,0,0-3.076,0v1.21A1.538,1.538,0,0,0,18.314,73.769Zm0,0"/>
      <path id="Trazado_124213" data-name="Trazado 124213" d="M28.217,73.769a1.538,1.538,0,0,0,1.538-1.538v-1.21a1.538,1.538,0,0,0-3.076,0v1.21A1.538,1.538,0,0,0,28.217,73.769Zm0,0"/>
      <path id="Trazado_124214" data-name="Trazado 124214" d="M18.024,76.784a5.072,5.072,0,0,0,5.242,4.871,5.072,5.072,0,0,0,5.241-4.871,1.538,1.538,0,0,0-3.076,0,2.008,2.008,0,0,1-2.165,1.8,2.008,2.008,0,0,1-2.165-1.8,1.538,1.538,0,0,0-3.076,0Zm0,0"/>
      <path id="Trazado_124215" data-name="Trazado 124215" d="M81.735,87.264A13.29,13.29,0,1,0,68.567,73.975,13.244,13.244,0,0,0,81.735,87.264Zm0-23.5A10.214,10.214,0,1,1,71.643,73.975,10.166,10.166,0,0,1,81.735,63.761Zm0,0"/>
      <path id="Trazado_124216" data-name="Trazado 124216" d="M76.783,73.769a1.537,1.537,0,0,0,1.538-1.538v-1.21a1.538,1.538,0,0,0-3.076,0v1.21A1.538,1.538,0,0,0,76.783,73.769Zm0,0"/>
      <path id="Trazado_124217" data-name="Trazado 124217" d="M86.687,73.769a1.537,1.537,0,0,0,1.538-1.538v-1.21a1.538,1.538,0,0,0-3.076,0v1.21A1.538,1.538,0,0,0,86.687,73.769Zm0,0"/>
      <path id="Trazado_124218" data-name="Trazado 124218" d="M76.494,79.46a1.538,1.538,0,0,0,3.076,0,2.2,2.2,0,0,1,4.331,0,1.538,1.538,0,0,0,3.076,0,5.256,5.256,0,0,0-10.483,0Zm0,0"/>
      <path id="Trazado_124219" data-name="Trazado 124219" d="M12.249,35.573H22.913a2.155,2.155,0,0,0,2.153-2.153V24.541l.606-.61a1.537,1.537,0,0,0-1.13-2.62,2.146,2.146,0,0,0-1.629-.75H12.249A2.155,2.155,0,0,0,10.1,22.714V33.421a2.155,2.155,0,0,0,2.153,2.153Zm.923-11.937h8.457l-3.772,3.8-1.242-1.252a1.538,1.538,0,1,0-2.184,2.167l1.9,1.915a2.131,2.131,0,0,0,1.525.636h0a2.131,2.131,0,0,0,1.524-.634L21.99,27.64V32.5H13.172Zm0,0"/>
      <path id="Trazado_124220" data-name="Trazado 124220" d="M29.9,27.086H48.225a1.538,1.538,0,0,0,0-3.076H29.9a1.538,1.538,0,0,0,0,3.076Zm0,0"/>
      <path id="Trazado_124221" data-name="Trazado 124221" d="M29.9,32.124H40.336a1.538,1.538,0,0,0,0-3.076H29.9a1.538,1.538,0,1,0,0,3.076Zm0,0"/>
      <path id="Trazado_124222" data-name="Trazado 124222" d="M10.1,52.955a2.155,2.155,0,0,0,2.153,2.153H22.913a2.156,2.156,0,0,0,2.153-2.153V42.249A2.156,2.156,0,0,0,22.913,40.1H12.249A2.155,2.155,0,0,0,10.1,42.249Zm3.076-9.784H21.99v8.86H13.172Zm0,0"/>
      <path id="Trazado_124223" data-name="Trazado 124223" d="M29.9,46.622H48.225a1.538,1.538,0,0,0,0-3.076H29.9a1.538,1.538,0,0,0,0,3.076Zm0,0"/>
      <path id="Trazado_124224" data-name="Trazado 124224" d="M41.874,50.12a1.537,1.537,0,0,0-1.538-1.538H29.9a1.538,1.538,0,1,0,0,3.076H40.336A1.538,1.538,0,0,0,41.874,50.12Zm0,0"/>
      <path id="Trazado_124225" data-name="Trazado 124225" d="M57.39,35.573H68.053a2.155,2.155,0,0,0,2.153-2.153V22.713a2.156,2.156,0,0,0-2.153-2.153H57.39a2.155,2.155,0,0,0-2.153,2.153V33.42A2.155,2.155,0,0,0,57.39,35.573Zm.923-11.937H67.13V32.5H58.313Zm0,0"/>
      <path id="Trazado_124226" data-name="Trazado 124226" d="M73.5,25.548a1.538,1.538,0,0,0,1.538,1.538H93.366a1.538,1.538,0,0,0,0-3.076H75.039A1.538,1.538,0,0,0,73.5,25.548Zm0,0"/>
      <path id="Trazado_124227" data-name="Trazado 124227" d="M75.039,32.124H85.476a1.538,1.538,0,0,0,0-3.076H75.039a1.538,1.538,0,1,0,0,3.076Zm0,0"/>
      <path id="Trazado_124228" data-name="Trazado 124228" d="M70.206,52.955V42.249A2.156,2.156,0,0,0,68.053,40.1H57.39a2.155,2.155,0,0,0-2.153,2.153V52.955a2.155,2.155,0,0,0,2.153,2.153H68.053A2.156,2.156,0,0,0,70.206,52.955Zm-3.076-.923H58.313V43.171H67.13Zm0,0"/>
      <path id="Trazado_124229" data-name="Trazado 124229" d="M93.366,43.545H75.04a1.538,1.538,0,0,0,0,3.076H93.366a1.538,1.538,0,0,0,0-3.076Zm0,0"/>
      <path id="Trazado_124230" data-name="Trazado 124230" d="M85.476,51.658a1.538,1.538,0,0,0,0-3.076H75.039a1.538,1.538,0,0,0,0,3.076Zm0,0"/>
    </g>
  </g>
</svg>
