<svg xmlns="http://www.w3.org/2000/svg" xmlns:xlink="http://www.w3.org/1999/xlink" width="96" height="96" viewBox="0 0 96 96">
  <defs>
    <clipPath id="clip-path">
      <rect id="Rectángulo_35493" data-name="Rectángulo 35493" width="96" height="96" transform="translate(3372 -9474)" fill="#fff" stroke="#707070" stroke-width="1"/>
    </clipPath>
  </defs>
  <g id="Enmascarar_grupo_217" data-name="Enmascarar grupo 217" transform="translate(-3372 9474)" clip-path="url(#clip-path)">
    <g id="vegetariano" transform="translate(3371.37 -9475.082)">
      <g id="Grupo_176150" data-name="Grupo 176150">
        <g id="Grupo_176136" data-name="Grupo 176136">
          <path id="Trazado_124112" data-name="Trazado 124112" d="M49.389,16.289a10.272,10.272,0,0,0-3.267,6.3h-.015l-2.5-.706a9.382,9.382,0,0,1-6.795-9.019,9.793,9.793,0,0,1,9.8-9.8h12.7A20.455,20.455,0,0,1,71.583,39.879l-4.1,3.068v-9.2h1.534a4.6,4.6,0,1,0,0-9.2H67.488v-3.7a5.5,5.5,0,0,0-5.506-5.506,5.238,5.238,0,0,0-3.7,1.534,5.238,5.238,0,0,1-3.7,1.534H52.641a3.547,3.547,0,0,1-2.515-1.043A3.715,3.715,0,0,1,49.389,16.289Z" fill="#656d78"/>
        </g>
        <g id="Grupo_176137" data-name="Grupo 176137">
          <path id="Trazado_124113" data-name="Trazado 124113" d="M78.516,82.274a6.185,6.185,0,0,0-1.1-1.089c.813.169,1.611.337,2.347.521,4.341,1.089,7.454,2.531,8.651,4.187a2.545,2.545,0,0,1,.552,1.534c0,4.233-12.363,7.669-27.609,7.669s-27.609-3.436-27.609-7.669c0-2.469,4.218-4.678,10.752-6.074a7.419,7.419,0,0,0-1.549,4.54,3.09,3.09,0,0,0,3.068,3.068H76.691a3.077,3.077,0,0,0,3.068-3.068,5.906,5.906,0,0,0-1.242-3.62Z" fill="#ccd1d9"/>
        </g>
        <g id="Grupo_176138" data-name="Grupo 176138">
          <path id="Trazado_124114" data-name="Trazado 124114" d="M49.082,73.623a3.077,3.077,0,0,0-3.068,3.068V69.022l-6.365,4.54a5.411,5.411,0,0,1-.491.322L33.038,62.84l-.015-.015a6.487,6.487,0,0,0,1.2-1.227l.506-.675A25.557,25.557,0,0,1,52.38,50.708l1.3,9.111,7.669-4.6,7.669,4.6,2.761-11.013a34.257,34.257,0,0,1,21.581,21.75h-13.6V81.706c-.736-.184-1.534-.353-2.347-.521A6.014,6.014,0,0,0,75.3,80.173l-1.672-.414A6.206,6.206,0,0,0,72.4,76.077a6.087,6.087,0,0,0-3.19-2.178l-.245-.077c-.614-.169-1.212-.322-1.825-.429a4.6,4.6,0,0,0-8.574.215h-.015c-.552.138-1.1.291-1.641.475l-4.924,1.641a3.064,3.064,0,0,0-2.9-2.1Z" fill="#b4dd7f"/>
        </g>
        <g id="Grupo_176139" data-name="Grupo 176139">
          <path id="Trazado_124115" data-name="Trazado 124115" d="M61.353,53.684l7.439-5.951a2.924,2.924,0,0,0,.936.445l.245.061c.614.169,1.212.353,1.81.568L69.022,59.819l-7.669-4.6-7.669,4.6-1.3-9.111c.031,0,.077-.015.107-.015a2.962,2.962,0,0,0,2.025-1.12l.015.015Z" fill="#a0d468"/>
        </g>
        <g id="Grupo_176140" data-name="Grupo 176140">
          <circle id="Elipse_4001" data-name="Elipse 4001" cx="3.068" cy="3.068" r="3.068" transform="translate(15.338 39.879)" fill="#fcd770"/>
        </g>
        <g id="Grupo_176141" data-name="Grupo 176141">
          <path id="Trazado_124116" data-name="Trazado 124116" d="M23.728,28.253,35.953,39.112a2.545,2.545,0,0,1-1,4.356l-2.776.8A10.785,10.785,0,0,1,18.973,30.492l.383-1.135a2.557,2.557,0,0,1,2.423-1.749h.261a2.516,2.516,0,0,1,1.687.644Z" fill="#ffeaa7"/>
        </g>
        <g id="Grupo_176142" data-name="Grupo 176142">
          <path id="Trazado_124117" data-name="Trazado 124117" d="M58.285,85.894a3.068,3.068,0,1,0-3.068,3.068h-9.2a3.09,3.09,0,0,1-3.068-3.068,7.419,7.419,0,0,1,1.549-4.54,8.932,8.932,0,0,1,.614-.69l1.81-1.81a3,3,0,0,0,2.163.9,3.077,3.077,0,0,0,3.068-3.068,2.909,2.909,0,0,0-.169-.966L56.9,74.083c.537-.184,1.089-.337,1.641-.475h.015a4.275,4.275,0,0,0-.276,1.549,4.6,4.6,0,0,0,9.2,0,4.471,4.471,0,0,0-.353-1.764c.614.107,1.212.261,1.825.429l.245.077a6.087,6.087,0,0,1,3.19,2.178,6.206,6.206,0,0,1,1.227,3.681l1.672.414a6.014,6.014,0,0,1,2.117,1.012,6.185,6.185,0,0,1,1.1,1.089,5.906,5.906,0,0,1,1.242,3.62,3.077,3.077,0,0,1-3.068,3.068H55.217a3.077,3.077,0,0,0,3.068-3.068Z" fill="#ffeaa7"/>
        </g>
        <g id="Grupo_176143" data-name="Grupo 176143">
          <path id="Trazado_124118" data-name="Trazado 124118" d="M67.135,73.393a4.471,4.471,0,0,1,.353,1.764,4.6,4.6,0,1,1-9.2,0,4.275,4.275,0,0,1,.276-1.549,4.6,4.6,0,0,1,8.574-.215Z" fill="#fcd770"/>
        </g>
        <g id="Grupo_176144" data-name="Grupo 176144">
          <circle id="Elipse_4002" data-name="Elipse 4002" cx="3.068" cy="3.068" r="3.068" transform="translate(52.15 82.826)" fill="#fcd770"/>
        </g>
        <g id="Grupo_176145" data-name="Grupo 176145">
          <path id="Trazado_124119" data-name="Trazado 124119" d="M51.981,75.724a2.909,2.909,0,0,1,.169.966,3.077,3.077,0,0,1-3.068,3.068,3.09,3.09,0,0,1-3.068-3.068,3.06,3.06,0,0,1,5.967-.966Z" fill="#fcd770"/>
        </g>
        <g id="Grupo_176146" data-name="Grupo 176146">
          <path id="Trazado_124120" data-name="Trazado 124120" d="M79.758,76.691V70.556h13.62A34.29,34.29,0,0,1,95.1,81.292a4.608,4.608,0,0,1-4.6,4.6H88.409c-1.2-1.657-4.31-3.1-8.651-4.187Z" fill="#f0d0b4"/>
        </g>
        <g id="Grupo_176147" data-name="Grupo 176147">
          <path id="Trazado_124121" data-name="Trazado 124121" d="M33.038,62.84l6.12,11.043a16.578,16.578,0,0,1-9.264,2.807A17.757,17.757,0,0,1,13.7,66.123L6.641,50.309A5.228,5.228,0,0,1,9.05,43.5a5.158,5.158,0,0,1,7.01,2.469l6.672,14.418a6.856,6.856,0,0,0,2.485,2.868,6.674,6.674,0,0,0,7.807-.429Z" fill="#f0d0b4"/>
        </g>
        <g id="Grupo_176148" data-name="Grupo 176148">
          <path id="Trazado_124122" data-name="Trazado 124122" d="M54.527,49.588l-.015-.015a2.962,2.962,0,0,0,.706-1.933V45.984a3.334,3.334,0,0,1-.552.031h-.138a8.51,8.51,0,0,1-6.549-3.068h1.1a6.127,6.127,0,0,0,6.135-6.135h-9.2V33.744h-.9a2.169,2.169,0,0,1-1.534-3.7l.644-.644a6.141,6.141,0,0,0,1.795-4.341v-1.12a7.883,7.883,0,0,1,.107-1.35,10.272,10.272,0,0,1,3.267-6.3,3.715,3.715,0,0,0,.736,1.074,3.547,3.547,0,0,0,2.515,1.043h1.948a5.238,5.238,0,0,0,3.7-1.534,5.238,5.238,0,0,1,3.7-1.534,5.5,5.5,0,0,1,5.506,5.506v3.7h1.534a4.6,4.6,0,0,1,0,9.2H67.488V45.217a3.081,3.081,0,0,0,1.3,2.515l-7.439,5.951Z" fill="#f0d0b4"/>
        </g>
        <g id="Grupo_176149" data-name="Grupo 176149">
          <path id="Trazado_124123" data-name="Trazado 124123" d="M46.014,36.812h9.2a6.127,6.127,0,0,1-6.135,6.135h-1.1A8.48,8.48,0,0,1,46.014,37.5Z" fill="#ff826e"/>
        </g>
      </g>
      <g id="Grupo_176151" data-name="Grupo 176151">
        <path id="Trazado_124124" data-name="Trazado 124124" d="M70.387,46.761l-.241-.067a1.535,1.535,0,0,1-1.124-1.477v-1.5L72.5,41.106A21.985,21.985,0,0,0,59.308,1.534H46.617a11.351,11.351,0,0,0-11.34,11.34,10.946,10.946,0,0,0,7.908,10.482l1.305.373c0,.069-.011.138-.011.207v1.132a4.628,4.628,0,0,1-1.35,3.255l-.635.637a3.7,3.7,0,0,0,1.985,6.264l0,2.279a10.026,10.026,0,0,0,9.2,10v.135a1.536,1.536,0,0,1-1.367,1.528A27.343,27.343,0,0,0,33.5,60.009l-.5.678a5.183,5.183,0,0,1-8.875-.949l-5.641-12.2a4.589,4.589,0,0,0,4.284-3.166,12.262,12.262,0,0,0,9.842,1.37l2.784-.8a4.08,4.08,0,0,0,1.589-6.974L24.75,27.107a4.074,4.074,0,0,0-2.712-1.032h-.261A4.08,4.08,0,0,0,17.9,28.868L17.527,30a12.266,12.266,0,0,0,.216,8.411,4.6,4.6,0,0,0-3.825,3.542c-.124-.052-.235-.124-.364-.169a6.6,6.6,0,0,0-5.2.345,6.745,6.745,0,0,0-3.2,8.556L.63,53.977l1.8,2.48,3.977-2.893,5.878,13.179A19.33,19.33,0,0,0,29.9,78.225a18.224,18.224,0,0,0,10.649-3.413L44.481,72v4.689a4.526,4.526,0,0,0,.462,1.971l-.911.911c-.126.126-.239.261-.356.393-5.35,1.2-11.465,3.448-11.465,7.462,0,6.042,14.662,9.2,29.143,9.2S90.5,93.469,90.5,87.428a6.141,6.141,0,0,0,6.135-6.135A35.946,35.946,0,0,0,70.387,46.761Zm-15.711,4.7L59.65,54.45l-4.775,2.865L54.088,51.8A4.716,4.716,0,0,0,54.676,51.466ZM69,49.53c.107.038.21.087.321.118l.241.067c.127.035.247.084.374.121l-1.9,7.6-5.1-3.058ZM44.028,20.406a7.865,7.865,0,0,1-5.683-7.533A8.281,8.281,0,0,1,46.617,4.6H59.308a18.917,18.917,0,0,1,11.35,34.051l-1.637,1.229v-4.6a6.135,6.135,0,0,0,0-12.271V20.838A7.042,7.042,0,0,0,61.988,13.8,6.729,6.729,0,0,0,57.2,15.786a3.676,3.676,0,0,1-2.618,1.086H52.647a2.031,2.031,0,0,1-.641-3.959l2.163-.721L53.2,9.283,51.035,10a5.1,5.1,0,0,0-3.381,5.87,11.874,11.874,0,0,0-2.7,4.8Zm.452,11.169a.635.635,0,0,1,.187-.449l.633-.635a7.621,7.621,0,0,0,2.247-5.422V23.937a8.813,8.813,0,0,1,1.762-5.27,5.06,5.06,0,0,0,3.336,1.273h1.936a6.729,6.729,0,0,0,4.787-1.982,3.676,3.676,0,0,1,2.618-1.086,3.971,3.971,0,0,1,3.966,3.966v5.236h3.068a3.068,3.068,0,1,1,0,6.135H65.954V45.217a4.577,4.577,0,0,0,.638,2.311L61.227,51.82,56.527,49a4.547,4.547,0,0,0,.224-1.36v-.3a10.16,10.16,0,0,0,5.164-2.781l.521-.521-2.169-2.169-.523.523a7.229,7.229,0,0,1-5.221,2.094,6.973,6.973,0,0,1-2.684-.534,7.665,7.665,0,0,0,4.911-7.135V35.278h-9.2l0-3.068H45.116a.636.636,0,0,1-.635-.635Zm3.147,6.77h5.793a4.61,4.61,0,0,1-4.339,3.068h-.334a6.89,6.89,0,0,1-1.12-3.068ZM28.619,34.65l-3.272,7.635A9.05,9.05,0,0,1,20.7,37.5L28.2,34.281Zm6.658,6.375a1.017,1.017,0,0,1-.735.976l-2.784.8a9.229,9.229,0,0,1-3.42.3l2.7-6.3,3.9,3.468A1.024,1.024,0,0,1,35.278,41.025ZM20.437,30.971l.376-1.133a1.018,1.018,0,0,1,.965-.695h.261a1.018,1.018,0,0,1,.675.258l2.957,2.629-5.684,2.436a9.313,9.313,0,0,1,.451-3.494ZM18.406,41.413a1.534,1.534,0,1,1-1.534,1.534A1.535,1.535,0,0,1,18.406,41.413ZM9.738,44.869a3.476,3.476,0,0,1,3.338.058l-5.293,3.85a3.679,3.679,0,0,1,1.956-3.908Zm5.353,20.625L8.948,51.72l6.046-4.4,6.338,13.7a8.235,8.235,0,0,0,11.145,3.963l4.635,8.344A15.151,15.151,0,0,1,29.9,75.157a16.257,16.257,0,0,1-14.806-9.663Zm24.6,6.161-4.741-8.534c.175-.193.348-.391.506-.6l.5-.678a24.268,24.268,0,0,1,15.126-9.365l1.408,9.847,7.326-4.4v1.893h3.068V57.926L70.008,62.2l2.839-11.355A32.881,32.881,0,0,1,91.138,69.022H81.292V66.589a3.678,3.678,0,0,1,1.084-2.618L80.208,61.8a6.725,6.725,0,0,0-1.983,4.789v13.2l-.2-.041a7.428,7.428,0,0,0-2.362-1.061l-.607-.152a7.677,7.677,0,0,0-5.437-6.118l-.247-.071c-.4-.115-.813-.2-1.222-.288a6.082,6.082,0,0,0-10.675.267c-.354.1-.71.187-1.061.3L52.691,73.87a4.483,4.483,0,0,0-5.143-1.5V66.589A6.725,6.725,0,0,0,45.565,61.8L43.4,63.971a3.678,3.678,0,0,1,1.084,2.618v1.643ZM53.684,85.894a1.534,1.534,0,1,1,1.534,1.534A1.535,1.535,0,0,1,53.684,85.894Zm1.534-4.6a4.607,4.607,0,0,0-4.6,4.6,4.55,4.55,0,0,0,.282,1.534H46.014a1.535,1.535,0,0,1-1.534-1.534A5.835,5.835,0,0,1,46.2,81.742l.911-.911a4.526,4.526,0,0,0,1.971.462,4.6,4.6,0,0,0,4.592-4.516l3.135-1.045a6.107,6.107,0,0,0,12.183-.284,4.577,4.577,0,0,1,3.1,4.31v1.2l2.834.709a4.354,4.354,0,0,1,3.3,4.229,1.535,1.535,0,0,1-1.534,1.534H59.537a4.55,4.55,0,0,0,.282-1.534,4.607,4.607,0,0,0-4.6-4.6Zm4.6-6.135a3.068,3.068,0,1,1,3.068,3.068A3.071,3.071,0,0,1,59.819,75.157Zm-10.737,0a1.534,1.534,0,1,1-1.534,1.534A1.535,1.535,0,0,1,49.082,75.157ZM61.353,93.563c-16.872,0-26.075-4.054-26.075-6.135,0-.848,1.779-2.42,6.431-3.79a8.987,8.987,0,0,0-.3,2.256,4.607,4.607,0,0,0,4.6,4.6H76.691a4.607,4.607,0,0,0,4.6-4.6,7.425,7.425,0,0,0-.37-2.282c4.7,1.367,6.5,2.943,6.5,3.816C87.428,89.509,78.225,93.563,61.353,93.563ZM90.5,84.36H89.109c-1.678-1.727-4.672-2.962-7.816-3.831v-2.3h2.433a3.673,3.673,0,0,1,2.618,1.086l2.169-2.17a6.725,6.725,0,0,0-4.787-1.983H81.292V72.089H92.207a32.47,32.47,0,0,1,1.356,9.2A3.071,3.071,0,0,1,90.5,84.36Z"/>
        <path id="Trazado_124125" data-name="Trazado 124125" d="M55.217,29.143a4.607,4.607,0,0,0,4.6-4.6V23.007H56.751v1.534a1.534,1.534,0,1,1-3.068,0V23.007H50.616v1.534A4.607,4.607,0,0,0,55.217,29.143Z"/>
        <path id="Trazado_124126" data-name="Trazado 124126" d="M59.819,62.886h3.068v3.068H59.819Z"/>
      </g>
    </g>
  </g>
</svg>
