<svg xmlns="http://www.w3.org/2000/svg" xmlns:xlink="http://www.w3.org/1999/xlink" width="96" height="96" viewBox="0 0 96 96">
  <defs>
    <clipPath id="clip-path">
      <rect id="Rectángulo_35495" data-name="Rectángulo 35495" width="96" height="96" transform="translate(3372 -9148)" fill="#fff" stroke="#707070" stroke-width="1"/>
    </clipPath>
  </defs>
  <g id="Enmascarar_grupo_219" data-name="Enmascarar grupo 219" transform="translate(-3372 9148)" clip-path="url(#clip-path)">
    <g id="tiempo-de-trabajo" transform="translate(3372 -9148)">
      <g id="Grupo_176162" data-name="Grupo 176162">
        <ellipse id="Elipse_4003" data-name="Elipse 4003" cx="31.685" cy="31.727" rx="31.685" ry="31.727" transform="translate(28.85 1.5)" fill="#ffe27a"/>
        <path id="Trazado_124136" data-name="Trazado 124136" d="M60.535,61.579a31.7,31.7,0,0,1-31.64-30.039q-.044.838-.045,1.688a31.685,31.685,0,1,0,63.37,0q0-.849-.045-1.688A31.7,31.7,0,0,1,60.535,61.579Z" fill="#f9cf58"/>
        <ellipse id="Elipse_4004" data-name="Elipse 4004" cx="25.183" cy="25.216" rx="25.183" ry="25.216" transform="translate(35.353 8.011)" fill="#f9f6f6"/>
        <path id="Trazado_124137" data-name="Trazado 124137" d="M60.535,55.068A25.2,25.2,0,0,1,35.41,31.539c-.037.558-.057,1.12-.057,1.688a25.183,25.183,0,1,0,50.365,0c0-.567-.021-1.13-.057-1.688A25.2,25.2,0,0,1,60.535,55.068Z" fill="#ecdaec"/>
        <path id="Trazado_124138" data-name="Trazado 124138" d="M52.177,94.5H6.979V82.465A17.428,17.428,0,0,1,24.407,65.037H34.749A17.428,17.428,0,0,1,52.177,82.465V94.5Z" fill="#8bcaff"/>
        <path id="Trazado_124139" data-name="Trazado 124139" d="M6.979,91.125h45.2V94.5H6.979Z" fill="#6cc4ff"/>
        <path id="Trazado_124140" data-name="Trazado 124140" d="M32.2,71.45H26.956l-2.491-6.413H34.69Z" fill="#ea2f4a"/>
        <g id="Grupo_176160" data-name="Grupo 176160">
          <path id="Trazado_124141" data-name="Trazado 124141" d="M26.956,71.45H32.2l2.416,13.242-5.037,5.089L24.54,84.692Z" fill="#ff4755"/>
          <path id="Trazado_124142" data-name="Trazado 124142" d="M26.956,71.45H32.2l2.416,13.242-5.037,5.089L24.54,84.692Z" fill="#ff4755"/>
          <path id="Trazado_124143" data-name="Trazado 124143" d="M26.956,71.45H32.2l2.416,13.242-5.037,5.089L24.54,84.692Z" fill="#ff4755"/>
        </g>
        <path id="Trazado_124144" data-name="Trazado 124144" d="M28.912,85.733,25.06,81.842l-.52,2.85,5.038,5.089,5.037-5.089-.52-2.85-3.851,3.891A.937.937,0,0,1,28.912,85.733Z" fill="#fc2b3a"/>
        <path id="Trazado_124145" data-name="Trazado 124145" d="M48.462,47.868c7.113-27.686-10.994-24.774-10.994-24.774s-6.35-7.02-16.7-3.025C10.779,23.925,10.229,31.514,3.779,34.689A7.121,7.121,0,0,0,9.471,37.1a35.851,35.851,0,0,0,1.223,10.766H48.462Z" fill="#e8834d"/>
        <path id="Trazado_124146" data-name="Trazado 124146" d="M35.5,30.454c-5.818,7.723-20.07,9.449-20.07,9.449V50.892a14.145,14.145,0,0,0,28.29,0V40.149S38.35,37.976,35.5,30.454Z" fill="#ffc89f"/>
        <path id="Trazado_124147" data-name="Trazado 124147" d="M29.578,61.662A14.145,14.145,0,0,1,15.433,47.517v3.375a14.145,14.145,0,0,0,28.29,0V47.517A14.145,14.145,0,0,1,29.578,61.662Z" fill="#f7bc94"/>
        <path id="Trazado_124148" data-name="Trazado 124148" d="M15.433,50.892V45.223a4.717,4.717,0,1,0,.474,9.31,14.169,14.169,0,0,1-.474-3.641Z" fill="#f4b184"/>
        <path id="Trazado_124149" data-name="Trazado 124149" d="M44.211,45.2a4.817,4.817,0,0,0-.488.025v5.669a14.167,14.167,0,0,1-.474,3.64,4.717,4.717,0,1,0,.962-9.334Z" fill="#f4b184"/>
        <g id="Grupo_176161" data-name="Grupo 176161">
          <path id="Trazado_124150" data-name="Trazado 124150" d="M14.945,51.256a4.717,4.717,0,0,1-4.4-3.029,4.718,4.718,0,0,0,5.366,6.306,14.156,14.156,0,0,1-.468-3.3A4.708,4.708,0,0,1,14.945,51.256Z" fill="#eaa678"/>
          <path id="Trazado_124151" data-name="Trazado 124151" d="M44.211,51.256a4.764,4.764,0,0,1-.493-.026,14.147,14.147,0,0,1-.468,3.3,4.717,4.717,0,0,0,5.366-6.306A4.717,4.717,0,0,1,44.211,51.256Z" fill="#eaa678"/>
        </g>
      </g>
      <g id="Grupo_176163" data-name="Grupo 176163">
        <path id="Trazado_124152" data-name="Trazado 124152" d="M32.668,53.88a1.41,1.41,0,0,0-1.312.892c-.041.083-.446.816-1.816.816s-1.775-.732-1.816-.816a1.409,1.409,0,1,0-2.588,1.114,4.6,4.6,0,0,0,4.4,2.52,4.6,4.6,0,0,0,4.4-2.52,1.409,1.409,0,0,0-1.276-2.006Z"/>
        <path id="Trazado_124153" data-name="Trazado 124153" d="M22.673,45.133a1.409,1.409,0,0,0-1.409,1.409v3.177a1.409,1.409,0,1,0,2.818,0V46.542a1.409,1.409,0,0,0-1.409-1.409Z"/>
        <path id="Trazado_124154" data-name="Trazado 124154" d="M36.408,45.133A1.409,1.409,0,0,0,35,46.542v3.177a1.409,1.409,0,1,0,2.818,0V46.542A1.409,1.409,0,0,0,36.408,45.133Z"/>
        <path id="Trazado_124155" data-name="Trazado 124155" d="M60.559,14.373a1.409,1.409,0,0,0-1.409,1.409V33.2a1.422,1.422,0,0,0,.413,1L67.7,42.332a1.409,1.409,0,1,0,1.993-1.993l-7.725-7.725V15.782a1.409,1.409,0,0,0-1.409-1.409Z"/>
        <path id="Trazado_124156" data-name="Trazado 124156" d="M82.174,8.023a1.409,1.409,0,1,0-1.839,2.135A30.389,30.389,0,0,1,60.559,63.578,30.027,30.027,0,0,1,43.3,58.187a15.476,15.476,0,0,0,.94-2.135,6.11,6.11,0,0,0,2.009-.353,26.633,26.633,0,0,0,26.241,1.354,1.409,1.409,0,0,0-1.265-2.518,23.825,23.825,0,0,1-22.413-.578,6.117,6.117,0,0,0,1.128-6.2c2.642-10.572,1.982-18.13-1.97-22.463a11.934,11.934,0,0,0-8.218-3.717,23.833,23.833,0,1,1,35.936,30.05A1.409,1.409,0,1,0,77.483,53.8a26.661,26.661,0,1,0-40.5-33.032,16.723,16.723,0,0,0-3.175-1.9A30.325,30.325,0,0,1,75.955,7.015a1.409,1.409,0,1,0,1.434-2.426A33.149,33.149,0,0,0,31.124,17.908a17.557,17.557,0,0,0-10.919.793,24.045,24.045,0,0,0-3.14,1.473,1.409,1.409,0,0,0,1.384,2.455,21.213,21.213,0,0,1,2.771-1.3,14.58,14.58,0,0,1,10.011-.472l.024.013a1.405,1.405,0,0,0,.324.107A12.8,12.8,0,0,1,36.4,23.991a1.419,1.419,0,0,0,1.264.447c.05-.008,5.067-.733,8.244,2.774,2.961,3.27,3.574,9.352,1.805,17.681a6.1,6.1,0,0,0-2.592-1.04V40.134a1.42,1.42,0,0,0-.874-1.3c-.2-.083-4.877-2.1-7.454-8.91a1.419,1.419,0,0,0-2.443-.349c-5.395,7.161-19.017,8.9-19.153,8.917a1.409,1.409,0,0,0-1.24,1.4v3.966A6.1,6.1,0,0,0,11.4,44.87a31.772,31.772,0,0,1-.6-7.708,1.417,1.417,0,0,0-1.4-1.49,6.656,6.656,0,0,1-3.29-.811,23.65,23.65,0,0,0,4.981-5.25,38.856,38.856,0,0,1,3.222-3.82,1.409,1.409,0,1,0-2-1.988A41.062,41.062,0,0,0,8.859,27.89c-1.772,2.3-3.3,4.284-5.789,5.509a1.418,1.418,0,0,0-.518,2.092,8.25,8.25,0,0,0,5.392,2.9,38.823,38.823,0,0,0,1.2,9.364,6.132,6.132,0,0,0,5.7,8.3,15.656,15.656,0,0,0,6.211,7.9A18.9,18.9,0,0,0,5.489,82.532V94.591A1.409,1.409,0,0,0,6.9,96H52.184a1.409,1.409,0,0,0,1.409-1.409V82.532a18.9,18.9,0,0,0-15.561-18.58,15.714,15.714,0,0,0,3.729-3.4,32.819,32.819,0,0,0,18.8,5.849A33.207,33.207,0,0,0,82.174,8.024ZM45.123,50.9V46.734a3.313,3.313,0,0,1-.164,6.411,15.64,15.64,0,0,0,.164-2.247Zm-33.56-.98a3.32,3.32,0,0,1,2.4-3.184V50.9a15.638,15.638,0,0,0,.164,2.247,3.32,3.32,0,0,1-2.561-3.227ZM50.775,82.532v10.65H44.648V84.691a1.409,1.409,0,1,0-2.818,0v8.491H17.252V84.691a1.409,1.409,0,1,0-2.818,0v8.491H8.307V82.532A16.073,16.073,0,0,1,23.464,66.506l1.992,5.129L23.107,84.511a1.409,1.409,0,0,0,.385,1.244l5.048,5.1a1.417,1.417,0,0,0,2,0l5.047-5.1a1.409,1.409,0,0,0,.385-1.244L33.625,71.635l1.992-5.129A16.072,16.072,0,0,1,50.775,82.532ZM28.089,72.9h2.9L33.07,84.294,29.541,87.86l-3.53-3.566Zm-1.612-6.426H32.6l-1.4,3.608H27.878Zm3.064-2.818A12.778,12.778,0,0,1,16.777,50.9V41.1a49.882,49.882,0,0,0,6.9-1.7c4.933-1.606,8.755-3.746,11.4-6.377A18.4,18.4,0,0,0,42.3,41v9.9A12.778,12.778,0,0,1,29.541,63.661Z"/>
      </g>
    </g>
  </g>
</svg>
