<svg xmlns="http://www.w3.org/2000/svg" xmlns:xlink="http://www.w3.org/1999/xlink" width="48" height="48" viewBox="0 0 48 48">
  <defs>
    <clipPath id="clip-path">
      <rect id="Rectángulo_35475" data-name="Rectángulo 35475" width="48" height="48" transform="translate(285 2701)" fill="#fff" stroke="#707070" stroke-width="1"/>
    </clipPath>
  </defs>
  <g id="Enmascarar_grupo_213" data-name="Enmascarar grupo 213" transform="translate(-285 -2701)" clip-path="url(#clip-path)">
    <g id="las-personas-de-edad" transform="translate(285 2701)">
      <g id="Grupo_176086" data-name="Grupo 176086">
        <path id="Trazado_124030" data-name="Trazado 124030" d="M23.351,26.786H18.8v16.76l7.811,3.75,8.965-16.013Z" fill="#acd980"/>
        <path id="Trazado_124031" data-name="Trazado 124031" d="M38.1,26.786H23.351c.737,2.6,2.464,4.084,6.432,4.168a6.357,6.357,0,0,0,4.887.645,6.5,6.5,0,0,0,.907-.317Z" fill="#8cc951"/>
        <path id="Trazado_124032" data-name="Trazado 124032" d="M36.7,30.261,32.25,31.777a27.98,27.98,0,0,0-5.434,13.644l5.692.469Z" fill="#9d6c6c"/>
        <path id="Trazado_124033" data-name="Trazado 124033" d="M40.108,25.275H34.186v4.514a14.815,14.815,0,0,0-1.936,1.989,6.413,6.413,0,0,0,2.421-.178,6.5,6.5,0,0,0,1.1-.4,9.3,9.3,0,0,0-1.045,2.462L31.57,45.421H26.816c-.084.618-.153,1.243-.2,1.875h2.839l3.75-.937L45.42,30.325a19.153,19.153,0,0,0-5.311-5.05Z" fill="#785252"/>
        <path id="Trazado_124034" data-name="Trazado 124034" d="M41.254,18.731c1.855-.675,2.283-3.091,1.627-5.541-.683-2.55-1.455-3.358-2.306-3.537A1.166,1.166,0,0,0,39.208,11.1L20.489,16.112c-.225-.84-1.257-.209-1.9.371s-.912.728-.229,3.279c.656,2.45,2.235,4.328,4.179,3.985Z" fill="#ebae9d"/>
        <path id="Trazado_124035" data-name="Trazado 124035" d="M40.527,18.417,35.647,3.241H22.522A14.9,14.9,0,0,0,20.5,5.35l-.588,8.612,1.14,4.253,8.932,10.473a6.45,6.45,0,0,0,3.958.2,6.357,6.357,0,0,0,3.91-3c3.449-2.09,3.391-4.79,2.675-7.463Z" fill="#ffcdbe"/>
        <path id="Trazado_124036" data-name="Trazado 124036" d="M21.755,9.976C21.336,8.43,20.649,5.9,20.5,5.35c-1.238,1.593-1.995,3.36-1.589,4.874l1,3.737L21.539,11.4a1.781,1.781,0,0,0,.215-1.42Z" fill="#f7f9fa"/>
        <path id="Trazado_124037" data-name="Trazado 124037" d="M36.519,6.958l3.07,11.459c.716,2.674,1.469,4.468-1.98,6.558a6.357,6.357,0,0,1-3.91,3,6.45,6.45,0,0,1-3.958-.2c.221-1.724-.371-4.871-3.651-7.836a9.364,9.364,0,0,0-5.039-1.732l1.778,6.635c.716,2.674,2.436,4.209,6.468,4.294a6.435,6.435,0,0,0,8.8-2.357c3.449-2.09,4.171-4.279,3.454-6.953L38.632,8.946Z" fill="#ebae9d"/>
        <path id="Trazado_124038" data-name="Trazado 124038" d="M29.233,20.588c.314,1.171,2.044,1.148,2.744.96s2.21-1.033,1.9-2.2a10.709,10.709,0,0,0-2.27-3.106,1.138,1.138,0,0,0-1.958.525A10.708,10.708,0,0,0,29.233,20.588Z" fill="#ebae9d"/>
        <path id="Trazado_124039" data-name="Trazado 124039" d="M22.522,3.241c.611.624,1.157,1.139,1.656,1.561a4.87,4.87,0,0,0,3.035.94c1.948,0,7.428-.834,7.428-.834l.4,1.508a1.781,1.781,0,0,0,.9,1.122l1.241.649L35.335,2.538A13.565,13.565,0,0,0,26.449.916,11.093,11.093,0,0,0,22.522,3.241Z" fill="#f7f9fa"/>
        <path id="Trazado_124040" data-name="Trazado 124040" d="M38.632,8.946l-1-3.737a4.771,4.771,0,0,0-2.3-2.67l.182.679L30.165,4.651a10.054,10.054,0,0,1-5.987.151C26.792,7.012,28.1,6.66,30.529,6.009l5.352-1.434.913,3.409Z" fill="#dce6eb"/>
        <path id="Trazado_124041" data-name="Trazado 124041" d="M29.357,15.989c.567,2.117-.631,3.282-3.374,4.017s-4.363.326-4.93-1.791c-.373-1.393.238-2.4,3.568-3.292s4.363-.326,4.736,1.067Z" fill="#f7f9fa"/>
        <path id="Trazado_124042" data-name="Trazado 124042" d="M35.035,12.131c-3.33.892-3.941,1.9-3.568,3.292.567,2.117,2.187,2.526,4.93,1.791a6.988,6.988,0,0,0,2.564-1.144V13.634l-1.17-1.928A9.815,9.815,0,0,0,35.035,12.131Z" fill="#f7f9fa"/>
        <path id="Trazado_124043" data-name="Trazado 124043" d="M39.772,13.2a1.839,1.839,0,0,0-1.98-1.493l1.17,4.366a2.514,2.514,0,0,0,.81-2.873Z" fill="#dce6eb"/>
        <path id="Trazado_124044" data-name="Trazado 124044" d="M12.109,31.841a4.355,4.355,0,0,0-4.239-3.36C5.465,28.481.7,33.243.7,35.648a4.335,4.335,0,0,0,.452,1.932,4.341,4.341,0,0,0,2.777,1.579Z" fill="#909ba6"/>
        <path id="Trazado_124045" data-name="Trazado 124045" d="M3.464,38.221a4.6,4.6,0,0,1-2.309-.641A4.354,4.354,0,0,0,5.058,40c2.4,0,7.167-4.762,7.167-7.167a4.359,4.359,0,0,0-.115-.994A40.128,40.128,0,0,0,3.464,38.221Z" fill="#7e8b96"/>
        <path id="Trazado_124046" data-name="Trazado 124046" d="M20.6,41.653,11.37,38.631l-4.529-1A15.268,15.268,0,0,0,1.2,45.421l23.823.937A10.3,10.3,0,0,0,20.6,41.652Z" fill="#ffe07d"/>
        <path id="Trazado_124047" data-name="Trazado 124047" d="M20.865,40.719,11.37,38.631v3.151a4.886,4.886,0,0,0,2.659,1.836,4.979,4.979,0,0,0,4.03-.707A16.056,16.056,0,0,0,20.6,42.59a10.907,10.907,0,0,1,1.863,1.671.7.7,0,0,1-.535,1.16H1.2A16.787,16.787,0,0,0,.7,47.3h25.91a12.172,12.172,0,0,0-5.748-6.578Z" fill="#ffd064"/>
        <path id="Trazado_124048" data-name="Trazado 124048" d="M23.985,36.989c1.944.343,3.523-1.535,4.179-3.985.683-2.55.418-3.636-.229-4.216a1.166,1.166,0,0,0-1.9.566L7.312,24.338A1.166,1.166,0,0,0,5.946,22.9c-.851.179-1.623.987-2.306,3.537-.656,2.45-.228,4.866,1.627,5.541Z" fill="#c38778"/>
        <path id="Trazado_124049" data-name="Trazado 124049" d="M15.715,40.943c4.1-.22,6.594-1.5,7.374-4.414L25.4,24.364l-5.623-9.013L8.057,21.558,5.214,32.17c-.78,2.91.737,5.268,4.179,7.509a4.294,4.294,0,0,0,.477.791,15.364,15.364,0,0,0,1.815,1.18,4.978,4.978,0,0,0,4.03-.707Z" fill="#d79b8c"/>
        <path id="Trazado_124050" data-name="Trazado 124050" d="M25.4,24.364,22.339,35.779c-.78,2.91-3.273,4.194-7.374,4.414a4.979,4.979,0,0,1-4.03.707,4.717,4.717,0,0,1-1.065-.43,4.886,4.886,0,0,0,2.659,1.836,4.979,4.979,0,0,0,4.03-.707c4.1-.22,6.594-1.5,7.374-4.414l2.844-10.612Z" fill="#c38778"/>
        <path id="Trazado_124051" data-name="Trazado 124051" d="M13,32.279c-.28,1.045,1.068,1.8,1.693,1.967s2.17.188,2.45-.857a6.934,6.934,0,0,0-.106-2.427A1.555,1.555,0,0,0,14.3,30.23,6.932,6.932,0,0,0,13,32.279Z" fill="#c38778"/>
        <path id="Trazado_124052" data-name="Trazado 124052" d="M22.866,16.706a10.916,10.916,0,0,0-3.091-1.355C12.945,13.521,7.917,18.7,7.319,20.934a14.2,14.2,0,0,0-.363,3.2c.71,1.14,2.456.809,3.2.23,1.663-1.288,3.47-4.718,5.318-4.718,1.374,0,1.513.748,1.513.748l2.674.716c3.847,1.031,1.476,6.391,4.257,8.766.01-.015,2.492-2.39,3.005-4.3.448-1.672-1.1-6.507-4.06-8.864Z" fill="#909ba6"/>
        <path id="Trazado_124053" data-name="Trazado 124053" d="M15.3,18.706c-3.778,0-4.488,6.544-8.347,5.429-.016.923.026,1.607.026,1.607,5.419,1.452,5.557-6.541,10.009-5.349A1.653,1.653,0,0,0,15.3,18.706Z" fill="#7e8b96"/>
        <path id="Trazado_124054" data-name="Trazado 124054" d="M22.866,16.706c2.535,2.856,3.571,7.193,3.123,8.864a18.8,18.8,0,0,1-2.068,4.3,4.351,4.351,0,0,0,1.737.871,18.62,18.62,0,0,0,2.112-4.332C28.265,24.568,27.141,19.452,22.866,16.706Z" fill="#7e8b96"/>
        <path id="Trazado_124055" data-name="Trazado 124055" d="M46.359,36.1c0-3-.94-5.778-3.361-6.565-3.018-.428-5.587,1.329-6.466,4.609l-2.352,8.777,1.4,2.5,10.776.937V36.1Z" fill="#cce8b0"/>
        <path id="Trazado_124056" data-name="Trazado 124056" d="M45.419,30.325A7.769,7.769,0,0,0,43,29.537,9.776,9.776,0,0,1,45.422,36.1v7.913a1.406,1.406,0,0,1-1.406,1.406H35.584L36.636,47.3H47.3V37.977A13.269,13.269,0,0,0,45.419,30.325Z" fill="#acd980"/>
        <path id="Trazado_124057" data-name="Trazado 124057" d="M37.191,37.88c-.036,0-.073.009-.11.015a9.135,9.135,0,0,0-7.445,7.526l6.471.937Z" fill="#d79b8c"/>
        <path id="Trazado_124058" data-name="Trazado 124058" d="M37.191,37.88l-1.741,6.5a1.406,1.406,0,0,1-1.358,1.042H29.636a9.907,9.907,0,0,0-.184,1.875h7.184l2.05-7.652a1.406,1.406,0,0,0-1.5-1.764Z" fill="#c38778"/>
      </g>
      <g id="Grupo_176087" data-name="Grupo 176087">
        <path id="Trazado_124059" data-name="Trazado 124059" d="M17.727,30.847a2.258,2.258,0,0,0-3.969-1.063,7.709,7.709,0,0,0-1.407,2.2c-.974,1.543-2.2,2.094-3.733,1.682a.7.7,0,0,0-.364,1.358,5.113,5.113,0,0,0,1.319.181,4.344,4.344,0,0,0,.434-.022,5.841,5.841,0,0,0,3.663,2.859,6.358,6.358,0,0,0,1.693.232,5.557,5.557,0,0,0,2.975-.832,4.944,4.944,0,0,0,1.536.695.7.7,0,1,0,.364-1.358c-1.539-.412-2.32-1.5-2.391-3.328a7.731,7.731,0,0,0-.119-2.605Zm-4.052,1.614a5.805,5.805,0,0,1,1.169-1.785.852.852,0,0,1,1.5.4,5.806,5.806,0,0,1,.12,2.13c-.128.476-1.185.468-1.589.36s-1.324-.63-1.2-1.106Zm.369,4.226a4.5,4.5,0,0,1-2.647-1.9,4.692,4.692,0,0,0,1.331-1,3.46,3.46,0,0,0,2.692,1.25,3.364,3.364,0,0,0,1.2-.209,4.665,4.665,0,0,0,.691,1.585,4.514,4.514,0,0,1-3.262.271Z"/>
        <path id="Trazado_124060" data-name="Trazado 124060" d="M11.141,28.762a1.271,1.271,0,0,1,.868.233.7.7,0,1,0,.926-1.058,2.616,2.616,0,0,0-2.068-.554.7.7,0,1,0,.273,1.379Z"/>
        <path id="Trazado_124061" data-name="Trazado 124061" d="M19.635,31.038a1.272,1.272,0,0,1,.868.233.7.7,0,0,0,.926-1.058,2.615,2.615,0,0,0-2.068-.554.7.7,0,1,0,.273,1.379Z"/>
        <path id="Trazado_124062" data-name="Trazado 124062" d="M41.17,25.17a5.708,5.708,0,0,0,1.058-5.518l-.146-.544c1.621-.992,2.216-3.342,1.477-6.1-.686-2.559-1.535-3.768-2.841-4.043a1.857,1.857,0,0,0-1.3.2L38.31,5.026c-.459-1.712-2.158-3.171-4.786-4.11A14.916,14.916,0,0,0,27.017.087a.7.7,0,1,0,.2,1.392,12.754,12.754,0,0,1,4.9.464l-3.619.97a.7.7,0,1,0,.364,1.358L34.358,2.8a7.191,7.191,0,0,1,1.56,1.038L30.34,5.332a6.353,6.353,0,0,1-3.3.364,8.578,8.578,0,0,1-3.478-2.4c.354-.274.717-.529,1.082-.759a.7.7,0,0,0-.75-1.189c-2.677,1.689-6.582,5.643-5.666,9.064l1.1,4.117A11.4,11.4,0,0,0,11.4,15.7a.7.7,0,0,0,.674,1.234,10.183,10.183,0,0,1,13.864,4.136c.822,1.521,1.5,3.849,1.152,5.166a16.233,16.233,0,0,1-1.737,3.677c-1.933-.751-2.149-2.485-2.4-4.471-.252-2.024-.538-4.318-3.112-5.008a.7.7,0,0,0-.364,1.358c1.579.423,1.819,1.728,2.08,3.823.025.2.05.4.079.611a6.307,6.307,0,0,0-1.852-.816.7.7,0,0,0-.364,1.358A5.6,5.6,0,0,1,22.1,28.336a4.48,4.48,0,0,0,2.7,2.868L23.253,37c-.664,2.479-2.74,3.679-6.732,3.894a.7.7,0,0,0-.386.141,4.148,4.148,0,0,1-6.094-1.633.7.7,0,0,0-.264-.316c-3.35-2.182-4.548-4.26-3.883-6.738l1.552-5.794a5.148,5.148,0,0,0,.8.065A4.518,4.518,0,0,0,11.306,25.4a5.6,5.6,0,0,1,3.022,0,.7.7,0,0,0,.364-1.358,6.318,6.318,0,0,0-1.959-.222c.124-.16.245-.32.363-.476,1.273-1.684,2.134-2.694,3.713-2.271a.7.7,0,1,0,.364-1.358c-2.574-.69-3.968,1.154-5.2,2.781-1.207,1.6-2.261,2.99-4.311,2.674A16.236,16.236,0,0,1,8,21.116,6.5,6.5,0,0,1,9.9,18.49a.7.7,0,0,0-.952-1.035,7.837,7.837,0,0,0-2.305,3.3,10.35,10.35,0,0,0-.262,1.424,1.885,1.885,0,0,0-.576.031C4.5,22.482,3.646,23.691,2.96,26.25A7.048,7.048,0,0,0,3,30.555c-1.458,1.434-3,3.5-3,5.092a5.05,5.05,0,0,0,3.083,4.659c-.085.112-.169.225-.252.339a.7.7,0,1,0,1.141.822,13.956,13.956,0,0,1,2.8-2.911,16.143,16.143,0,0,0,2.069,1.6,5.681,5.681,0,0,0,3.5,2.825,5.426,5.426,0,0,0,1.409.187,5.814,5.814,0,0,0,3.036-.882,13.3,13.3,0,0,0,4.04-.8,11.619,11.619,0,0,1,5.111,6.013.7.7,0,0,0,.67.491.72.72,0,0,0,.08,0,.7.7,0,0,0,.621-.643,32.522,32.522,0,0,1,1.388-7.19.7.7,0,0,0-1.341-.423,33.454,33.454,0,0,0-1.168,5.06,12.661,12.661,0,0,0-3.9-4.074,5.723,5.723,0,0,0,2.212-3c1.9-.042,3.6-1.78,4.341-4.544a8.662,8.662,0,0,0,.389-3.269,7.121,7.121,0,0,0,3,.792,22.777,22.777,0,0,0-3.908,6.39.7.7,0,1,0,1.3.545,19.408,19.408,0,0,1,4.907-7.222,7.115,7.115,0,0,0,4.091-3.133,12.825,12.825,0,0,0,1.542-1.113,23.169,23.169,0,0,1,3.213,2.711,6.437,6.437,0,0,0-3.805.414,6.84,6.84,0,0,0-3.718,4.663l-1.036,3.865A10.2,10.2,0,0,0,28.749,47.3a.7.7,0,0,0,1.406,0A9.518,9.518,0,0,1,31.8,42a8.187,8.187,0,0,1,5.4-3.415.7.7,0,0,1,.8.875l-2.05,7.652a.7.7,0,1,0,1.358.364l2.05-7.652a2.109,2.109,0,0,0-2.41-2.623q-.277.05-.545.113l.8-2.989a5.465,5.465,0,0,1,2.932-3.743,5.662,5.662,0,0,1,4.791.287,12.82,12.82,0,0,1,1.658,7.105v3.9a.7.7,0,0,0,1.406,0v-3.9C48,32.133,46.322,28.925,41.17,25.17ZM4.319,26.614c.755-2.817,1.52-2.978,1.772-3.031a.461.461,0,0,1,.178,0c-.035.844-.016,1.573,0,1.945,0,.008-.005.015-.008.023L4.833,30.873c-.713-.723-1.076-2.163-.514-4.258ZM4.046,39.157a3.644,3.644,0,0,1-2.64-3.509c0-.883.959-2.435,2.348-3.859a3.229,3.229,0,0,0,.693.567,5.747,5.747,0,0,0,.663,4.171,7.649,7.649,0,0,0,.7,1A15.072,15.072,0,0,0,4.046,39.157ZM40,10.476a.456.456,0,0,1,.431-.135c.252.053,1.017.214,1.772,3.031.561,2.1.2,3.535-.515,4.258l-1.8-6.717A.456.456,0,0,1,40,10.476Zm-.915,2.872c.288,1.076.333,2.33-2.868,3.188a5.259,5.259,0,0,1-2.875.186,1.842,1.842,0,0,1-1.194-1.481c-.17-.633-.4-1.5,3.071-2.431a9.8,9.8,0,0,1,2.416-.408c1.167,0,1.335.517,1.45.945Zm-8.75,3.561a.424.424,0,0,1,.313-.328.465.465,0,0,1,.119-.016.414.414,0,0,1,.316.144,11.135,11.135,0,0,1,2.113,2.817c.024.089.1.358-.358.765a2.458,2.458,0,0,1-2.232.6c-.6-.125-.668-.394-.692-.483a11.127,11.127,0,0,1,.421-3.5ZM36.952,5.39l.587,2.189-1.271-.665a1.082,1.082,0,0,1-.543-.681L35.5,5.4l1.33-.356a2.465,2.465,0,0,1,.12.342ZM26.691,7.057a4.66,4.66,0,0,0,1.187.15,11.122,11.122,0,0,0,2.833-.519l3.433-.92.221.826a2.491,2.491,0,0,0,1.25,1.565l2.418,1.265.443,1.652a5.09,5.09,0,0,0-1.523-.04,7.316,7.316,0,0,0-5.4-.758.7.7,0,1,0,.364,1.358,5.1,5.1,0,0,1,2.487-.06c-2.078.6-3.982,1.536-3.7,3.583a1.836,1.836,0,0,0-.806.216,2.332,2.332,0,0,0-1.6-1.455,6.938,6.938,0,0,0-3.4.206,5.1,5.1,0,0,1,2.186-1.193.7.7,0,0,0-.364-1.358,7.084,7.084,0,0,0-4.295,3.353,6.426,6.426,0,0,0-.7.362q-.388-.172-.807-.32l-.239-.893,1.461-2.3a2.491,2.491,0,0,0,.3-1.98l-.575-2.119c-.234-.861-.456-1.68-.587-2.166a13.932,13.932,0,0,1,1.222-1.3,9.968,9.968,0,0,0,4.2,2.849Zm-6.466-.034L20.5,8.041l.574,2.119a1.082,1.082,0,0,1-.13.86l-.768,1.212-.587-2.189A4.187,4.187,0,0,1,20.225,7.022Zm3.017,9.086A13.6,13.6,0,0,1,24.8,15.6c3.473-.931,3.705-.063,3.875.57.331,1.237.06,2.222-2.276,2.978a11.353,11.353,0,0,0-3.16-3.041Zm4.243,16.714c-.561,2.095-1.6,3.16-2.575,3.43l1.4-5.216c.161-.25.6-.941,1.046-1.8a1.149,1.149,0,0,1,.289.281C27.858,29.857,28.063,30.668,27.486,32.822Zm10.245-6.637a.714.714,0,0,0-.265.289,5.737,5.737,0,0,1-7.775,2.086.7.7,0,0,0-.377-.119c-.264-.006-.52-.018-.766-.037-.046-.048-.093-.094-.142-.139a1.888,1.888,0,0,0-.444-.3,10.368,10.368,0,0,0,.488-1.371,4.873,4.873,0,0,0,.127-1.374,6.882,6.882,0,0,0,1.724.205,10.406,10.406,0,0,0,2.634-.362,9.4,9.4,0,0,0,3.518-1.7l.236.882a.7.7,0,1,0,1.358-.364l-.991-3.7a.7.7,0,1,0-1.358.364l.341,1.274c-1.551,1.755-5.617,2.77-7.652,1.845h0A12.109,12.109,0,0,0,27.176,20.4l-.01-.018a6.914,6.914,0,0,0,1.294-.6,3.561,3.561,0,0,0,.093.986,2.128,2.128,0,0,0,1.762,1.5,4.293,4.293,0,0,0,1.843-.038,4.292,4.292,0,0,0,1.615-.888,2.128,2.128,0,0,0,.778-2.176,3.577,3.577,0,0,0-.416-.907l.1,0a9.187,9.187,0,0,0,2.344-.363,6.668,6.668,0,0,0,3.266-1.7l1.025,3.825c.7,2.607-.211,4.395-3.139,6.17Z"/>
        <path id="Trazado_124063" data-name="Trazado 124063" d="M47.3,43.988a.7.7,0,0,0-.7.7v2.6A.7.7,0,1,0,48,47.3v-2.6A.7.7,0,0,0,47.3,43.988Z"/>
        <path id="Trazado_124064" data-name="Trazado 124064" d="M2.355,42.693a.7.7,0,0,0-.941.323,17.2,17.2,0,0,0-1.4,4.141.7.7,0,1,0,1.378.279,15.79,15.79,0,0,1,1.285-3.8.7.7,0,0,0-.323-.941Z"/>
      </g>
    </g>
  </g>
</svg>
