<svg xmlns="http://www.w3.org/2000/svg" xmlns:xlink="http://www.w3.org/1999/xlink" width="190" height="190" viewBox="0 0 190 190">
  <defs>
    <clipPath id="clip-path">
      <rect id="Rectángulo_35387" data-name="Rectángulo 35387" width="92" height="92" transform="translate(439 11353)" fill="#fff" stroke="#707070" stroke-width="1"/>
    </clipPath>
  </defs>
  <g id="Grupo_176253" data-name="Grupo 176253" transform="translate(-390 -11047)">
    <path id="Trazado_124306" data-name="Trazado 124306" d="M10,0H180a10,10,0,0,1,10,10V180a10,10,0,0,1-10,10H10A10,10,0,0,1,0,180V10A10,10,0,0,1,10,0Z" transform="translate(390 11047)" fill="#fed2b2"/>
    <path id="Trazado_124307" data-name="Trazado 124307" d="M-24.337-3.48l2.549-9.316h3.445L-22.649,0h-3.375L-30.3-12.8h3.419ZM-12.595,0a3.344,3.344,0,0,1-.281-.853A2.754,2.754,0,0,1-15.161.176a3.374,3.374,0,0,1-2.285-.813,2.588,2.588,0,0,1-.94-2.043,2.66,2.66,0,0,1,1.143-2.338,5.821,5.821,0,0,1,3.322-.791h.914v-.5q0-1.316-1.134-1.316A.927.927,0,0,0-15.2-6.587h-2.962a2.655,2.655,0,0,1,1.173-2.239,4.931,4.931,0,0,1,2.993-.86,4.323,4.323,0,0,1,2.874.888,3.086,3.086,0,0,1,1.081,2.435v4.21a4.311,4.311,0,0,0,.4,2V0Zm-1.854-1.934a1.652,1.652,0,0,0,.918-.237,1.487,1.487,0,0,0,.523-.536V-4.228h-.861q-1.547,0-1.547,1.389a.848.848,0,0,0,.272.655A.986.986,0,0,0-14.449-1.934ZM-5.273,0H-8.244V-9.51h2.971ZM-8.42-11.962A1.322,1.322,0,0,1-7.963-13a1.724,1.724,0,0,1,1.187-.4A1.724,1.724,0,0,1-5.59-13a1.322,1.322,0,0,1,.457,1.037,1.322,1.322,0,0,1-.457,1.037,1.724,1.724,0,0,1-1.187.4,1.724,1.724,0,0,1-1.187-.4A1.322,1.322,0,0,1-8.42-11.962ZM-.729-9.51l.1,1.116A3.225,3.225,0,0,1,2.083-9.686,2.713,2.713,0,0,1,4.3-8.8a4.226,4.226,0,0,1,.76,2.672V0H2.092V-6A1.6,1.6,0,0,0,1.8-7.062,1.342,1.342,0,0,0,.747-7.4a1.413,1.413,0,0,0-1.292.686V0H-3.507V-9.51ZM9.826,0H6.855V-9.51H9.826ZM6.68-11.962A1.322,1.322,0,0,1,7.137-13a1.724,1.724,0,0,1,1.187-.4A1.724,1.724,0,0,1,9.51-13a1.322,1.322,0,0,1,.457,1.037,1.322,1.322,0,0,1-.457,1.037,1.724,1.724,0,0,1-1.187.4,1.724,1.724,0,0,1-1.187-.4A1.322,1.322,0,0,1,6.68-11.962ZM14.774,0H11.8V-13.5h2.971Zm4.948,0H16.752V-13.5h2.971ZM26.9,0a3.344,3.344,0,0,1-.281-.853A2.754,2.754,0,0,1,24.337.176a3.374,3.374,0,0,1-2.285-.813,2.588,2.588,0,0,1-.94-2.043,2.66,2.66,0,0,1,1.143-2.338,5.821,5.821,0,0,1,3.322-.791h.914v-.5q0-1.316-1.134-1.316A.927.927,0,0,0,24.3-6.587H21.34a2.655,2.655,0,0,1,1.173-2.239,4.931,4.931,0,0,1,2.993-.86A4.323,4.323,0,0,1,28.38-8.8a3.086,3.086,0,0,1,1.081,2.435v4.21a4.311,4.311,0,0,0,.4,2V0ZM25.049-1.934a1.652,1.652,0,0,0,.918-.237,1.487,1.487,0,0,0,.523-.536V-4.228h-.861q-1.547,0-1.547,1.389a.848.848,0,0,0,.272.655A.986.986,0,0,0,25.049-1.934Z" transform="translate(485 11207.889)" fill="#12263f"/>
    <g id="Enmascarar_grupo_195" data-name="Enmascarar grupo 195" transform="translate(0 -276)" clip-path="url(#clip-path)">
      <g id="vainilla" transform="translate(439 11353)">
        <g id="Grupo_175733" data-name="Grupo 175733">
          <path id="Trazado_122736" data-name="Trazado 122736" d="M4.757,90.337,2.425,87.557a.9.9,0,0,1,.11-1.262l4.392-3.674,44.6-42.481L84.515,17.506l2.908,3.466a.9.9,0,0,1-.11,1.262L6.02,90.447a.9.9,0,0,1-1.262-.11Z" fill="#d37a5f"/>
          <path id="Trazado_122737" data-name="Trazado 122737" d="M86.624,15.737,6.928,82.621,4.02,79.155a.9.9,0,0,1,.11-1.262L83.14,11.584A2.729,2.729,0,1,0,79.631,7.4L78.342,8.485a2.71,2.71,0,0,1-3.484-4.152l1.289-1.082A8.149,8.149,0,0,1,86.624,15.737Z" fill="#dd9373"/>
          <path id="Trazado_122738" data-name="Trazado 122738" d="M54.026,46.418l.862-6.475c.348-.749,3.018-2.135,3.018-2.135a27.729,27.729,0,0,0,1.641-9.4,21.29,21.29,0,0,0-5.558-14.345,21.268,21.268,0,0,1-2.4-3.188l-2.529-4.11L47.281,4.727c-.344-.558-.537-.73-1.192-.73a1.888,1.888,0,0,0-1.608.9l-2.741,5.98a21.31,21.31,0,0,1-2.4,3.188c-3.576,3.922-4.815,9.037-4.815,14.345a27.73,27.73,0,0,0,2.582,11.686l2.939,6.325h13.98Z" fill="#fff5c6"/>
          <path id="Trazado_122739" data-name="Trazado 122739" d="M57.906,37.808q-.419,1.161-.941,2.285l-2.939,6.326H37.85c-1.549-3.464-4.1-8.159-4.869-12.028a27.685,27.685,0,0,1-.654-5.984,21.3,21.3,0,0,1,5.559-14.345,21.318,21.318,0,0,0,2.4-3.186L44.33,4.3a1.888,1.888,0,0,1,3.215,0l1.515,2.462c-1.547,2.451-3.628,6.293-5.753,8.376a19.4,19.4,0,0,0-5.066,13.073,33.8,33.8,0,0,0,.132,3.708.538.538,0,0,0,.981.252A40.825,40.825,0,0,1,42.66,27.9a4.477,4.477,0,0,1,6.681,0,42.689,42.689,0,0,1,6.142,9.117.9.9,0,0,0,.677.492q.9.133,1.746.3Z" fill="#fae2c0"/>
          <g id="Grupo_175729" data-name="Grupo 175729">
            <path id="Trazado_122740" data-name="Trazado 122740" d="M44.712,41.523,38.821,38.7c-.6-.562-1.1-3.53-1.1-3.53a27.732,27.732,0,0,0-8.433-4.466,21.289,21.289,0,0,0-15.36.853,21.3,21.3,0,0,1-3.774,1.3L5.465,33.993,2.978,35.054c-.637.154-.86.285-1.062.908a1.888,1.888,0,0,0,.358,1.807l4.84,4.455A21.293,21.293,0,0,1,9.4,45.492C12.027,50.1,16.51,52.864,21.557,54.5a27.729,27.729,0,0,0,11.912,1.155l6.923-.841Z" fill="#fff5c6"/>
            <path id="Trazado_122741" data-name="Trazado 122741" d="M37.723,35.172q.975.758,1.882,1.6l5.108,4.75-5,15.385c-3.773.4-9.028,1.381-12.944.914a27.68,27.68,0,0,1-5.893-1.227,21.3,21.3,0,0,1-11.925-9.72,21.317,21.317,0,0,0-2.288-3.268l-5-5.876a1.888,1.888,0,0,1,.993-3.058l2.81-.68c1.853,2.229,4.864,5.395,6.188,8.059A19.4,19.4,0,0,0,22.521,50.91a33.767,33.767,0,0,0,3.568,1.02.538.538,0,0,0,.543-.855,40.784,40.784,0,0,1-3.043-4.465,4.477,4.477,0,0,1,2.064-6.354,42.7,42.7,0,0,1,10.569-3.025.9.9,0,0,0,.677-.492Q37.3,35.928,37.723,35.172Z" fill="#fae2c0"/>
          </g>
          <g id="Grupo_175730" data-name="Grupo 175730">
            <path id="Trazado_122742" data-name="Trazado 122742" d="M37.179,48.867l-4.5,4.732c-.722.4-3.7-.047-3.7-.047a27.733,27.733,0,0,0-6.853,6.641A21.29,21.29,0,0,0,18.19,75.064a21.279,21.279,0,0,1,.068,3.99l-.37,4.812.24,2.694a1.139,1.139,0,0,0,.535,1.291,1.888,1.888,0,0,0,1.829.218l5.732-3.226a21.282,21.282,0,0,1,3.816-1.168c5.2-1.071,9.208-4.481,12.327-8.775a27.73,27.73,0,0,0,4.779-10.972l1.34-6.844Z" fill="#fff5c6"/>
            <path id="Trazado_122743" data-name="Trazado 122743" d="M28.978,53.552q1.022-.693,2.1-1.3l6.1-3.39,13.087,9.508c-.782,3.713-1.476,9.013-3.131,12.593a27.688,27.688,0,0,1-2.988,5.225A21.3,21.3,0,0,1,31.218,84.53,21.32,21.32,0,0,0,27.4,85.7l-7.134,2.941a1.888,1.888,0,0,1-2.6-1.89l.222-2.882c2.692-1.074,6.634-2.959,9.577-3.395a19.4,19.4,0,0,0,11.782-7.6A33.819,33.819,0,0,0,41.321,69.8a.538.538,0,0,0-.645-.78,40.815,40.815,0,0,1-5.187,1.514,4.476,4.476,0,0,1-5.4-3.927,42.7,42.7,0,0,1,.39-10.987.9.9,0,0,0-.259-.8q-.648-.635-1.237-1.268Z" fill="#fae2c0"/>
          </g>
          <g id="Grupo_175731" data-name="Grupo 175731">
            <path id="Trazado_122744" data-name="Trazado 122744" d="M41.836,58.3l3.109,5.745c.159.811-1.187,3.5-1.187,3.5a27.732,27.732,0,0,0,4.2,8.57,21.29,21.29,0,0,0,12.928,8.338A21.278,21.278,0,0,1,64.7,85.625l4.462,1.839,2.636.6a1.139,1.139,0,0,0,1.393-.11,1.888,1.888,0,0,0,.773-1.672l-1.3-6.449a21.294,21.294,0,0,1,.068-3.99c.588-5.274-1.416-10.142-4.536-14.435a27.734,27.734,0,0,0-8.958-7.936l-6.1-3.39Z" fill="#fff5c6"/>
            <path id="Trazado_122745" data-name="Trazado 122745" d="M43.757,67.549q-.343-1.186-.582-2.4L41.834,58.3l13.087-9.508c3.289,1.891,8.115,4.189,11.009,6.869a27.679,27.679,0,0,1,4.046,4.456,21.3,21.3,0,0,1,3.935,14.873,21.315,21.315,0,0,0-.07,3.989l.593,7.694a1.888,1.888,0,0,1-2.6,1.889l-2.672-1.1c-.189-2.892-.764-7.223-.269-10.158a19.4,19.4,0,0,0-3.585-13.554,33.779,33.779,0,0,0-2.287-2.922.538.538,0,0,0-.942.373,40.781,40.781,0,0,1-.163,5.4,4.476,4.476,0,0,1-5.4,3.927,42.7,42.7,0,0,1-10.328-3.766.9.9,0,0,0-.837,0q-.8.42-1.588.785Z" fill="#fae2c0"/>
          </g>
          <g id="Grupo_175732" data-name="Grupo 175732">
            <path id="Trazado_122746" data-name="Trazado 122746" d="M52.248,56.788l6.425-1.181c.82.1,2.963,2.211,2.963,2.211a27.734,27.734,0,0,0,9.448-1.344,21.29,21.29,0,0,0,11.925-9.719,21.293,21.293,0,0,1,2.29-3.268l3.127-3.676,1.389-2.321a1.138,1.138,0,0,0,.326-1.359,1.888,1.888,0,0,0-1.351-1.251l-6.534-.759a21.3,21.3,0,0,1-3.774-1.3c-4.835-2.189-10.083-1.787-15.13-.147a27.73,27.73,0,0,0-10.316,6.067l-5.107,4.75Z" fill="#fff5c6"/>
            <path id="Trazado_122747" data-name="Trazado 122747" d="M61.635,57.819q-1.234-.04-2.464-.189l-6.924-.84-5-15.385c2.815-2.544,6.492-6.424,9.935-8.347a27.679,27.679,0,0,1,5.489-2.471,21.3,21.3,0,0,1,15.361.854,21.317,21.317,0,0,0,3.772,1.3l7.5,1.814a1.888,1.888,0,0,1,.993,3.057l-1.874,2.2c-2.809-.714-7.106-1.506-9.744-2.883a19.4,19.4,0,0,0-14-.778A33.806,33.806,0,0,0,61.2,37.422a.538.538,0,0,0,.063,1.011,40.815,40.815,0,0,1,5.086,1.824,4.477,4.477,0,0,1,2.064,6.354,42.7,42.7,0,0,1-6.773,8.659.9.9,0,0,0-.259.8q.151.895.255,1.753Z" fill="#fae2c0"/>
          </g>
          <path id="Trazado_122748" data-name="Trazado 122748" d="M59.361,31.6a27.686,27.686,0,0,1-1.455,6.206q-.847-.164-1.745-.3a.9.9,0,0,1-.677-.491c-.407-.815-.828-1.591-1.253-2.322a27.7,27.7,0,0,1,2.735-1.837q1.167-.685,2.4-1.256Z" fill="#fff5c6"/>
          <path id="Trazado_122749" data-name="Trazado 122749" d="M65.139,44.141a38.478,38.478,0,0,0-11.8-2.99.539.539,0,0,1-.454-.33A38.473,38.473,0,0,0,46.4,30.527a.537.537,0,0,0-.8,0A38.473,38.473,0,0,0,39.11,40.821a.539.539,0,0,1-.454.33,38.466,38.466,0,0,0-11.8,2.99.537.537,0,0,0-.248.762A38.471,38.471,0,0,0,34.4,54.256a.539.539,0,0,1,.173.533,38.473,38.473,0,0,0-.8,12.143.537.537,0,0,0,.648.471,38.469,38.469,0,0,0,11.3-4.515.539.539,0,0,1,.56,0,38.476,38.476,0,0,0,11.3,4.515.537.537,0,0,0,.648-.471,38.478,38.478,0,0,0-.8-12.143.538.538,0,0,1,.173-.533A38.479,38.479,0,0,0,65.387,44.9.537.537,0,0,0,65.139,44.141Z" fill="#fff5c6"/>
          <path id="Trazado_122750" data-name="Trazado 122750" d="M52.28,50.38a6.543,6.543,0,0,1-.133,1.288,16.467,16.467,0,0,0-1,1.465,5.517,5.517,0,0,1-5.143,3c-3.468,0-5.219-2.286-5.219-5.755a5.469,5.469,0,0,1,2.3-4.9,3.966,3.966,0,0,0,.9-1.042,6.285,6.285,0,0,1,8.3,5.946Z" fill="#fcc16d"/>
          <path id="Trazado_122751" data-name="Trazado 122751" d="M52.147,51.668a6.28,6.28,0,1,1-8.172-7.234,6.284,6.284,0,0,0,8.172,7.234Z" fill="#fca62f"/>
        </g>
        <g id="Grupo_175734" data-name="Grupo 175734">
          <path id="Trazado_122752" data-name="Trazado 122752" d="M91.717,35.191A3.253,3.253,0,0,0,89.4,33.048l-7.5-1.815a20,20,0,0,1-2.357-.729l8.63-7.241a2.24,2.24,0,0,0,.276-3.156l-2.044-2.436,1.079-.906a9.493,9.493,0,1,0-12.2-14.544L73.995,3.3a4.054,4.054,0,1,0,5.212,6.211L80.5,8.433a1.385,1.385,0,1,1,1.781,2.122L60.89,28.5a22.729,22.729,0,0,0-5.907-15.345,20,20,0,0,1-2.249-2.987L48.69,3.6a3.232,3.232,0,0,0-5.5,0l-4.043,6.572a20,20,0,0,1-2.249,2.987,22.74,22.74,0,0,0-2.015,2.558A1.344,1.344,0,0,0,37.1,17.223a19.973,19.973,0,0,1,1.776-2.254,22.7,22.7,0,0,0,2.552-3.389l4.043-6.572a.543.543,0,0,1,.926,0l4.043,6.572A22.682,22.682,0,0,0,53,14.969,19.9,19.9,0,0,1,58.2,28.408a27.064,27.064,0,0,1-2.7,11.643c-.534-.076-1.079-.143-1.636-.2a39.686,39.686,0,0,0-6.522-10.21v-8.05a1.344,1.344,0,1,0-2.688,0v7.89a39.55,39.55,0,0,0-6.667,10.37c-.551.053-1.09.119-1.618.194a27.093,27.093,0,0,1-2.7-11.641,19.928,19.928,0,0,1,.881-5.864,1.344,1.344,0,0,0-2.569-.79,22.615,22.615,0,0,0-1,6.655c0,.414.012.828.03,1.242-.349-.129-.7-.253-1.053-.367a22.586,22.586,0,0,0-16.33.907,20.006,20.006,0,0,1-3.536,1.216L2.6,33.221a3.232,3.232,0,0,0-1.7,5.235l5,5.876a19.991,19.991,0,0,1,2.146,3.062A22.585,22.585,0,0,0,20.719,57.726c.393.128.791.244,1.191.356-.23.292-.457.587-.675.888a22.663,22.663,0,0,0-2.816,5.179l-.016.012L3.267,76.863a2.24,2.24,0,0,0-.276,3.156l2.039,2.429L1.672,85.265A2.24,2.24,0,0,0,1.4,88.421L3.728,91.2a2.242,2.242,0,0,0,3.156.276l3.611-3.03a1.344,1.344,0,0,0-1.728-2.059L5.5,89.13,3.743,87.037,17.138,75.8a19.98,19.98,0,0,1-.022,2.721l-.071.924-3.471,2.912A1.344,1.344,0,1,0,15.3,84.413l1.454-1.22-.232,3.019a3.227,3.227,0,0,0,3.228,3.477,3.218,3.218,0,0,0,1.225-.241l7.134-2.94a20,20,0,0,1,3.575-1.094A22.585,22.585,0,0,0,45.43,76.549c.243-.334.477-.677.706-1.023.207.309.417.616.635.916a22.585,22.585,0,0,0,13.744,8.865A20.011,20.011,0,0,1,64.091,86.4l7.134,2.94a3.251,3.251,0,0,0,3.131-.373,3.253,3.253,0,0,0,1.323-2.862l-.592-7.693a20,20,0,0,1,.064-3.738,22.749,22.749,0,0,0-4.936-16.8A22.808,22.808,0,0,0,83.959,47.222,20.011,20.011,0,0,1,86.1,44.16l5-5.876a3.252,3.252,0,0,0,.612-3.093ZM84,12.614a4.073,4.073,0,1,0-5.236-6.24L77.479,7.455a1.366,1.366,0,1,1-1.756-2.093l1.289-1.082A6.805,6.805,0,1,1,85.76,14.707L78.9,20.464a1.344,1.344,0,1,0,1.728,2.059L84.35,19.4l1.756,2.093-9.37,7.862a22.642,22.642,0,0,0-3.182-.9l2.262-1.9A1.344,1.344,0,0,0,74.089,24.5L69.9,28.016a22.56,22.56,0,0,0-4.6.3ZM21.55,55.17a19.9,19.9,0,0,1-11.172-9.105A22.694,22.694,0,0,0,7.943,42.59l-5-5.877a.543.543,0,0,1,.286-.88l7.5-1.815a22.7,22.7,0,0,0,4.012-1.38,19.9,19.9,0,0,1,14.39-.8c.733.238,1.46.512,2.172.815a29.258,29.258,0,0,0,2.336,7.886,40.48,40.48,0,0,0-6.575,2.025l-7.787-2.53a1.344,1.344,0,1,0-.831,2.556l6.5,2.113A31.032,31.032,0,0,0,29.5,51.312a29.335,29.335,0,0,0-5.6,4.5c-.792-.179-1.579-.393-2.348-.643ZM5.338,78.634,17.2,68.681a22.6,22.6,0,0,0-.284,3.795L7.088,80.721Zm37.918-3.666A19.9,19.9,0,0,1,31.144,82.78a22.693,22.693,0,0,0-4.057,1.242l-7.134,2.94a.544.544,0,0,1-.749-.544l.592-7.693a22.7,22.7,0,0,0-.073-4.242A19.9,19.9,0,0,1,23.41,60.549a26.574,26.574,0,0,1,7.951-7.222c.541.545,1.114,1.091,1.722,1.628-.165.742-.308,1.5-.428,2.272a1.344,1.344,0,1,0,2.656.413c.151-.973.343-1.93.57-2.846a1.344,1.344,0,0,0-.439-1.352,37.258,37.258,0,0,1-7.26-8.425,37.254,37.254,0,0,1,10.826-2.549,1.344,1.344,0,0,0,1.15-.836,37.257,37.257,0,0,1,5.769-9.508A37.245,37.245,0,0,1,51.7,41.631a1.344,1.344,0,0,0,1.15.836,37.258,37.258,0,0,1,10.826,2.549,37.26,37.26,0,0,1-7.26,8.425,1.344,1.344,0,0,0-.44,1.352,37.255,37.255,0,0,1,.921,11.083,37.253,37.253,0,0,1-10.256-4.3,1.343,1.343,0,0,0-1.422,0,37.268,37.268,0,0,1-10.258,4.3c-.039-.575-.074-1.3-.081-2.138a1.344,1.344,0,0,0-1.344-1.332h-.012a1.344,1.344,0,0,0-1.332,1.356c.011,1.224.074,2.22.134,2.906l-4.185,5.76a1.344,1.344,0,1,0,2.175,1.58l3.763-5.179a38.21,38.21,0,0,0,7.98-2.561,29.35,29.35,0,0,0,2.536,6.665c-.414.7-.861,1.381-1.337,2.035ZM68.793,60.443a19.9,19.9,0,0,1,3.687,13.933,22.687,22.687,0,0,0-.073,4.242L73,86.311a.548.548,0,0,1-.223.482.54.54,0,0,1-.526.063l-7.134-2.94a22.686,22.686,0,0,0-4.057-1.242,19.9,19.9,0,0,1-12.112-7.812,26.578,26.578,0,0,1-4.412-9.8c.462-.245.927-.5,1.393-.779a38.754,38.754,0,0,0,12.014,4.566l3.745,5.155a1.344,1.344,0,0,0,2.175-1.58l-4.313-5.936a40.312,40.312,0,0,0-.133-7.661q1.419.141,2.85.143a29.449,29.449,0,0,0,5.006-.43C67.806,59.153,68.318,59.789,68.793,60.443Zm20.265-23.9-5,5.876a22.681,22.681,0,0,0-2.435,3.475A19.9,19.9,0,0,1,70.451,55,27.027,27.027,0,0,1,59,56.083c-.07-.373-.146-.749-.231-1.128a35.921,35.921,0,0,0,8.124-10.2l6.659-2.163a1.344,1.344,0,0,0-.831-2.556l-7.867,2.556a40.442,40.442,0,0,0-6.622-2.047,29.257,29.257,0,0,0,2.356-8.017c.745-.321,1.509-.61,2.278-.86a19.9,19.9,0,0,1,14.39.8,22.692,22.692,0,0,0,4.012,1.38l7.5,1.815a.54.54,0,0,1,.389.36.548.548,0,0,1-.1.52Z"/>
          <path id="Trazado_122753" data-name="Trazado 122753" d="M46.032,58a7.624,7.624,0,1,0-7.624-7.624A7.632,7.632,0,0,0,46.032,58Zm0-12.559A4.936,4.936,0,1,1,41.1,50.38,4.941,4.941,0,0,1,46.032,45.444Z"/>
        </g>
      </g>
    </g>
  </g>
</svg>
