<svg xmlns="http://www.w3.org/2000/svg" xmlns:xlink="http://www.w3.org/1999/xlink" width="190" height="190" viewBox="0 0 190 190">
  <defs>
    <clipPath id="clip-path">
      <rect id="Rectángulo_35395" data-name="Rectángulo 35395" width="92" height="92" transform="translate(1279 11353)" fill="#fff" stroke="#707070" stroke-width="1"/>
    </clipPath>
  </defs>
  <g id="Grupo_176257" data-name="Grupo 176257" transform="translate(-1230 -11047)">
    <path id="Trazado_124314" data-name="Trazado 124314" d="M10,0H180a10,10,0,0,1,10,10V180a10,10,0,0,1-10,10H10A10,10,0,0,1,0,180V10A10,10,0,0,1,10,0Z" transform="translate(1230 11047)" fill="#fed2b2"/>
    <path id="Trazado_124315" data-name="Trazado 124315" d="M-39.916-5.1H-44.89V0h-3.085V-12.8h8.561v2.382H-44.89v2.944h4.975ZM-33.667.176a4.889,4.889,0,0,1-3.542-1.305,4.507,4.507,0,0,1-1.354-3.4v-.246a5.84,5.84,0,0,1,.541-2.575,3.955,3.955,0,0,1,1.578-1.727,4.763,4.763,0,0,1,2.461-.611,4.117,4.117,0,0,1,3.164,1.244,4.887,4.887,0,0,1,1.16,3.467v1.151h-5.889a2.135,2.135,0,0,0,.694,1.257,2.066,2.066,0,0,0,1.389.457,2.662,2.662,0,0,0,2.2-.984l1.354,1.6A3.784,3.784,0,0,1-31.482-.277,5.3,5.3,0,0,1-33.667.176ZM-34-7.4q-1.3,0-1.547,1.723h2.988v-.229a1.467,1.467,0,0,0-.36-1.1A1.434,1.434,0,0,0-34-7.4Zm11.285.571-.976-.07a1.752,1.752,0,0,0-1.793.879V0h-2.962V-9.51h2.777l.1,1.222a2.294,2.294,0,0,1,2.083-1.4,2.888,2.888,0,0,1,.826.105Zm3.867-2.681.1,1.116a3.27,3.27,0,0,1,2.716-1.292A2.407,2.407,0,0,1-13.6-8.253a3.165,3.165,0,0,1,2.795-1.433q2.892,0,2.971,3.5V0h-2.971V-6a1.813,1.813,0,0,0-.246-1.063,1.048,1.048,0,0,0-.9-.334,1.4,1.4,0,0,0-1.31.782l.009.123V0H-16.22V-5.985a1.906,1.906,0,0,0-.237-1.081,1.045,1.045,0,0,0-.905-.334,1.42,1.42,0,0,0-1.3.782V0h-2.962V-9.51ZM-1.542.176A4.889,4.889,0,0,1-5.084-1.129a4.507,4.507,0,0,1-1.354-3.4v-.246A5.84,5.84,0,0,1-5.9-7.348,3.955,3.955,0,0,1-4.32-9.075a4.763,4.763,0,0,1,2.461-.611A4.117,4.117,0,0,1,1.305-8.442a4.887,4.887,0,0,1,1.16,3.467v1.151H-3.423a2.135,2.135,0,0,0,.694,1.257,2.066,2.066,0,0,0,1.389.457,2.662,2.662,0,0,0,2.2-.984l1.354,1.6A3.784,3.784,0,0,1,.642-.277,5.3,5.3,0,0,1-1.542.176ZM-1.876-7.4q-1.3,0-1.547,1.723H-.435v-.229a1.467,1.467,0,0,0-.36-1.1A1.434,1.434,0,0,0-1.876-7.4ZM6.376-9.51l.1,1.116A3.225,3.225,0,0,1,9.189-9.686a2.713,2.713,0,0,1,2.219.888,4.226,4.226,0,0,1,.76,2.672V0H9.2V-6a1.6,1.6,0,0,0-.29-1.059A1.342,1.342,0,0,0,7.853-7.4a1.413,1.413,0,0,0-1.292.686V0H3.6V-9.51Zm10.881-2.364V-9.51h1.564v2.057H17.257V-3.1a1.111,1.111,0,0,0,.193.747,1.037,1.037,0,0,0,.765.211,4.345,4.345,0,0,0,.738-.053V-.079a5.466,5.466,0,0,1-1.67.255,3.1,3.1,0,0,1-2.259-.721A2.954,2.954,0,0,1,14.3-2.733v-4.72H13.083V-9.51H14.3v-2.364ZM25.343,0a3.344,3.344,0,0,1-.281-.853A2.754,2.754,0,0,1,22.777.176a3.374,3.374,0,0,1-2.285-.813,2.588,2.588,0,0,1-.94-2.043,2.66,2.66,0,0,1,1.143-2.338,5.821,5.821,0,0,1,3.322-.791h.914v-.5q0-1.316-1.134-1.316a.927.927,0,0,0-1.055,1.042H19.78a2.655,2.655,0,0,1,1.173-2.239,4.931,4.931,0,0,1,2.993-.86A4.323,4.323,0,0,1,26.82-8.8,3.086,3.086,0,0,1,27.9-6.363v4.21a4.311,4.311,0,0,0,.4,2V0ZM23.489-1.934a1.652,1.652,0,0,0,.918-.237,1.487,1.487,0,0,0,.523-.536V-4.228h-.861q-1.547,0-1.547,1.389a.848.848,0,0,0,.272.655A.986.986,0,0,0,23.489-1.934Zm5.678-2.892a5.809,5.809,0,0,1,.976-3.56,3.211,3.211,0,0,1,2.725-1.3,2.731,2.731,0,0,1,2.145,1V-13.5h2.971V0H35.319l-.149-1.02a2.8,2.8,0,0,1-2.32,1.2,3.205,3.205,0,0,1-2.689-1.3A5.993,5.993,0,0,1,29.167-4.825Zm2.962.185q0,2.531,1.477,2.531a1.458,1.458,0,0,0,1.406-.826V-6.557A1.419,1.419,0,0,0,33.623-7.4q-1.371,0-1.485,2.215Zm7.163-.2a5.613,5.613,0,0,1,.554-2.536,3.96,3.96,0,0,1,1.591-1.709,4.791,4.791,0,0,1,2.435-.6,4.373,4.373,0,0,1,3.366,1.323,5.076,5.076,0,0,1,1.23,3.6v.105a4.925,4.925,0,0,1-1.235,3.529A4.384,4.384,0,0,1,43.888.176a4.434,4.434,0,0,1-3.261-1.217,4.761,4.761,0,0,1-1.327-3.3Zm2.962.185a3.538,3.538,0,0,0,.413,1.934,1.376,1.376,0,0,0,1.222.615q1.582,0,1.617-2.435v-.3q0-2.558-1.635-2.558-1.485,0-1.608,2.206Z" transform="translate(1325 11207.889)" fill="#12263f"/>
    <g id="Enmascarar_grupo_198" data-name="Enmascarar grupo 198" transform="translate(0 -276)" clip-path="url(#clip-path)">
      <g id="levadura" transform="translate(1279 11353)">
        <path id="Trazado_122785" data-name="Trazado 122785" d="M87.688,74.75C87.688,80.7,69.023,90.563,46,90.563S4.313,80.7,4.313,74.75V30.906H87.7l-.03,43.844Z" fill="#f4dfcb"/>
        <path id="Trazado_122786" data-name="Trazado 122786" d="M10.063,48.3H81.938v23c0,7.145-16.09,12.938-35.937,12.938S10.063,78.444,10.063,71.3Z" fill="#efd5ab"/>
        <ellipse id="Elipse_3975" data-name="Elipse 3975" cx="35.938" cy="13.656" rx="35.938" ry="13.656" transform="translate(10.063 34.5)" fill="#d3ba8d"/>
        <path id="Trazado_122787" data-name="Trazado 122787" d="M74.391,23.18c7.97,1.964,13.3,4.655,13.3,7.727v.719c0,2.1-3.007,1.68-7.021,3.337-2.333.963-4.172,5.241-7.526,5.968-2.684.582-6.255-2.462-9.45-2.068-2.819.347-5.492,4.193-8.617,4.37-2.889.163-5.993-3.341-9.073-3.341s-6.183,3.5-9.073,3.341c-3.125-.177-5.8-4.023-8.617-4.37-3.2-.394-6.767,2.65-9.452,2.068-3.354-.727-5.193-5.005-7.526-5.968-4.014-1.657-7.02-1.237-7.02-3.336v-.719c0-3.072,5.147-5.942,13.117-7.906" fill="#af4732"/>
        <path id="Trazado_122788" data-name="Trazado 122788" d="M17.25,11.5V21.7c0,5.48,12.872,9.923,28.75,9.923S74.75,27.182,74.75,21.7V11.5Z" fill="#af4732"/>
        <path id="Trazado_122789" data-name="Trazado 122789" d="M17.25,11.5v4.452a1.438,1.438,0,0,0-1.437,1.438,5.674,5.674,0,0,0,1.438,3.674V21.7a3.645,3.645,0,0,0,.245,1.3H17.43c-7.97,1.964-13.117,4.834-13.117,7.906V74.75c0,3.594,6.8,8.607,17.25,12.02V40.25c2.875-10.062,20.125-11.5,20.125-11.5V11.5Z" fill="#fcfcfc" opacity="0.2"/>
        <ellipse id="Elipse_3976" data-name="Elipse 3976" cx="28.75" cy="10.063" rx="28.75" ry="10.063" transform="translate(17.25 1.438)" fill="#631c18"/>
        <path id="Trazado_122790" data-name="Trazado 122790" d="M39.749,21.324c-12.873-1-22.5-5.017-22.5-9.824s9.626-8.824,22.5-9.824c-5.471,1-9.561,5.017-9.561,9.824S34.277,20.324,39.749,21.324Z" fill="#fcfcfc" opacity="0.2"/>
        <path id="Trazado_122791" data-name="Trazado 122791" d="M20.1,81.8c6.94,2.5,16.138,3.874,25.9,3.874S64.959,84.3,71.9,81.8c7.053-2.539,11.083-6.045,11.446-9.924h.03V48.3c0-2.206-1.139-4.284-3.385-6.178l-1.853,2.2C79.7,45.641,80.5,46.98,80.5,48.3c0,2.723-3.58,5.637-9.575,7.8C64.289,58.483,55.437,59.8,46,59.8s-18.289-1.315-24.925-3.7c-6-2.158-9.575-5.073-9.575-7.8,0-1.319.8-2.658,2.364-3.98l-1.853-2.2C9.764,44.014,8.625,46.092,8.625,48.3V71.875h.03C9.019,75.754,13.049,79.26,20.1,81.8ZM11.5,54.007A25.151,25.151,0,0,0,20.1,58.8c6.94,2.5,16.138,3.874,25.9,3.874S64.959,61.3,71.9,58.8a25.158,25.158,0,0,0,8.6-4.793V71.3c0,2.723-3.58,5.637-9.575,7.8C64.289,81.483,55.437,82.8,46,82.8s-18.289-1.315-24.925-3.7c-6-2.158-9.575-5.073-9.575-7.8Z"/>
        <path id="Trazado_122792" data-name="Trazado 122792" d="M15.96,86.212A78.5,78.5,0,0,0,46,92a78.5,78.5,0,0,0,30.04-5.788c8.193-3.485,13.085-7.77,13.085-11.462V30.906c0-3.51-4.36-6.452-12.959-8.754.013-.149.022-10.653.022-10.653,0-2.367-1.628-5.758-9.383-8.472A65.372,65.372,0,0,0,46,0,65.372,65.372,0,0,0,25.2,3.028C17.44,5.742,15.813,9.133,15.813,11.5c0,0,0,10.354.008,10.429C5.163,24.775,2.875,28.358,2.875,30.906V74.75C2.875,78.442,7.766,82.727,15.96,86.212ZM26.146,5.742A62.476,62.476,0,0,1,46,2.875,62.476,62.476,0,0,1,65.854,5.742c4.67,1.634,7.458,3.787,7.458,5.758s-2.788,4.124-7.458,5.758A62.476,62.476,0,0,1,46,20.125a62.476,62.476,0,0,1-19.854-2.867c-4.67-1.634-7.458-3.787-7.458-5.758S21.476,7.376,26.146,5.742ZM18.688,16.616A21.694,21.694,0,0,0,25.2,19.972,65.372,65.372,0,0,0,46,23a65.372,65.372,0,0,0,20.8-3.028,21.7,21.7,0,0,0,6.508-3.357v.774c0,1.932-2.785,4.047-7.452,5.657A63.3,63.3,0,0,1,46,25.875a63.3,63.3,0,0,1-19.86-2.828c-4.667-1.611-7.452-3.725-7.452-5.658ZM73.117,22.6C72.41,24.273,69.808,26,65.86,27.36A63.292,63.292,0,0,1,46,30.188,63.3,63.3,0,0,1,26.14,27.36C22.192,26,19.59,24.274,18.883,22.605,24.134,26.626,35.311,28.75,46,28.75S67.866,26.626,73.117,22.6Zm-56.392,2.06c3.531,5.476,16.74,8.4,29.275,8.4,12.388,0,25.434-2.854,29.147-8.206,8.166,2.153,11.1,4.58,11.1,6.049v.719a.524.524,0,0,1,0,.062,8.02,8.02,0,0,1-2.1.688,27.656,27.656,0,0,0-4.034,1.258,10.178,10.178,0,0,0-3.38,2.863c-1.193,1.332-2.427,2.709-3.9,3.029-.915.2-2.264-.332-3.694-.893a11.833,11.833,0,0,0-5.628-1.2,10.547,10.547,0,0,0-4.647,2.354c-1.306.952-2.656,1.938-3.876,2.007-1.039.06-2.338-.673-3.716-1.447A11.093,11.093,0,0,0,46,38.453a11.084,11.084,0,0,0-5.275,1.9c-1.378.775-2.681,1.508-3.716,1.447-1.22-.069-2.571-1.054-3.876-2.007a10.531,10.531,0,0,0-4.647-2.354,11.822,11.822,0,0,0-5.628,1.2c-1.43.561-2.78,1.091-3.694.893-1.475-.32-2.709-1.7-3.9-3.029a10.178,10.178,0,0,0-3.38-2.863,27.655,27.655,0,0,0-4.033-1.258,8.021,8.021,0,0,1-2.094-.688.524.524,0,0,1,0-.063v-.719C5.75,29.217,9.156,26.674,16.725,24.665ZM5.75,34.783c.46.146.937.265,1.4.381a24.876,24.876,0,0,1,3.633,1.126,8.613,8.613,0,0,1,2.336,2.124c1.429,1.6,3.049,3.4,5.435,3.921,1.764.382,3.589-.334,5.354-1.027a9.7,9.7,0,0,1,4.226-1.02,8.631,8.631,0,0,1,3.3,1.824c1.566,1.142,3.341,2.437,5.409,2.554,1.876.107,3.61-.869,5.288-1.812A9.2,9.2,0,0,1,46,41.327a9.186,9.186,0,0,1,3.866,1.527,10.652,10.652,0,0,0,5,1.82q.141,0,.283-.008c2.066-.117,3.842-1.412,5.408-2.554a8.632,8.632,0,0,1,3.3-1.824,9.7,9.7,0,0,1,4.226,1.02c1.765.693,3.589,1.409,5.353,1.027,2.386-.517,4.006-2.325,5.435-3.92a8.6,8.6,0,0,1,2.336-2.124,24.882,24.882,0,0,1,3.632-1.125c.463-.116.941-.236,1.4-.381V74.75c0,.473-.27,1.8-2.76,3.879a35.157,35.157,0,0,1-8.575,4.937A74.93,74.93,0,0,1,46,89.125a74.928,74.928,0,0,1-28.915-5.559A35.157,35.157,0,0,1,8.51,78.629c-2.49-2.08-2.76-3.406-2.76-3.879Z"/>
        <path id="Trazado_122793" data-name="Trazado 122793" d="M23.719,48.156a.719.719,0,0,1,.719.719h2.875a3.594,3.594,0,0,0-7.187,0H23A.719.719,0,0,1,23.719,48.156Z"/>
        <path id="Trazado_122794" data-name="Trazado 122794" d="M46,53.188a.719.719,0,0,1,.719.719h2.875a3.594,3.594,0,0,0-7.187,0h2.875A.719.719,0,0,1,46,53.188Z"/>
        <path id="Trazado_122795" data-name="Trazado 122795" d="M65.406,48.156a.719.719,0,0,1,.719.719H69a3.594,3.594,0,0,0-7.187,0h2.875A.719.719,0,0,1,65.406,48.156Z"/>
      </g>
    </g>
  </g>
</svg>
