<svg xmlns="http://www.w3.org/2000/svg" xmlns:xlink="http://www.w3.org/1999/xlink" width="105" height="105" viewBox="0 0 105 105">
  <defs>
    <clipPath id="clip-path">
      <rect id="_1406" data-name="1406" width="105" height="105" rx="9" transform="translate(748 734)" fill="#fd7f23"/>
    </clipPath>
  </defs>
  <g id="Enmascarar_grupo_224" data-name="Enmascarar grupo 224" transform="translate(-748 -734)" clip-path="url(#clip-path)">
    <g id="evaluacion" transform="translate(748 733.998)">
      <g id="Grupo_176185" data-name="Grupo 176185">
        <g id="Grupo_176182" data-name="Grupo 176182">
          <path id="Trazado_124179" data-name="Trazado 124179" d="M81.641,10.328A4.569,4.569,0,0,1,86.2,14.888V98.8a4.569,4.569,0,0,1-4.561,4.561H11.41A4.569,4.569,0,0,1,6.85,98.8V14.888a4.569,4.569,0,0,1,4.56-4.561Z" fill="#837683" fill-rule="evenodd"/>
          <path id="Trazado_124180" data-name="Trazado 124180" d="M75.756,103.362h5.885A4.569,4.569,0,0,0,86.2,98.8V14.888a4.569,4.569,0,0,0-4.561-4.561H75.756Z" fill="#685e68" fill-rule="evenodd"/>
          <path id="Trazado_124181" data-name="Trazado 124181" d="M77.807,16.672H15.245a2.055,2.055,0,0,0-2.051,2.051V94.967a2.055,2.055,0,0,0,2.051,2.051H77.807a2.055,2.055,0,0,0,2.051-2.051V18.723a2.055,2.055,0,0,0-2.051-2.051Z" fill="#eceff1" fill-rule="evenodd"/>
          <path id="Trazado_124182" data-name="Trazado 124182" d="M75.756,97.018h2.051c.065,0,.128,0,.192-.009a2.055,2.055,0,0,0,1.859-2.042V18.723A2.055,2.055,0,0,0,78,16.681c-.063-.006-.127-.009-.192-.009H75.756Z" fill="#d1d1d6" fill-rule="evenodd"/>
          <path id="Trazado_124183" data-name="Trazado 124183" d="M31.019,7.571h6.5A2.014,2.014,0,0,0,39.4,6.332a7.755,7.755,0,0,1,14.246,0,2.014,2.014,0,0,0,1.883,1.24h6.5a2.055,2.055,0,0,1,2.051,2.051v7.756a2.055,2.055,0,0,1-2.051,2.051H31.019a2.055,2.055,0,0,1-2.051-2.051V9.622A2.055,2.055,0,0,1,31.019,7.571Z" fill="#e3a76f" fill-rule="evenodd"/>
          <path id="Trazado_124184" data-name="Trazado 124184" d="M59.982,17.378H28.968a2.055,2.055,0,0,0,2.051,2.051H62.033a2.055,2.055,0,0,0,2.051-2.051V9.622a2.055,2.055,0,0,0-2.051-2.051v7.756a2.055,2.055,0,0,1-2.051,2.051Z" fill="#c48958" fill-rule="evenodd"/>
        </g>
        <g id="Grupo_176183" data-name="Grupo 176183">
          <path id="Trazado_124185" data-name="Trazado 124185" d="M27.9,28.527h4.973a2.055,2.055,0,0,1,2.051,2.051v4.973A2.055,2.055,0,0,1,32.875,37.6H27.9a2.055,2.055,0,0,1-2.051-2.051V30.578A2.055,2.055,0,0,1,27.9,28.527Z" fill="#fe646f" fill-rule="evenodd"/>
          <path id="Trazado_124186" data-name="Trazado 124186" d="M27.9,45.6h4.973a2.055,2.055,0,0,1,2.051,2.051v4.973a2.055,2.055,0,0,1-2.051,2.051H27.9a2.055,2.055,0,0,1-2.051-2.051V47.65A2.055,2.055,0,0,1,27.9,45.6Z" fill="#ffe177" fill-rule="evenodd"/>
          <path id="Trazado_124187" data-name="Trazado 124187" d="M27.9,62.672h4.973a2.055,2.055,0,0,1,2.051,2.051V69.7a2.055,2.055,0,0,1-2.051,2.051H27.9A2.055,2.055,0,0,1,25.851,69.7V64.723A2.055,2.055,0,0,1,27.9,62.672Z" fill="#6cf5c2" fill-rule="evenodd"/>
          <path id="Trazado_124188" data-name="Trazado 124188" d="M27.9,79.745h4.973A2.055,2.055,0,0,1,34.926,81.8v4.973a2.055,2.055,0,0,1-2.051,2.051H27.9a2.055,2.055,0,0,1-2.051-2.051V81.8A2.055,2.055,0,0,1,27.9,79.745Z" fill="#8ac9fe" fill-rule="evenodd"/>
        </g>
        <g id="Grupo_176184" data-name="Grupo 176184">
          <path id="Trazado_124189" data-name="Trazado 124189" d="M65.894,70.763,88.366,31.84a4.432,4.432,0,0,1,6.043-1.619l1.532.885a4.432,4.432,0,0,1,1.619,6.043L75.089,76.071,67.48,80.464a1.057,1.057,0,0,1-1.585-.915V70.763Z" fill="#ffe177" fill-rule="evenodd"/>
          <path id="Trazado_124190" data-name="Trazado 124190" d="M96.855,31.807a4.435,4.435,0,0,1,.705,5.341L75.089,76.071l-5.684,3.281Z" fill="#ffd064" fill-rule="evenodd"/>
          <path id="Trazado_124191" data-name="Trazado 124191" d="M65.894,79.549V70.763l9.194,5.308L67.48,80.464a1.057,1.057,0,0,1-1.585-.915Z" fill="#685e68" fill-rule="evenodd"/>
        </g>
      </g>
      <path id="Trazado_124192" data-name="Trazado 124192" d="M47.141,89.558a1.632,1.632,0,0,0,2.254.055l9.074-8.231a1.641,1.641,0,1,0-2.206-2.431l-7.913,7.183L45.719,83.5a1.637,1.637,0,1,0-2.312,2.319ZM33.289,81.386H27.494v5.794h5.795Zm3.279-1.641V88.82a1.642,1.642,0,0,1-1.645,1.641H25.85a1.642,1.642,0,0,1-1.645-1.641V79.745A1.642,1.642,0,0,1,25.85,78.1h9.074A1.642,1.642,0,0,1,36.568,79.745ZM33.289,64.312H27.494v5.794h5.795Zm3.279-1.641v9.075a1.642,1.642,0,0,1-1.645,1.641H25.85a1.642,1.642,0,0,1-1.645-1.641V62.672a1.642,1.642,0,0,1,1.645-1.641h9.074A1.642,1.642,0,0,1,36.568,62.672ZM33.289,47.24H27.494v5.794h5.795ZM36.568,45.6v9.075a1.641,1.641,0,0,1-1.645,1.64H25.85a1.641,1.641,0,0,1-1.645-1.64V45.6a1.642,1.642,0,0,1,1.645-1.641h9.074A1.642,1.642,0,0,1,36.568,45.6Zm-9.074-9.639h5.795V30.167H27.494ZM25.85,26.885h9.074a1.642,1.642,0,0,1,1.645,1.641V37.6a1.642,1.642,0,0,1-1.645,1.641H25.85A1.642,1.642,0,0,1,24.205,37.6V28.526a1.642,1.642,0,0,1,1.645-1.641Zm29.3,35.2a1.631,1.631,0,0,0-2.312,0l-2.805,2.805-2.805-2.805a1.642,1.642,0,0,0-2.322,2.322l2.805,2.805-2.805,2.805a1.641,1.641,0,0,0,2.322,2.319l2.805-2.805,2.805,2.805a1.637,1.637,0,0,0,2.312-2.319l-2.805-2.805,2.805-2.805A1.629,1.629,0,0,0,55.151,62.084ZM95.723,32.611,72.729,72.432l1.761,1.013,21.65-37.5A2.792,2.792,0,0,0,95.723,32.611ZM84.56,62.561V98.8a2.921,2.921,0,0,1-2.922,2.921H11.406A2.919,2.919,0,0,1,8.495,98.8V14.889a2.92,2.92,0,0,1,2.912-2.921H27.329v3.064H13.2a1.642,1.642,0,0,0-1.645,1.641V97.016A1.642,1.642,0,0,0,13.2,98.657H79.858A1.642,1.642,0,0,0,81.5,97.016V67.865ZM28.964,21.07H64.08a1.643,1.643,0,0,0,1.645-1.641V18.314H78.214v27.44L64.477,69.559a1.626,1.626,0,0,0-.223.82V81a1.631,1.631,0,0,0,.822,1.419,1.619,1.619,0,0,0,1.635,0l9.2-5.307a1.632,1.632,0,0,0,.6-.6l1.7-2.958V95.376H14.831V18.314h12.5v1.115a1.641,1.641,0,0,0,1.635,1.641Zm1.645-3.281H62.445V9.213H54.058a1.63,1.63,0,0,1-1.586-1.256,6.117,6.117,0,0,0-11.889,0,1.633,1.633,0,0,1-1.6,1.256H30.609v8.576Zm35.116-5.82H81.638a2.922,2.922,0,0,1,2.922,2.921V34.765L81.5,40.07v-23.4a1.642,1.642,0,0,0-1.645-1.641H65.725Zm1.809,66.185,4.276-2.468-4.276-2.467Zm22.25-45.879a2.794,2.794,0,0,1,3.1-1.3L69.894,70.791l-1.761-1.013Zm9.2,5.31L87.839,56.876V98.8a6.2,6.2,0,0,1-6.2,6.2H11.406a6.21,6.21,0,0,1-6.2-6.2V14.889a6.212,6.212,0,0,1,6.2-6.2H27.329V7.572a1.64,1.64,0,0,1,1.635-1.641h8.822a9.4,9.4,0,0,1,17.471,0H64.08a1.642,1.642,0,0,1,1.645,1.641V8.687H81.638a6.206,6.206,0,0,1,6.2,6.2V29.445a6.085,6.085,0,0,1,7.391-1.029l1.528.884a6.065,6.065,0,0,1,2.225,8.285Zm-40.4,7.334a1.646,1.646,0,0,0-2.322-.11l-7.913,7.179-2.631-2.628a1.637,1.637,0,0,0-2.312,2.319l3.734,3.735a1.632,1.632,0,0,0,2.254.055l9.074-8.231a1.652,1.652,0,0,0,.116-2.318ZM46.522,5.947A2.051,2.051,0,1,1,44.471,8,2.053,2.053,0,0,1,46.522,5.947ZM43.407,34.605l3.734,3.734A1.634,1.634,0,0,0,49.4,38.4l9.074-8.232a1.64,1.64,0,1,0-2.206-2.428l-7.913,7.18-2.631-2.629a1.638,1.638,0,1,0-2.312,2.32Z" fill-rule="evenodd"/>
    </g>
  </g>
</svg>
