<svg xmlns="http://www.w3.org/2000/svg" xmlns:xlink="http://www.w3.org/1999/xlink" width="96" height="96" viewBox="0 0 96 96">
  <defs>
    <clipPath id="clip-path">
      <rect id="Rectángulo_35496" data-name="Rectángulo 35496" width="96" height="96" transform="translate(752 2226)" fill="#fff" stroke="#707070" stroke-width="1"/>
    </clipPath>
  </defs>
  <g id="Enmascarar_grupo_216" data-name="Enmascarar grupo 216" transform="translate(-752 -2226)" clip-path="url(#clip-path)">
    <g id="organizacion" transform="translate(750.452 2224.451)">
      <g id="Grupo_176135" data-name="Grupo 176135">
        <g id="Grupo_176089" data-name="Grupo 176089">
          <path id="Trazado_124065" data-name="Trazado 124065" d="M10.839,18.766v2.911l-.914-.31a5.573,5.573,0,0,1-2.71-1.982,5.469,5.469,0,0,1,.356-6.813,5.671,5.671,0,0,0,1.8,1.394l2.57,1.285a6.145,6.145,0,0,0-1.1,3.515Z" fill="#656d78"/>
        </g>
        <g id="Grupo_176090" data-name="Grupo 176090">
          <path id="Trazado_124066" data-name="Trazado 124066" d="M13.254,39.608l5.326,6.844h-3.1a9.159,9.159,0,0,0-5.605,1.889L9.631,48H3.1V42.643a9.505,9.505,0,0,1,2.787-6.72,9.326,9.326,0,0,1,2.957-2Z" fill="#4fc1e9"/>
        </g>
        <g id="Grupo_176091" data-name="Grupo 176091">
          <path id="Trazado_124067" data-name="Trazado 124067" d="M34.065,42.643V48H26.323l-1.548-.635a10.3,10.3,0,0,0-4.258-.914H18.581l5.326-6.844,4.413-5.683a9.326,9.326,0,0,1,2.957,2A9.505,9.505,0,0,1,34.065,42.643Z" fill="#4fc1e9"/>
        </g>
        <g id="Grupo_176092" data-name="Grupo 176092">
          <path id="Trazado_124068" data-name="Trazado 124068" d="M23.907,39.608l-5.326,6.844-5.326-6.844,5.326-3.995Z" fill="#e6e9ed"/>
        </g>
        <g id="Grupo_176093" data-name="Grupo 176093">
          <path id="Trazado_124069" data-name="Trazado 124069" d="M28.32,33.925l-4.413,5.683-5.326-3.995,4.645-3.1,3.639.914A9.479,9.479,0,0,1,28.32,33.925Z" fill="#ccd1d9"/>
        </g>
        <g id="Grupo_176094" data-name="Grupo 176094">
          <path id="Trazado_124070" data-name="Trazado 124070" d="M18.581,35.613l-5.326,3.995L8.841,33.925a9.479,9.479,0,0,1,1.455-.5l3.639-.914Z" fill="#ccd1d9"/>
        </g>
        <g id="Grupo_176095" data-name="Grupo 176095">
          <path id="Trazado_124071" data-name="Trazado 124071" d="M44.222,39.608l5.326,6.844h-3.1a9.186,9.186,0,0,0-4.49,1.161l-1.7.387H34.065V42.643a9.505,9.505,0,0,1,2.787-6.72,9.326,9.326,0,0,1,2.957-2Z" fill="#fcd770"/>
        </g>
        <g id="Grupo_176096" data-name="Grupo 176096">
          <path id="Trazado_124072" data-name="Trazado 124072" d="M65.032,42.643V48H57.29l-.108.17a10.133,10.133,0,0,0-5.7-1.719H49.548l5.326-6.844,4.413-5.683a9.326,9.326,0,0,1,2.957,2,9.505,9.505,0,0,1,2.787,6.72Z" fill="#fcd770"/>
        </g>
        <g id="Grupo_176097" data-name="Grupo 176097">
          <path id="Trazado_124073" data-name="Trazado 124073" d="M54.875,39.608l-5.326,6.844-5.326-6.844,5.326-3.995Z" fill="#a0d468"/>
        </g>
        <g id="Grupo_176098" data-name="Grupo 176098">
          <path id="Trazado_124074" data-name="Trazado 124074" d="M59.288,33.925l-4.413,5.683-5.326-3.995,4.645-3.1,3.639.914A9.479,9.479,0,0,1,59.288,33.925Z" fill="#a0d468"/>
        </g>
        <g id="Grupo_176099" data-name="Grupo 176099">
          <path id="Trazado_124075" data-name="Trazado 124075" d="M49.548,35.613l-5.326,3.995-4.413-5.683a9.479,9.479,0,0,1,1.455-.5l3.639-.914Z" fill="#a0d468"/>
        </g>
        <g id="Grupo_176100" data-name="Grupo 176100">
          <path id="Trazado_124076" data-name="Trazado 124076" d="M30.364,17.311a11.953,11.953,0,0,1-3.1,4.862l-1.1,1.053a7.3,7.3,0,0,0,.155-1.548v-3.1a3.106,3.106,0,0,0-3.1-3.1H18.581a3.094,3.094,0,0,1-3.066-2.71,6.185,6.185,0,0,0-3.577,2.477l-2.57-1.285a5.671,5.671,0,0,1-1.8-1.394A5.744,5.744,0,0,1,11.938,3.1h8.578A10.467,10.467,0,0,1,30.968,13.548a11.89,11.89,0,0,1-.6,3.763Z" fill="#656d78"/>
        </g>
        <g id="Grupo_176101" data-name="Grupo 176101">
          <path id="Trazado_124077" data-name="Trazado 124077" d="M40.862,22.173a11.826,11.826,0,0,1-3.7-8.625V12.387a9.3,9.3,0,0,1,9.29-9.29H57.29a4.639,4.639,0,0,1,4.645,4.645v5.806a11.826,11.826,0,0,1-3.7,8.625l-1.1,1.053a7.3,7.3,0,0,0,.155-1.548v-3.1a3.106,3.106,0,0,0-3.1-3.1H49.548a3.094,3.094,0,0,1-3.066-2.71,6.176,6.176,0,0,0-4.676,5.992v2.911a7.3,7.3,0,0,0,.155,1.548Z" fill="#656d78"/>
        </g>
        <g id="Grupo_176102" data-name="Grupo 176102">
          <path id="Trazado_124078" data-name="Trazado 124078" d="M92.3,60.666a11.953,11.953,0,0,1-3.1,4.862l-1.1,1.053a7.3,7.3,0,0,0,.155-1.548V61.517a3.112,3.112,0,0,0-2.663-3.066l-3.577-.511A5.289,5.289,0,0,1,78.5,55.85l-.015.015-1.022.248a6.208,6.208,0,0,0-4.692,6.008v2.911a7.3,7.3,0,0,0,.155,1.548l-1.1-1.053a11.826,11.826,0,0,1-3.7-8.625V55.742a9.283,9.283,0,0,1,9.29-9.29H88.258A4.662,4.662,0,0,1,92.9,51.1V56.9A11.89,11.89,0,0,1,92.3,60.666Z" fill="#656d78"/>
        </g>
        <g id="Grupo_176103" data-name="Grupo 176103">
          <path id="Trazado_124079" data-name="Trazado 124079" d="M96,86V96H80.516V89.806l5.326-6.844,4.413-5.683a9.326,9.326,0,0,1,2.957,2A9.5,9.5,0,0,1,96,86Z" fill="#fcd770"/>
        </g>
        <g id="Grupo_176104" data-name="Grupo 176104">
          <path id="Trazado_124080" data-name="Trazado 124080" d="M80.516,89.806V96H65.032V86a9.505,9.505,0,0,1,2.787-6.72,9.326,9.326,0,0,1,2.957-2l4.413,5.683Z" fill="#fcd770"/>
        </g>
        <g id="Grupo_176105" data-name="Grupo 176105">
          <path id="Trazado_124081" data-name="Trazado 124081" d="M85.843,82.963l-5.326,6.844L75.19,82.963l5.326-3.995Z" fill="#b4dd7f"/>
        </g>
        <g id="Grupo_176106" data-name="Grupo 176106">
          <path id="Trazado_124082" data-name="Trazado 124082" d="M90.255,77.28l-4.413,5.683-5.326-3.995,4.645-3.1,3.639.914A9.478,9.478,0,0,1,90.255,77.28Z" fill="#a0d468"/>
        </g>
        <g id="Grupo_176107" data-name="Grupo 176107">
          <path id="Trazado_124083" data-name="Trazado 124083" d="M80.516,78.968,75.19,82.963,70.777,77.28a9.477,9.477,0,0,1,1.455-.5l3.639-.914Z" fill="#a0d468"/>
        </g>
        <g id="Grupo_176108" data-name="Grupo 176108">
          <path id="Trazado_124084" data-name="Trazado 124084" d="M65.032,86V96H49.548V89.806l5.326-6.844,4.413-5.683a9.326,9.326,0,0,1,2.957,2A9.5,9.5,0,0,1,65.032,86Z" fill="#e6e9ed"/>
        </g>
        <g id="Grupo_176109" data-name="Grupo 176109">
          <path id="Trazado_124085" data-name="Trazado 124085" d="M49.548,89.806V96H34.065V86a9.505,9.505,0,0,1,2.787-6.72,9.326,9.326,0,0,1,2.957-2l4.413,5.683Z" fill="#e6e9ed"/>
        </g>
        <g id="Grupo_176110" data-name="Grupo 176110">
          <path id="Trazado_124086" data-name="Trazado 124086" d="M54.875,82.963l-5.326,6.844-5.326-6.844,5.326-3.995Z" fill="#ff826e"/>
        </g>
        <g id="Grupo_176111" data-name="Grupo 176111">
          <path id="Trazado_124087" data-name="Trazado 124087" d="M59.288,77.28l-4.413,5.683-5.326-3.995,4.645-3.1,3.639.914A9.478,9.478,0,0,1,59.288,77.28Z" fill="#fc6e51"/>
        </g>
        <g id="Grupo_176112" data-name="Grupo 176112">
          <path id="Trazado_124088" data-name="Trazado 124088" d="M49.548,78.968l-5.326,3.995L39.809,77.28a9.477,9.477,0,0,1,1.455-.5l3.639-.914Z" fill="#fc6e51"/>
        </g>
        <g id="Grupo_176113" data-name="Grupo 176113">
          <path id="Trazado_124089" data-name="Trazado 124089" d="M40.862,65.528a11.826,11.826,0,0,1-3.7-8.625V55.742a9.3,9.3,0,0,1,9.29-9.29h5.032a10.133,10.133,0,0,1,5.7,1.719,8.838,8.838,0,0,1,1.688,1.347A10.4,10.4,0,0,1,61.935,56.9a11.826,11.826,0,0,1-3.7,8.625l-1.1,1.053a7.3,7.3,0,0,0,.155-1.548V61.5a1.569,1.569,0,0,0-1.053-1.471,15.994,15.994,0,0,1-6.271-3.871l-.418-.418-.418.418a15.994,15.994,0,0,1-6.271,3.871A1.569,1.569,0,0,0,41.806,61.5v3.53a7.3,7.3,0,0,0,.155,1.548Z" fill="#fcd770"/>
        </g>
        <g id="Grupo_176114" data-name="Grupo 176114">
          <path id="Trazado_124090" data-name="Trazado 124090" d="M93.677,29.373l-.774,6.24-.015.015a9.262,9.262,0,0,0-2.632-1.7,9.479,9.479,0,0,0-1.455-.5l-.929-.232a4.654,4.654,0,0,1-3.391-3.391l-.325-1.3A7.521,7.521,0,0,0,86,27.159a7.775,7.775,0,0,0,2.261-5.481V18.163A3.112,3.112,0,0,0,85.595,15.1l-3.577-.511A5.289,5.289,0,0,1,78.5,12.5l-.015.015-1.022.248a6.208,6.208,0,0,0-4.692,6.008v2.911a7.722,7.722,0,0,0,4.1,6.828l-.325,1.3A4.654,4.654,0,0,1,73.161,33.2l-.929.232a9.479,9.479,0,0,0-1.455.5,9.262,9.262,0,0,0-2.632,1.7l-.015-.015-.774-6.24a99.654,99.654,0,0,1-.774-12.341,13.935,13.935,0,0,1,27.871,0,99.652,99.652,0,0,1-.774,12.341Z" fill="#b27946"/>
        </g>
        <g id="Grupo_176115" data-name="Grupo 176115">
          <path id="Trazado_124091" data-name="Trazado 124091" d="M96,44.9V48H91.711a4.553,4.553,0,0,0-3.453-1.548H80.516l6.023-7.742,3.716-4.785a9.262,9.262,0,0,1,2.632,1.7c.108.093.217.186.325.294A9.505,9.505,0,0,1,96,42.643Z" fill="#ff826e"/>
        </g>
        <g id="Grupo_176116" data-name="Grupo 176116">
          <path id="Trazado_124092" data-name="Trazado 124092" d="M74.493,38.71l6.023,7.742h-3.1A9.268,9.268,0,0,0,72.279,48H65.032V42.643a9.505,9.505,0,0,1,2.787-6.72c.108-.108.217-.2.325-.294a9.262,9.262,0,0,1,2.632-1.7Z" fill="#ff826e"/>
        </g>
        <g id="Grupo_176117" data-name="Grupo 176117">
          <path id="Trazado_124093" data-name="Trazado 124093" d="M30.364,60.666a11.953,11.953,0,0,1-3.1,4.862l-1.1,1.053a7.3,7.3,0,0,0,.155-1.548V61.254a3.084,3.084,0,0,0-2.338-3l-.341-.077a3.8,3.8,0,0,1-1.006-.4v.015a5.224,5.224,0,0,1-3.143,1.053h-.914a4.625,4.625,0,0,1-4.057-2.385,6.212,6.212,0,0,0-3.685,5.667v2.911a7.3,7.3,0,0,0,.155,1.548l-1.1-1.053c-.077-.077-.17-.155-.248-.248v-.015a12.086,12.086,0,0,1-2.849-4.6,11.89,11.89,0,0,1-.6-3.763V55.742a9.283,9.283,0,0,1,3.685-7.4,9.159,9.159,0,0,1,5.605-1.889h5.032a10.3,10.3,0,0,1,4.258.914A10.462,10.462,0,0,1,30.968,56.9a11.89,11.89,0,0,1-.6,3.763Z" fill="#656d78"/>
        </g>
        <g id="Grupo_176118" data-name="Grupo 176118">
          <path id="Trazado_124094" data-name="Trazado 124094" d="M9.894,65.528l1.1,1.053A7.75,7.75,0,0,0,13.1,70.514a7.521,7.521,0,0,0,1.843,1.347l-.325,1.3a4.654,4.654,0,0,1-3.391,3.391l-.929.232A9.643,9.643,0,0,0,6.89,78.41v-.015l-.743-.5A6.85,6.85,0,0,1,8.609,65.481l1.022-.2h.015C9.724,65.373,9.817,65.45,9.894,65.528Z" fill="#656d78"/>
        </g>
        <g id="Grupo_176119" data-name="Grupo 176119">
          <path id="Trazado_124095" data-name="Trazado 124095" d="M12.945,85.161,18.581,96H3.1V86a9.505,9.505,0,0,1,2.787-6.72L6.89,78.41a9.42,9.42,0,0,1,1.951-1.13Z" fill="#b4dd7f"/>
        </g>
        <g id="Grupo_176120" data-name="Grupo 176120">
          <path id="Trazado_124096" data-name="Trazado 124096" d="M34.065,86V96H18.581l5.636-10.839,4.1-7.881a9.326,9.326,0,0,1,2.957,2A9.505,9.505,0,0,1,34.065,86Z" fill="#b4dd7f"/>
        </g>
        <g id="Grupo_176121" data-name="Grupo 176121">
          <path id="Trazado_124097" data-name="Trazado 124097" d="M86.539,38.71l-6.023,7.742L74.493,38.71Z" fill="#ffeaa7"/>
        </g>
        <g id="Grupo_176122" data-name="Grupo 176122">
          <path id="Trazado_124098" data-name="Trazado 124098" d="M24.217,85.161,18.581,96,12.945,85.161Z" fill="#ffeaa7"/>
        </g>
        <g id="Grupo_176123" data-name="Grupo 176123">
          <path id="Trazado_124099" data-name="Trazado 124099" d="M28.32,77.28l-4.1,7.881H12.945l-4.1-7.881a9.477,9.477,0,0,1,1.455-.5l.929-.232a4.654,4.654,0,0,0,3.391-3.391l.325-1.3a7.7,7.7,0,0,0,7.277,0l.325,1.3a4.654,4.654,0,0,0,3.391,3.391l.929.232A9.478,9.478,0,0,1,28.32,77.28Z" fill="#f0d0b4"/>
        </g>
        <g id="Grupo_176124" data-name="Grupo 176124">
          <path id="Trazado_124100" data-name="Trazado 124100" d="M23.985,58.25a3.084,3.084,0,0,1,2.338,3v3.778a7.3,7.3,0,0,1-.155,1.548,7.715,7.715,0,0,1-3.948,5.28,7.7,7.7,0,0,1-7.277,0A7.521,7.521,0,0,1,13.1,70.514a7.75,7.75,0,0,1-2.106-3.933,7.3,7.3,0,0,1-.155-1.548V62.121a6.212,6.212,0,0,1,3.685-5.667,4.625,4.625,0,0,0,4.057,2.385h.914a5.224,5.224,0,0,0,3.143-1.053V57.77a3.8,3.8,0,0,0,1.006.4Z" fill="#f0d0b4"/>
        </g>
        <g id="Grupo_176125" data-name="Grupo 176125">
          <path id="Trazado_124101" data-name="Trazado 124101" d="M49.548,72.774a7.6,7.6,0,0,0,3.639-.914l1.006,4.01-4.645,3.1-4.645-3.1,1.006-4.01Z" fill="#f0d0b4"/>
        </g>
        <g id="Grupo_176126" data-name="Grupo 176126">
          <path id="Trazado_124102" data-name="Trazado 124102" d="M57.29,61.5v3.53a7.3,7.3,0,0,1-.155,1.548,7.715,7.715,0,0,1-3.948,5.28,7.6,7.6,0,0,1-3.639.914l-3.639-.914a7.521,7.521,0,0,1-1.843-1.347,7.75,7.75,0,0,1-2.106-3.933,7.3,7.3,0,0,1-.155-1.548V61.5a1.569,1.569,0,0,1,1.053-1.471A15.994,15.994,0,0,0,49.13,56.16l.418-.418.418.418a15.994,15.994,0,0,0,6.271,3.871A1.569,1.569,0,0,1,57.29,61.5Z" fill="#f0d0b4"/>
        </g>
        <g id="Grupo_176127" data-name="Grupo 176127">
          <path id="Trazado_124103" data-name="Trazado 124103" d="M80.516,72.774l3.639-.914,1.006,4.01-4.645,3.1-4.645-3.1,1.006-4.01A7.6,7.6,0,0,0,80.516,72.774Z" fill="#f0d0b4"/>
        </g>
        <g id="Grupo_176128" data-name="Grupo 176128">
          <path id="Trazado_124104" data-name="Trazado 124104" d="M78.5,55.85a5.289,5.289,0,0,0,3.515,2.09l3.577.511a3.112,3.112,0,0,1,2.663,3.066v3.515a7.3,7.3,0,0,1-.155,1.548A7.75,7.75,0,0,1,86,70.514a7.521,7.521,0,0,1-1.843,1.347l-3.639.914a7.6,7.6,0,0,1-3.639-.914,7.715,7.715,0,0,1-3.948-5.28,7.3,7.3,0,0,1-.155-1.548V62.121a6.208,6.208,0,0,1,4.692-6.008l1.022-.248Z" fill="#f0d0b4"/>
        </g>
        <g id="Grupo_176129" data-name="Grupo 176129">
          <path id="Trazado_124105" data-name="Trazado 124105" d="M90.255,33.925,86.539,38.71H74.493l-3.716-4.785a9.479,9.479,0,0,1,1.455-.5l.929-.232a4.654,4.654,0,0,0,3.391-3.391l.325-1.3a7.7,7.7,0,0,0,7.277,0l.325,1.3A4.654,4.654,0,0,0,87.871,33.2l.929.232a9.479,9.479,0,0,1,1.455.5Z" fill="#f0d0b4"/>
        </g>
        <g id="Grupo_176130" data-name="Grupo 176130">
          <path id="Trazado_124106" data-name="Trazado 124106" d="M78.5,12.5a5.289,5.289,0,0,0,3.515,2.09l3.577.511a3.112,3.112,0,0,1,2.663,3.066v3.515A7.776,7.776,0,0,1,86,27.159a7.748,7.748,0,0,1-9.12,1.347,7.722,7.722,0,0,1-4.1-6.828V18.766a6.208,6.208,0,0,1,4.692-6.008l1.022-.248Z" fill="#f0d0b4"/>
        </g>
        <g id="Grupo_176131" data-name="Grupo 176131">
          <path id="Trazado_124107" data-name="Trazado 124107" d="M49.548,29.419l3.639-.914,1.006,4.01-4.645,3.1-4.645-3.1,1.006-4.01A7.6,7.6,0,0,0,49.548,29.419Z" fill="#f0d0b4"/>
        </g>
        <g id="Grupo_176132" data-name="Grupo 176132">
          <path id="Trazado_124108" data-name="Trazado 124108" d="M57.29,18.581v3.1a7.3,7.3,0,0,1-.155,1.548,7.75,7.75,0,0,1-2.106,3.933,7.521,7.521,0,0,1-1.843,1.347l-3.639.914a7.6,7.6,0,0,1-3.639-.914,7.715,7.715,0,0,1-3.948-5.28,7.3,7.3,0,0,1-.155-1.548V18.766a6.176,6.176,0,0,1,4.676-5.992,3.094,3.094,0,0,0,3.066,2.71h4.645a3.106,3.106,0,0,1,3.1,3.1Z" fill="#f0d0b4"/>
        </g>
        <g id="Grupo_176133" data-name="Grupo 176133">
          <path id="Trazado_124109" data-name="Trazado 124109" d="M18.581,29.419l3.639-.914,1.006,4.01-4.645,3.1-4.645-3.1,1.006-4.01A7.6,7.6,0,0,0,18.581,29.419Z" fill="#f0d0b4"/>
        </g>
        <g id="Grupo_176134" data-name="Grupo 176134">
          <path id="Trazado_124110" data-name="Trazado 124110" d="M26.323,18.581v3.1a7.3,7.3,0,0,1-.155,1.548,7.75,7.75,0,0,1-2.106,3.933,7.521,7.521,0,0,1-1.843,1.347l-3.639.914a7.6,7.6,0,0,1-3.639-.914,7.722,7.722,0,0,1-4.1-6.828V18.766a6.184,6.184,0,0,1,4.676-5.992,3.094,3.094,0,0,0,3.066,2.71h4.645a3.106,3.106,0,0,1,3.1,3.1Z" fill="#f0d0b4"/>
        </g>
      </g>
      <path id="Trazado_124111" data-name="Trazado 124111" d="M97.548,48V42.647a10.966,10.966,0,0,0-3.018-7.573l.689-5.511A101.632,101.632,0,0,0,96,17.032a15.484,15.484,0,0,0-30.968,0,101.632,101.632,0,0,0,.78,12.531l.689,5.511a11.162,11.162,0,0,0-1.469,1.948,10.965,10.965,0,0,0-6.824-5.1l-2.739-.684-.506-2.028a9.3,9.3,0,0,0,3.558-5.167l.787-.749a13.457,13.457,0,0,0,4.176-9.744V7.742A6.2,6.2,0,0,0,57.29,1.548H46.452A10.853,10.853,0,0,0,35.613,12.387v1.164a13.457,13.457,0,0,0,4.174,9.742l.788.751a9.307,9.307,0,0,0,3.558,5.167l-.506,2.028-2.739.684a10.965,10.965,0,0,0-6.824,5.1,10.965,10.965,0,0,0-6.824-5.1L24.5,31.24,24,29.212a9.3,9.3,0,0,0,3.558-5.167l.787-.749a13.457,13.457,0,0,0,4.176-9.744,12.018,12.018,0,0,0-12-12H11.935A7.288,7.288,0,0,0,5.666,12.556a7,7,0,0,0,3.7,10.258,9.282,9.282,0,0,0,3.8,6.4l-.506,2.028-2.739.684A11.054,11.054,0,0,0,1.548,42.647V48h3.1V42.647A7.837,7.837,0,0,1,8.412,35.9l7,9.007A10.851,10.851,0,0,0,4.645,55.742v1.164a13.261,13.261,0,0,0,2.276,7.46,8.4,8.4,0,0,0-2.47,14.188A10.967,10.967,0,0,0,1.548,86V97.548h96V86a11.051,11.051,0,0,0-8.372-10.723L86.437,74.6l-.506-2.028A9.3,9.3,0,0,0,89.489,67.4l.787-.749a13.457,13.457,0,0,0,4.176-9.744V51.1A6.2,6.2,0,0,0,88.258,44.9H83.683l7-9a7.833,7.833,0,0,1,3.766,6.746V48ZM77.659,40.258h5.712l-2.855,3.671Zm-2.408-3.1-1.884-2.423.177-.045a6.166,6.166,0,0,0,4.376-4.1,9.135,9.135,0,0,0,5.195,0,6.166,6.166,0,0,0,4.374,4.1l.178.045-1.886,2.422Zm5.265-9.29a6.2,6.2,0,0,1-6.194-6.194V18.771a4.639,4.639,0,0,1,3.516-4.506l.13-.033A6.872,6.872,0,0,0,81.8,16.126l3.581.513a1.551,1.551,0,0,1,1.33,1.53v3.509A6.2,6.2,0,0,1,80.516,27.871Zm0-23.226A12.4,12.4,0,0,1,92.9,17.032a98.44,98.44,0,0,1-.756,12.147L91.682,32.9a10.994,10.994,0,0,0-2.5-.979l-.937-.234a3.093,3.093,0,0,1-2.253-2.253l-.056-.226a9.283,9.283,0,0,0,3.874-7.536V18.169a4.668,4.668,0,0,0-3.987-4.6l-3.581-.513a3.822,3.822,0,0,1-3.27-3.767V7.742h-3.1V9.29a6.823,6.823,0,0,0,.375,2.231,7.734,7.734,0,0,0-5.02,7.25v2.906A9.275,9.275,0,0,0,75.1,29.212l-.056.226a3.093,3.093,0,0,1-2.254,2.253l-.935.234a10.978,10.978,0,0,0-2.505.979l-.466-3.725a98.394,98.394,0,0,1-.756-12.146A12.4,12.4,0,0,1,80.516,4.645Zm-17.032,38V48h3.1V42.647A7.837,7.837,0,0,1,70.348,35.9l7,9.007A10.851,10.851,0,0,0,66.581,55.742v1.164a13.457,13.457,0,0,0,4.174,9.742l.788.751A9.307,9.307,0,0,0,75.1,72.567L74.6,74.6l-2.739.684a10.965,10.965,0,0,0-6.824,5.1,10.965,10.965,0,0,0-6.824-5.1L55.469,74.6l-.506-2.028A9.3,9.3,0,0,0,58.521,67.4l.787-.749a13.457,13.457,0,0,0,4.176-9.744A12.018,12.018,0,0,0,52.668,44.964l7.05-9.063a7.833,7.833,0,0,1,3.766,6.746ZM80.516,80.9l3.135,2.35-3.135,4.03-3.135-4.03ZM14.143,58.5a6.171,6.171,0,0,0,4.438,1.887h.907a6.876,6.876,0,0,0,3.317-.875c.158.053.308.119.471.161l.325.081a1.549,1.549,0,0,1,1.174,1.5v3.775a6.194,6.194,0,1,1-12.387,0V62.126A4.639,4.639,0,0,1,14.143,58.5Zm1.839,15.447a9.159,9.159,0,0,0,5.2,0,6.166,6.166,0,0,0,4.374,4.1l.554.139-2.824,5.424h-9.4l-2.824-5.426.553-.139a6.164,6.164,0,0,0,4.376-4.1ZM21.671,86.71l-3.091,5.938L15.49,86.71Zm7.3-7.31a8.007,8.007,0,0,1,1.219.977A7.9,7.9,0,0,1,32.516,86v8.45H21.132ZM35.613,86a7.837,7.837,0,0,1,3.767-6.748L48,90.338v4.114H35.613Zm6.763-27.437A3.094,3.094,0,0,0,40.258,61.5v.835a10.221,10.221,0,0,1-1.548-5.432V55.742A7.751,7.751,0,0,1,46.452,48h5.029a8.916,8.916,0,0,1,8.906,8.906,10.221,10.221,0,0,1-1.548,5.432V61.5a3.089,3.089,0,0,0-2.117-2.936,14.539,14.539,0,0,1-5.655-3.5l-1.519-1.519L48.031,55.07a14.54,14.54,0,0,1-5.655,3.495Zm7.172-21.016,3.135,2.35-3.135,4.03L46.413,39.9ZM43.355,61.5A17.637,17.637,0,0,0,49.548,57.9,17.66,17.66,0,0,0,55.742,61.5v3.529a6.194,6.194,0,0,1-12.387,0Zm6.194,25.781-3.135-4.03,3.135-2.35,3.135,2.35Zm5.035-6.474-2.357-1.768,2.256-1.5,2.216.554Zm-5.035-6.488a9.217,9.217,0,0,0,2.57-.37l.308,1.234-2.878,1.92-2.878-1.92.308-1.234a9.217,9.217,0,0,0,2.57.37Zm-4.935,3.216,2.256,1.5L44.513,80.81,42.4,78.093Zm6.483,12.8,8.62-11.082A7.837,7.837,0,0,1,63.484,86v8.45H51.1ZM66.581,86a7.837,7.837,0,0,1,3.767-6.748l8.62,11.083v4.114H66.581Zm8.9-5.192-2.114-2.717,2.216-.554,2.256,1.5ZM56.7,34.738l-2.114,2.717-2.357-1.768,2.256-1.5ZM39.241,16.826a10.3,10.3,0,0,1-.531-3.275V12.387a7.751,7.751,0,0,1,7.742-7.742H57.29a3.1,3.1,0,0,1,3.1,3.1v5.81a10.221,10.221,0,0,1-1.548,5.432v-.4a4.651,4.651,0,0,0-4.645-4.645H49.548a1.548,1.548,0,0,1,0-3.1H51.1v-3.1H49.548a4.653,4.653,0,0,0-4.586,3.907,7.737,7.737,0,0,0-4.7,7.123v.212A10.327,10.327,0,0,1,39.241,16.826Zm4.114,1.945A4.649,4.649,0,0,1,45.581,14.8a4.649,4.649,0,0,0,3.967,2.23h4.645a1.549,1.549,0,0,1,1.548,1.548v3.1a6.194,6.194,0,1,1-12.387,0Zm6.194,12.2a9.217,9.217,0,0,0,2.57-.37l.308,1.234-2.878,1.92-2.878-1.92.308-1.234a9.217,9.217,0,0,0,2.57.37Zm-4.935,3.216,2.256,1.5-2.357,1.768L42.4,34.738Zm-12.1,8.463V48h3.1V42.647A7.837,7.837,0,0,1,39.38,35.9l7,9.007A10.851,10.851,0,0,0,35.613,55.742v1.164a13.457,13.457,0,0,0,4.174,9.742l.788.751a9.307,9.307,0,0,0,3.558,5.167L43.627,74.6l-2.739.684a10.965,10.965,0,0,0-6.824,5.1,10.966,10.966,0,0,0-6.822-5.1l-.937-.234a3.093,3.093,0,0,1-2.253-2.253L24,72.567A9.307,9.307,0,0,0,27.555,67.4l.787-.749a13.446,13.446,0,0,0,4.174-9.744A12.018,12.018,0,0,0,21.7,44.964L28.75,35.9a7.833,7.833,0,0,1,3.766,6.746Zm-13.935-5.1,3.135,2.35-3.135,4.03L15.445,39.9Zm7.15-2.81-2.114,2.717-2.357-1.768,2.256-1.5ZM11.935,4.645h8.578a8.916,8.916,0,0,1,8.906,8.906,10.221,10.221,0,0,1-1.548,5.432v-.4a4.651,4.651,0,0,0-4.645-4.645H18.581a1.548,1.548,0,1,1,0-3.1h1.548v-3.1H18.581a4.653,4.653,0,0,0-4.586,3.907,7.724,7.724,0,0,0-2.45,1.683l-1.483-.742a4.193,4.193,0,0,1,1.874-7.945ZM7.742,16.2a3.883,3.883,0,0,1,.218-1.259,7.3,7.3,0,0,0,.715.423l1.169.585a7.707,7.707,0,0,0-.554,2.826v.537A3.9,3.9,0,0,1,7.742,16.2Zm4.645,2.575A4.649,4.649,0,0,1,14.614,14.8a4.649,4.649,0,0,0,3.967,2.23h4.645a1.549,1.549,0,0,1,1.548,1.548v3.1a6.194,6.194,0,0,1-12.387,0Zm6.194,12.2a9.217,9.217,0,0,0,2.57-.37l.308,1.234-2.878,1.92L15.7,31.832,16.01,30.6A9.217,9.217,0,0,0,18.581,30.968Zm-4.935,3.216,2.256,1.5-2.358,1.768L11.43,34.738Zm-5.9,21.558A7.751,7.751,0,0,1,15.484,48h5.029a8.916,8.916,0,0,1,8.906,8.906,10.221,10.221,0,0,1-1.548,5.432V61.256a4.641,4.641,0,0,0-3.521-4.507l-.327-.081a3.093,3.093,0,0,1-2.346-3.005V51.1h-3.1v2.566a6.162,6.162,0,0,0,1.174,3.606c-.088.006-.177.022-.266.022h-.907a3.1,3.1,0,0,1-3.1-3.1h-3.1a6.137,6.137,0,0,0,.232,1.59A7.737,7.737,0,0,0,9.29,62.126v.212a10.221,10.221,0,0,1-1.548-5.432ZM8.913,67l.226-.045.471.447a9.307,9.307,0,0,0,3.558,5.167l-.056.226a3.093,3.093,0,0,1-2.254,2.253l-.935.234a10.971,10.971,0,0,0-3,1.26A5.3,5.3,0,0,1,8.913,67ZM4.645,86a7.786,7.786,0,0,1,3.549-6.6l7.835,15.053H4.645Zm89.806,0v8.45H82.065V90.338l8.62-11.082A7.837,7.837,0,0,1,94.452,86Zm-6.785-7.909L85.553,80.81,83.2,79.042l2.256-1.5Zm-4.272-2.9-2.878,1.918-2.878-1.92.308-1.234a9.111,9.111,0,0,0,5.141,0ZM86.71,65.032a6.194,6.194,0,0,1-12.387,0V62.126a4.639,4.639,0,0,1,3.516-4.506l.13-.033A6.872,6.872,0,0,0,81.8,59.481l3.581.513a1.551,1.551,0,0,1,1.33,1.53ZM91.355,51.1v5.81a10.221,10.221,0,0,1-1.548,5.432v-.814a4.668,4.668,0,0,0-3.987-4.6l-3.581-.513a3.822,3.822,0,0,1-3.27-3.767V51.1h-3.1v1.548a6.823,6.823,0,0,0,.375,2.231,7.734,7.734,0,0,0-5.02,7.25v.212a10.221,10.221,0,0,1-1.548-5.432V55.742A7.751,7.751,0,0,1,77.419,48H88.258A3.1,3.1,0,0,1,91.355,51.1Z"/>
    </g>
  </g>
</svg>
