<svg xmlns="http://www.w3.org/2000/svg" xmlns:xlink="http://www.w3.org/1999/xlink" width="96" height="96" viewBox="0 0 96 96">
  <defs>
    <clipPath id="clip-path">
      <rect id="Rectángulo_35494" data-name="Rectángulo 35494" width="96" height="96" transform="translate(3372 -9311)" fill="#fff" stroke="#707070" stroke-width="1"/>
    </clipPath>
  </defs>
  <g id="Enmascarar_grupo_218" data-name="Enmascarar grupo 218" transform="translate(-3372 9311)" clip-path="url(#clip-path)">
    <g id="chocolate-negro" transform="translate(3372 -9311)">
      <g id="Grupo_176152" data-name="Grupo 176152">
        <path id="Trazado_124127" data-name="Trazado 124127" d="M63.793,56.8H17.61a1.875,1.875,0,0,1-1.875-1.875V8.747A1.875,1.875,0,0,1,17.61,6.872H63.793a1.875,1.875,0,0,1,1.875,1.875V54.929A1.875,1.875,0,0,1,63.793,56.8Z" fill="#ba7b62"/>
      </g>
      <g id="Grupo_176153" data-name="Grupo 176153">
        <path id="Trazado_124128" data-name="Trazado 124128" d="M63.8,6.872H53.863V43.13A1.87,1.87,0,0,1,51.993,45H15.735v9.935A1.87,1.87,0,0,0,17.6,56.8H63.8a1.87,1.87,0,0,0,1.87-1.87V8.741a1.87,1.87,0,0,0-1.87-1.87Z" fill="#a76b52"/>
      </g>
      <g id="Grupo_176154" data-name="Grupo 176154">
        <path id="Trazado_124129" data-name="Trazado 124129" d="M72.141,72.92H25.959a1.875,1.875,0,0,1-1.875-1.875V24.862a1.875,1.875,0,0,1,1.875-1.875H72.142a1.875,1.875,0,0,1,1.875,1.875V71.045A1.875,1.875,0,0,1,72.141,72.92Z" fill="#915c44"/>
      </g>
      <g id="Grupo_176155" data-name="Grupo 176155">
        <path id="Trazado_124130" data-name="Trazado 124130" d="M72.147,22.987H62.254v36.3a1.87,1.87,0,0,1-1.87,1.87h-36.3v9.893a1.87,1.87,0,0,0,1.87,1.87H72.147a1.87,1.87,0,0,0,1.87-1.87V24.857a1.87,1.87,0,0,0-1.87-1.87Z" fill="#7c4c37"/>
      </g>
      <g id="Grupo_176156" data-name="Grupo 176156">
        <path id="Trazado_124131" data-name="Trazado 124131" d="M66.743,37.915,84.379,54.831a1.87,1.87,0,0,0,3.02-.63l7.054-16.916A1.87,1.87,0,0,0,92.727,34.7H68.037a1.87,1.87,0,0,0-1.294,3.219Z" fill="#ba7b62"/>
      </g>
      <g id="Grupo_176157" data-name="Grupo 176157">
        <path id="Trazado_124132" data-name="Trazado 124132" d="M92.727,34.7H82.92l-5.58,13.382,7.04,6.752a1.87,1.87,0,0,0,3.02-.63l7.054-16.916A1.87,1.87,0,0,0,92.727,34.7Z" fill="#a76b52"/>
      </g>
      <g id="Grupo_176158" data-name="Grupo 176158">
        <path id="Trazado_124133" data-name="Trazado 124133" d="M18.2,87.954,1.539,46.236a1.87,1.87,0,0,1,2.276-2.484L54.571,59.061a1.869,1.869,0,0,1,1.276,1.346l4.169,17.057a1.87,1.87,0,0,1-1.372,2.26l-38.26,9.352a1.871,1.871,0,0,1-2.18-1.123Z" fill="#a76b52"/>
      </g>
      <g id="Grupo_176159" data-name="Grupo 176159">
        <path id="Trazado_124134" data-name="Trazado 124134" d="M60.016,77.464,55.847,60.407a1.87,1.87,0,0,0-1.276-1.346L42.59,55.447,45.95,69.2a1.87,1.87,0,0,1-1.372,2.26L14.546,78.8,18.2,87.954a1.87,1.87,0,0,0,2.18,1.123l38.26-9.352A1.87,1.87,0,0,0,60.016,77.464Z" fill="#915c44"/>
      </g>
      <path id="Trazado_124135" data-name="Trazado 124135" d="M95.45,34.751a3.266,3.266,0,0,0-2.723-1.457H75.419V24.857a3.276,3.276,0,0,0-3.272-3.272H67.07V8.741A3.276,3.276,0,0,0,63.8,5.469H17.6a3.276,3.276,0,0,0-3.272,3.272V12.9a1.4,1.4,0,0,0,2.8,0V8.741a.468.468,0,0,1,.467-.467H63.8a.468.468,0,0,1,.467.467V21.585H58.294a1.4,1.4,0,1,0,0,2.8H72.147a.468.468,0,0,1,.467.467v8.437H68.037a3.272,3.272,0,0,0-2.265,5.633h0l6.842,6.562V71.051a.468.468,0,0,1-.467.467H60.007l-2.8-11.444a3.266,3.266,0,0,0-.657-1.305h.041A3.276,3.276,0,0,0,59.865,55.5V40.411a3.276,3.276,0,0,0-3.272-3.272H41.507a3.276,3.276,0,0,0-3.272,3.272V52.669L25.486,48.823V24.857a.468.468,0,0,1,.467-.467H51.294a1.4,1.4,0,0,0,0-2.8H25.953a3.276,3.276,0,0,0-3.272,3.272V47.978l-5.544-1.672V19.67a1.4,1.4,0,1,0-2.8,0V45.459L4.221,42.41A3.272,3.272,0,0,0,.237,46.756L16.9,88.474a3.291,3.291,0,0,0,3.047,2.057,3.233,3.233,0,0,0,.769-.093L45,84.5a1.4,1.4,0,1,0-.666-2.724L20.051,87.714a.47.47,0,0,1-.545-.281L2.842,45.716a.467.467,0,0,1,.569-.621l14.14,4.265a3.249,3.249,0,0,0-.414,2.438L20.429,66.52A3.27,3.27,0,0,0,24.337,69l14.722-3.293A3.276,3.276,0,0,0,41.537,61.8l-.121-.539a1.4,1.4,0,1,0-2.737.612l.121.54a.468.468,0,0,1-.354.558L23.724,66.262a.468.468,0,0,1-.558-.354L19.874,51.186a.468.468,0,0,1,.355-.558l.537-.12a1.406,1.406,0,0,0,.278-.094L54.166,60.4a.469.469,0,0,1,.319.336L58.654,77.8a.468.468,0,0,1-.343.565l-7.381,1.8A1.4,1.4,0,1,0,51.6,82.89l7.381-1.8a3.276,3.276,0,0,0,2.4-3.955l-.686-2.809H72.147a3.276,3.276,0,0,0,3.272-3.272V48.18l7.989,7.663a3.272,3.272,0,0,0,5.285-1.1l7.054-16.916a3.264,3.264,0,0,0-.3-3.074Zm-54.41,5.66a.468.468,0,0,1,.467-.467H56.593a.468.468,0,0,1,.467.467V55.5a.468.468,0,0,1-.467.467H49.16L41.04,53.515v-13.1Zm52.119-3.665L86.1,53.661a.467.467,0,0,1-.755.157L67.714,36.9a.467.467,0,0,1,.324-.8h24.69a.467.467,0,0,1,.431.647Z"/>
    </g>
  </g>
</svg>
