<svg xmlns="http://www.w3.org/2000/svg" xmlns:xlink="http://www.w3.org/1999/xlink" width="48" height="48" viewBox="0 0 48 48">
  <defs>
    <clipPath id="clip-path">
      <rect id="Rectángulo_35472" data-name="Rectángulo 35472" width="48" height="48" transform="translate(285 2512)" fill="#fff" stroke="#707070" stroke-width="1"/>
    </clipPath>
  </defs>
  <g id="Enmascarar_grupo_210" data-name="Enmascarar grupo 210" transform="translate(-285 -2512)" clip-path="url(#clip-path)">
    <g id="fumador" transform="translate(285 2512)">
      <g id="Grupo_176062" data-name="Grupo 176062">
        <g id="Grupo_176050" data-name="Grupo 176050">
          <path id="Trazado_123965" data-name="Trazado 123965" d="M17.806,39.484H11.613V38.71A10.837,10.837,0,0,1,22.452,27.871l.039.116a3.23,3.23,0,0,0,3.058,2.206,3.2,3.2,0,0,0,1.881-.612,3.27,3.27,0,0,0,1.177-1.595l.039-.116a10.843,10.843,0,0,1,10.126,6.968H38.71a.776.776,0,0,0-.774.774v3.871H33.29v7.742H17.806Z" fill="#b4dd7f"/>
        </g>
        <g id="Grupo_176051" data-name="Grupo 176051">
          <path id="Trazado_123966" data-name="Trazado 123966" d="M37.935,45.677a1.553,1.553,0,0,0,1.548,1.548H33.29V39.484h4.645a3.1,3.1,0,0,0,3.1,3.1,3.093,3.093,0,0,0-3.1,3.1Z" fill="#f0d0b4"/>
        </g>
        <g id="Grupo_176052" data-name="Grupo 176052">
          <path id="Trazado_123967" data-name="Trazado 123967" d="M47.226,37.935v1.548a3.1,3.1,0,0,1-3.1,3.1h-3.1a3.1,3.1,0,0,1-3.1-3.1V37.935Z" fill="#aab2bd"/>
        </g>
        <g id="Grupo_176053" data-name="Grupo 176053">
          <path id="Trazado_123968" data-name="Trazado 123968" d="M47.226,35.613v2.323h-9.29V35.613a.776.776,0,0,1,.774-.774h7.742A.776.776,0,0,1,47.226,35.613Z" fill="#ccd1d9"/>
        </g>
        <g id="Grupo_176054" data-name="Grupo 176054">
          <path id="Trazado_123969" data-name="Trazado 123969" d="M17.025,13.161a2.3,2.3,0,0,0-1.076.263l-.488-.821a5.2,5.2,0,0,0-1.788-1.788l-.24-.7a5.411,5.411,0,0,1-.271-1.68,4.175,4.175,0,0,1,.79-2.446,4.229,4.229,0,0,1,2.067-1.517l.852-.286A4.109,4.109,0,0,0,18.5,3.174l.325-.325a7.067,7.067,0,0,1,5-2.075,10.654,10.654,0,0,1,3.345.542l.7.232,1.463-.488A5.475,5.475,0,0,1,31.1.774h.317a5.565,5.565,0,0,1,5.35,4.034,5.531,5.531,0,0,0,1.417,2.408L39.77,8.8a4.319,4.319,0,0,1,.534,5.45l-.821,1.231a5.776,5.776,0,0,1-4.537,5.652l-2.137.48a6.82,6.82,0,0,0,.48-2.508v-1.3h.774a2.323,2.323,0,1,0,0-4.645H33.29v-.774a10.829,10.829,0,0,0-5.543-2.965l-.255-.054a7.334,7.334,0,0,1-3,1.448l-3.585.8V10.25a.754.754,0,0,1,.015-.186H20.9l-3.1,1.548v1.548h-.782Z" fill="#b27946"/>
        </g>
        <g id="Grupo_176055" data-name="Grupo 176055">
          <path id="Trazado_123970" data-name="Trazado 123970" d="M15.383,17.125a2.331,2.331,0,0,0,1.641.681h.782v.387l3.871.387v3.1l-3.205.356-3.763.418-.225.666a2.347,2.347,0,0,1-.883,1.2,2.435,2.435,0,0,1-1.417.457,2.376,2.376,0,0,1-1.084-.255L10.065,24l-.6.6a3.238,3.238,0,0,1-5.435-1.5l-.163-.643-1.44-.72a3,3,0,0,1-.782-4.8l.674-.674.023-.093A4,4,0,0,1,3.755,14a3.954,3.954,0,0,1,2.439-.836l.1-.209a5.236,5.236,0,0,1,9.166-.348l.488.821a2.322,2.322,0,0,0-.565,3.7Z" fill="#ccd1d9"/>
        </g>
        <g id="Grupo_176056" data-name="Grupo 176056">
          <path id="Trazado_123971" data-name="Trazado 123971" d="M47.226,45.677a1.56,1.56,0,0,1-1.548,1.548H39.484a1.553,1.553,0,0,1-1.548-1.548,3.093,3.093,0,0,1,3.1-3.1h3.1A3.1,3.1,0,0,1,47.226,45.677Z" fill="#f0d0b4"/>
        </g>
        <g id="Grupo_176057" data-name="Grupo 176057">
          <path id="Trazado_123972" data-name="Trazado 123972" d="M13.161,39.484h4.645v7.742H13.161Z" fill="#f0d0b4"/>
        </g>
        <g id="Grupo_176058" data-name="Grupo 176058">
          <path id="Trazado_123973" data-name="Trazado 123973" d="M34.065,13.161a2.323,2.323,0,0,1,0,4.645H33.29V13.161Z" fill="#f0d0b4"/>
        </g>
        <g id="Grupo_176059" data-name="Grupo 176059">
          <path id="Trazado_123974" data-name="Trazado 123974" d="M33.29,13.161v5.946a6.82,6.82,0,0,1-.48,2.508,6.9,6.9,0,0,1-.805,1.463,6.782,6.782,0,0,1-3.36,2.47v2.323l-.039.116a3.27,3.27,0,0,1-1.177,1.595,3.2,3.2,0,0,1-1.881.612,3.23,3.23,0,0,1-3.058-2.206l-.039-.116V25.548a6.781,6.781,0,0,1-3.979-3.515l3.205-.356v-3.1l-3.871-.387V11.613l3.1-1.548h.015a.754.754,0,0,0-.015.186v1.363l3.585-.8a7.334,7.334,0,0,0,3-1.448l.255.054a10.829,10.829,0,0,1,5.543,2.965Z" fill="#f0d0b4"/>
        </g>
        <g id="Grupo_176060" data-name="Grupo 176060">
          <path id="Trazado_123975" data-name="Trazado 123975" d="M17.806,13.161v4.645h-.782a2.323,2.323,0,0,1-1.076-4.382,2.3,2.3,0,0,1,1.076-.263H17.8Z" fill="#f0d0b4"/>
        </g>
        <g id="Grupo_176061" data-name="Grupo 176061">
          <path id="Trazado_123976" data-name="Trazado 123976" d="M27.1,18.581v3.1l-1.316.658a1.077,1.077,0,0,1-.488.116h-.2a1.095,1.095,0,0,1-.774-1.866l.457-.457-.457-.457a1.095,1.095,0,0,1,.774-1.866h.2a1.077,1.077,0,0,1,.488.116Z" fill="#ff826e"/>
        </g>
      </g>
      <g id="Grupo_176063" data-name="Grupo 176063">
        <path id="Trazado_123977" data-name="Trazado 123977" d="M23.773,14.483l-1.095-1.095-.227.227a1.12,1.12,0,0,1-1.548,0l-.227-.227-1.095,1.095.226.227a2.644,2.644,0,0,0,3.739,0Z"/>
        <path id="Trazado_123978" data-name="Trazado 123978" d="M28.645,15.484a2.623,2.623,0,0,0,1.869-.774l.227-.227-1.095-1.095-.227.227a1.12,1.12,0,0,1-1.548,0l-.227-.227-1.095,1.095.226.227A2.626,2.626,0,0,0,28.645,15.484Z"/>
        <path id="Trazado_123979" data-name="Trazado 123979" d="M23.686,20.129a1.869,1.869,0,0,0,1.409,3.1h.2a1.871,1.871,0,0,0,.836-.2l1.317-.659-.693-1.385-1.318.66a.321.321,0,0,1-.142.033h-.2a.321.321,0,0,1-.227-.547l1-1-1-1a.32.32,0,0,1,.227-.547h.2a.323.323,0,0,1,.144.034l1.317.659.693-1.385-1.316-.658a1.872,1.872,0,0,0-.838-.2h-.2a1.869,1.869,0,0,0-1.409,3.1Z"/>
        <path id="Trazado_123980" data-name="Trazado 123980" d="M7.742,17.032V15.484a3.1,3.1,0,0,0-3.1,3.1H6.194A1.55,1.55,0,0,1,7.742,17.032Z"/>
        <path id="Trazado_123981" data-name="Trazado 123981" d="M9.29,19.809a1.12,1.12,0,0,1-1.548,0l-.227-.227L6.42,20.676l.226.227a2.644,2.644,0,0,0,3.739,0l.227-.227L9.517,19.582Z"/>
        <path id="Trazado_123982" data-name="Trazado 123982" d="M46.452,34.065H39.283a11.69,11.69,0,0,0-9.864-6.941V26.084a7.552,7.552,0,0,0,3.941-3.8l1.757-.39a6.525,6.525,0,0,0,5.137-6.169l.7-1.046a5.091,5.091,0,0,0-.636-6.425L38.727,6.666A4.8,4.8,0,0,1,37.51,4.6,6.361,6.361,0,0,0,31.418,0H31.1a6.337,6.337,0,0,0-2,.325L27.871.732l-.45-.149A11.3,11.3,0,0,0,23.832,0a7.794,7.794,0,0,0-5.548,2.3l-.329.329a3.43,3.43,0,0,1-1.329.822l-.855.285a4.94,4.94,0,0,0-3.383,4.694,6.158,6.158,0,0,0,.1,1.061,5.979,5.979,0,0,0-6.779,2.923A4.732,4.732,0,0,0,1.626,15.86l-.52.52a3.774,3.774,0,0,0,.981,6.044l1.119.56.074.3a4.014,4.014,0,0,0,6.732,1.864l.205-.205.537.269a3.2,3.2,0,0,0,4.469-1.851l.064-.193,2.749-.305a7.623,7.623,0,0,0,3.64,3.223v1.039A11.627,11.627,0,0,0,10.839,38.71v1.548h1.548V48h33.29A2.325,2.325,0,0,0,48,45.677a3.857,3.857,0,0,0-1.572-3.1A3.857,3.857,0,0,0,48,39.484V35.613a1.55,1.55,0,0,0-1.548-1.548Zm0,3.1H38.71V35.613h7.742ZM37.3,46.452H34.065V40.258h3.175a3.867,3.867,0,0,0,1.494,2.323,3.857,3.857,0,0,0-1.572,3.1A2.3,2.3,0,0,0,37.3,46.452Zm-3.239-32.2v-.321a1.548,1.548,0,1,1,0,3.1Zm-19.9-4.392a4.533,4.533,0,0,1-.233-1.436A3.4,3.4,0,0,1,16.26,5.2l.856-.286a4.974,4.974,0,0,0,1.934-1.2l.329-.329a6.255,6.255,0,0,1,4.452-1.844,9.785,9.785,0,0,1,3.1.5l.939.313,1.711-.571A4.765,4.765,0,0,1,31.1,1.548h.322a4.808,4.808,0,0,1,4.6,3.471,6.342,6.342,0,0,0,1.612,2.74l1.587,1.587a3.547,3.547,0,0,1,.442,4.473l-.953,1.429v.235a4.986,4.986,0,0,1-3.928,4.9l-.879.2a7.536,7.536,0,0,0,.162-1.472v-.523a3.1,3.1,0,1,0,0-6.194v-2.14a3.557,3.557,0,0,0-1.977-3.2L31.4,8.434a2.017,2.017,0,0,1,1.121,1.813V10.7a11.563,11.563,0,0,0-3.5-1.752,8.106,8.106,0,0,0,1.093-1.636l-1.385-.693a6.47,6.47,0,0,1-4.4,3.437l-2.646.589v-.4A2.017,2.017,0,0,1,22.8,8.434L22.1,7.049a3.549,3.549,0,0,0-1.9,2.5l-1.624.813v-.113A2.017,2.017,0,0,1,19.7,8.434l-.693-1.385a3.559,3.559,0,0,0-1.976,3.2v2.14h-.005a3.042,3.042,0,0,0-.736.1l-.168-.279a5.982,5.982,0,0,0-1.8-1.875Zm2.864,7.168h-.005a1.548,1.548,0,1,1,0-3.1h.005Zm2.724,5.638,2.006-.223-.171-1.539-7.46.829-.377,1.133a1.653,1.653,0,0,1-2.308.955l-1.534-.767-.995.994a2.465,2.465,0,0,1-4.134-1.144l-.247-.989L2.779,21.04A2.226,2.226,0,0,1,2.2,17.475l.821-.821.075-.3a3.186,3.186,0,0,1,3.1-2.418h.478l.317-.633a4.431,4.431,0,0,1,3.986-2.463A4.478,4.478,0,0,1,14.795,13l.132.219a3.07,3.07,0,0,0-.759,3.448,3.018,3.018,0,0,0-4.534-.3l-.115.115,1.093,1.1.116-.115a1.486,1.486,0,0,1,1.044-.433,1.466,1.466,0,0,1,1.32.816l.343.687,8.166.816.154-1.541-3.174-.317v-5.4l1.548-.774v1.261l4.53-1.007A8.033,8.033,0,0,0,27.671,10.2a10.035,10.035,0,0,1,4.844,2.526V19.1a6.012,6.012,0,0,1-4.116,5.71l-.529.176v2.755a2.448,2.448,0,0,1-4.645,0h0V24.991l-.53-.177a6.063,6.063,0,0,1-2.94-2.145Zm2.185,6a3.98,3.98,0,0,0,7.216-.005,10.132,10.132,0,0,1,8.589,5.745,1.541,1.541,0,0,0-.585,1.2v3.1h-3.1v-3.55a3.4,3.4,0,0,0-1-2.416l-1.1,1.095a1.858,1.858,0,0,1,.547,1.322v2H27.871V38.71h4.645v7.742H18.581V35.159a1.854,1.854,0,0,1,.548-1.322l-1.1-1.095a3.394,3.394,0,0,0-1,2.416v3.55H12.387a10.068,10.068,0,0,1,9.554-10.039ZM13.935,40.258h3.1v6.194h-3.1Zm32.516,5.419a.775.775,0,0,1-.774.774H39.484a.775.775,0,0,1-.774-.774,2.325,2.325,0,0,1,2.323-2.323h3.1A2.325,2.325,0,0,1,46.452,45.677Zm-2.323-3.871h-3.1a2.325,2.325,0,0,1-2.323-2.323V38.71h7.742v.774A2.325,2.325,0,0,1,44.129,41.806Z"/>
        <path id="Trazado_123983" data-name="Trazado 123983" d="M40.659,30.471l.108-.053a1.881,1.881,0,0,0-.385-3.507l-1-.25a.886.886,0,0,1-.182-1.653l.63-.315-.693-1.385-.63.315a2.434,2.434,0,0,0,.5,4.539l1,.25a.333.333,0,0,1,.068.621l-.108.053A2.262,2.262,0,0,0,38.71,31.12a2.289,2.289,0,0,0,.666,1.608l.335.335,1.095-1.095-.335-.335a.731.731,0,0,1-.212-.513.722.722,0,0,1,.4-.649Z"/>
        <path id="Trazado_123984" data-name="Trazado 123984" d="M45.818,31.343l.338-.084a2.435,2.435,0,0,0,.5-4.54l-.63-.315-.693,1.385.63.315a.886.886,0,0,1-.18,1.652l-.338.084a2.753,2.753,0,0,0-2.089,2.676H44.9a1.207,1.207,0,0,1,.915-1.173Z"/>
      </g>
    </g>
  </g>
</svg>
