<svg xmlns="http://www.w3.org/2000/svg" xmlns:xlink="http://www.w3.org/1999/xlink" width="48" height="48" viewBox="0 0 48 48">
  <defs>
    <clipPath id="clip-path">
      <rect id="Rectángulo_35473" data-name="Rectángulo 35473" width="48" height="48" transform="translate(285 2575)" fill="#fff" stroke="#707070" stroke-width="1"/>
    </clipPath>
  </defs>
  <g id="Enmascarar_grupo_211" data-name="Enmascarar grupo 211" transform="translate(-285 -2575)" clip-path="url(#clip-path)">
    <g id="alergia-a-la-comida" transform="translate(284.226 2574.226)">
      <g id="Grupo_176077" data-name="Grupo 176077">
        <g id="Grupo_176066" data-name="Grupo 176066">
          <path id="Trazado_123987" data-name="Trazado 123987" d="M7.742,38.71H1.587A13,13,0,0,1,11.613,27.1l.286.852a2.145,2.145,0,0,0,4.072,0l.286-.852a11.56,11.56,0,0,1,8.516,11.148v.465H20.129V48H7.742V46.366a5.25,5.25,0,0,0,3.778-2.826l3.5-7.006a4.284,4.284,0,0,0,.465-1.951,2.063,2.063,0,0,0-3.716-1.239Z" fill="#fcd770"/>
        </g>
        <g id="Grupo_176067" data-name="Grupo 176067">
          <path id="Trazado_123988" data-name="Trazado 123988" d="M17.574,11.884a2.311,2.311,0,0,1-3.507-.774l-.132-.271-.132.271a2.311,2.311,0,0,1-3.507.774l-1.7.852a1.548,1.548,0,0,0-.859,1.386v1.363H6.194v-3.1a7.742,7.742,0,0,1,15.484,0v3.1H20.129V14.121a1.548,1.548,0,0,0-.859-1.386Z" fill="#656d78"/>
        </g>
        <g id="Grupo_176068" data-name="Grupo 176068">
          <path id="Trazado_123989" data-name="Trazado 123989" d="M28.963,1.548h16.4a2.6,2.6,0,0,1,.921.17A2.632,2.632,0,0,1,48,4.188V22.134a2.643,2.643,0,0,1-2.64,2.64h-11.3l-1.347,4.034a.9.9,0,0,1-1.75-.286V24.774H28.963a2.646,2.646,0,0,1-2.214-1.2,2.6,2.6,0,0,1-.426-1.44V4.188a2.643,2.643,0,0,1,2.64-2.64Z" fill="#e6e9ed"/>
        </g>
        <g id="Grupo_176069" data-name="Grupo 176069">
          <path id="Trazado_123990" data-name="Trazado 123990" d="M32.942,20.988l-.426-.859-.859-.426a1.259,1.259,0,0,1,0-2.245l.859-.426.426-.859a1.272,1.272,0,0,1,1.123-.689h.1a1.248,1.248,0,0,1,1.045.557l.945,1.417a1.515,1.515,0,0,0-.1,2.23.5.5,0,0,0,.07.062l-.914,1.37a1.248,1.248,0,0,1-1.045.557h-.1A1.272,1.272,0,0,1,32.942,20.988Z" fill="#fc6e51"/>
        </g>
        <g id="Grupo_176070" data-name="Grupo 176070">
          <path id="Trazado_123991" data-name="Trazado 123991" d="M33.29,10.065H30.255A.838.838,0,0,1,30.116,8.4l3.948-.658.472-.418a5.184,5.184,0,0,1,1.672-.883L37.8,6.194h.526a6.57,6.57,0,0,1,5.512,10.15A6.493,6.493,0,0,1,41,18.766L38.679,19.8a3.841,3.841,0,0,1-1.556.325,1.505,1.505,0,0,1-1-.379.5.5,0,0,1-.07-.062,1.515,1.515,0,0,1,.1-2.23.845.845,0,0,1,.132-.1l3.484-2.323a1.089,1.089,0,0,0-.472-1.99l-1.107-.139-1.7-.217a3.886,3.886,0,0,1-3.205-2.625Z" fill="#ff826e"/>
        </g>
        <g id="Grupo_176071" data-name="Grupo 176071">
          <path id="Trazado_123992" data-name="Trazado 123992" d="M24.774,41.806V48H20.129V38.71h4.645Z" fill="#f0d0b4"/>
        </g>
        <g id="Grupo_176072" data-name="Grupo 176072">
          <path id="Trazado_123993" data-name="Trazado 123993" d="M15.019,36.534l-3.5,7.006a5.265,5.265,0,0,1-8.431,1.37,5.188,5.188,0,0,1-1.347-2.33,4.888,4.888,0,0,1-.194-1.394v-1.44c0-.348.015-.7.039-1.037H7.742l4.026-5.365a2.063,2.063,0,0,1,3.716,1.239,4.284,4.284,0,0,1-.465,1.951Z" fill="#f0d0b4"/>
        </g>
        <g id="Grupo_176073" data-name="Grupo 176073">
          <path id="Trazado_123994" data-name="Trazado 123994" d="M21.677,15.484a1.553,1.553,0,0,1,1.548,1.548,1.56,1.56,0,0,1-1.548,1.548H20.129v-3.1Z" fill="#f0d0b4"/>
        </g>
        <g id="Grupo_176074" data-name="Grupo 176074">
          <path id="Trazado_123995" data-name="Trazado 123995" d="M15.623,24.542l.635,2.555-.286.852a2.145,2.145,0,0,1-4.072,0l-.286-.852.635-2.555a6.248,6.248,0,0,0,3.375,0Z" fill="#f0d0b4"/>
        </g>
        <g id="Grupo_176075" data-name="Grupo 176075">
          <path id="Trazado_123996" data-name="Trazado 123996" d="M18.317,22.963l-2.694,1.579a6.248,6.248,0,0,1-3.375,0,6.2,6.2,0,0,1-4.506-5.961V14.121A1.548,1.548,0,0,1,8.6,12.735l1.7-.852A2.311,2.311,0,0,0,13.8,11.11l.132-.271.132.271a2.311,2.311,0,0,0,3.507.774l1.7.852a1.548,1.548,0,0,1,.859,1.386v4.459a6.2,6.2,0,0,1-1.812,4.382Z" fill="#f0d0b4"/>
        </g>
        <g id="Grupo_176076" data-name="Grupo 176076">
          <path id="Trazado_123997" data-name="Trazado 123997" d="M7.742,15.484v3.1H6.194a1.56,1.56,0,0,1-1.548-1.548,1.553,1.553,0,0,1,1.548-1.548Z" fill="#f0d0b4"/>
        </g>
      </g>
      <g id="Grupo_176078" data-name="Grupo 176078">
        <path id="Trazado_123998" data-name="Trazado 123998" d="M12.387,17.032A.763.763,0,0,0,12,16.378l.573-.143-.375-1.5-3.1.774.375,1.5,1.485-.371a.746.746,0,0,0-.124.394.774.774,0,0,0,1.548,0Z"/>
        <path id="Trazado_123999" data-name="Trazado 123999" d="M15.484,17.032a.774.774,0,1,0,1.548,0,.751.751,0,0,0-.124-.395l1.485.371.375-1.5-3.1-.774-.375,1.5.573.143A.765.765,0,0,0,15.484,17.032Z"/>
        <path id="Trazado_124000" data-name="Trazado 124000" d="M14.71,22.772l.227.227L16.031,21.9l-.227-.227a2.708,2.708,0,0,0-3.738,0l-.227.227L12.934,23l.227-.227a1.123,1.123,0,0,1,1.548,0Z"/>
        <path id="Trazado_124001" data-name="Trazado 124001" d="M10.065,19.355h1.548V20.9H10.065Z"/>
        <path id="Trazado_124002" data-name="Trazado 124002" d="M16.258,19.355h1.548V20.9H16.258Z"/>
        <path id="Trazado_124003" data-name="Trazado 124003" d="M16.9,26.478l-.361-1.44a6.981,6.981,0,0,0,4.317-5.683h.82a2.317,2.317,0,0,0,.774-4.5V12.387a8.516,8.516,0,0,0-17.032,0v2.465a2.317,2.317,0,0,0,.774,4.5h.82a6.981,6.981,0,0,0,4.317,5.683l-.355,1.42A13.692,13.692,0,0,0,.774,39.749v1.439a6.045,6.045,0,0,0,6.038,6.038c.053,0,.1-.009.156-.011v1.559H25.548V38.246A12.362,12.362,0,0,0,16.9,26.478Zm4.776-8.672H20.9V16.258h.774a.774.774,0,1,1,0,1.548ZM5.419,17.032a.774.774,0,0,1,.774-.774h.774v1.548H6.194A.774.774,0,0,1,5.419,17.032Zm1.548-2.914V12.387a6.968,6.968,0,1,1,13.935,0v1.731A2.312,2.312,0,0,0,19.62,12.04l-.823-.411a3.091,3.091,0,0,0,.271-.579l.247-.741-1.468-.49-.248.741a1.539,1.539,0,0,1-2.836.2L13.935,9.1l-.827,1.658a1.539,1.539,0,0,1-2.837-.2l-.247-.741-1.468.49.246.741a3.046,3.046,0,0,0,.271.579l-.822.411a2.31,2.31,0,0,0-1.284,2.077Zm1.548,4.462V14.118a.77.77,0,0,1,.428-.693l1.3-.651a3.075,3.075,0,0,0,3.689-.535,3.077,3.077,0,0,0,3.689.536l1.3.651a.769.769,0,0,1,.428.692v4.462a5.419,5.419,0,1,1-10.839,0Zm5.419,6.968a6.953,6.953,0,0,0,1.113-.1l.4,1.615-.213.64a1.374,1.374,0,0,1-2.607,0l-.214-.64.4-1.614A6.971,6.971,0,0,0,13.935,25.548ZM2.883,43.355h.988V41.806h-1.5a4.406,4.406,0,0,1-.048-.619V39.749c0-.089.009-.176.012-.265H6.194L4.8,41.342l1.239.929,6.348-8.465a1.291,1.291,0,0,1,2.323.775,3.612,3.612,0,0,1-.38,1.609l-3.5,7.006a4.487,4.487,0,0,1-7.944.159Zm5.633,3.627a6,6,0,0,0,3.7-3.093l3.5-7.006a5.163,5.163,0,0,0,.544-2.3,2.839,2.839,0,0,0-5.11-1.7l-2.66,3.547a3.382,3.382,0,0,0-.973-2.133L6.42,35.386a1.858,1.858,0,0,1,.547,1.322v1.228h-4.5a12.125,12.125,0,0,1,8.647-9.9l.053.157a2.923,2.923,0,0,0,5.546,0l.043-.129a10.8,10.8,0,0,1,7.235,9.869H20.9V36.708a1.856,1.856,0,0,1,.547-1.322l-1.095-1.095a3.394,3.394,0,0,0-1,2.416V47.226H8.516Zm12.387.244V45.677h1.548V44.129H20.9V39.484H24v1.548H22.452v1.548H24v4.645Z"/>
        <path id="Trazado_124004" data-name="Trazado 124004" d="M45.36.774h-16.4a3.419,3.419,0,0,0-3.414,3.414V22.134a3.418,3.418,0,0,0,3.414,3.414h1.231V28.52a1.674,1.674,0,0,0,3.262.529l1.167-3.5H45.36a3.418,3.418,0,0,0,3.414-3.414V4.188A3.419,3.419,0,0,0,45.36.774Zm1.866,21.36A1.868,1.868,0,0,1,45.36,24H33.506l-1.52,4.559a.13.13,0,0,1-.245-.039V24H28.963a1.851,1.851,0,0,1-1.143-.4l2.147-2.147-1.095-1.095L27.1,22.131V4.188a1.868,1.868,0,0,1,1.866-1.866h15.62L42.033,4.872l1.095,1.095,3.3-3.3a1.861,1.861,0,0,1,.8,1.524Z"/>
        <path id="Trazado_124005" data-name="Trazado 124005" d="M38.334,5.419H37.8a6,6,0,0,0-1.137.11,4.9,4.9,0,0,0-2.255-2.351l-.693,1.385A3.372,3.372,0,0,1,35.2,6.016q-.267.127-.522.279a8.022,8.022,0,0,0-3.9-2.3l-.388-.1-.376,1.5.389.1a6.457,6.457,0,0,1,2.885,1.594l-3.287.547a1.612,1.612,0,0,0,.266,3.2H32.77A4.688,4.688,0,0,0,36.4,13.459l.129.016-.687.687,1.095,1.095,1.538-1.538.733.091a.318.318,0,0,1,.135.58l-2.979,1.986-.509-.763a2.023,2.023,0,0,0-1.686-.9h-.1a2.018,2.018,0,0,0-1.813,1.12l-.312.626-.626.312a2.028,2.028,0,0,0,0,3.626l.626.312.312.626a2.019,2.019,0,0,0,1.813,1.119h.1a2.025,2.025,0,0,0,1.687-.9l.522-.782a2.264,2.264,0,0,0,.749.136,4.563,4.563,0,0,0,1.864-.4l2.326-1.034A7.343,7.343,0,0,0,38.334,5.419Zm-1.744,6.5A3.127,3.127,0,0,1,34.6,10.839h.24V9.29H30.258a.063.063,0,0,1-.064-.064.064.064,0,0,1,.053-.063l4.19-.7.176-.176a4.543,4.543,0,0,1,3.012-1.312l.444.444a4.8,4.8,0,0,1,1.415,3.417h1.548a6.333,6.333,0,0,0-1.156-3.657,5.811,5.811,0,0,1,3.313,2.426l-3.608,2.706a1.844,1.844,0,0,0-.183-.04Zm7.539.84a5.767,5.767,0,0,1-.5,2.326l-2.627-.751a1.758,1.758,0,0,0,.026-.213,1.855,1.855,0,0,0-.2-.817l3.031-2.273a5.788,5.788,0,0,1,.262,1.727ZM34.168,20.9h-.1a.477.477,0,0,1-.428-.265l-.543-1.086-1.085-.543a.478.478,0,0,1,0-.856l1.086-.543.543-1.085a.476.476,0,0,1,.428-.266h.1a.48.48,0,0,1,.4.213l.629.943a2.256,2.256,0,0,0-.2.418L33.3,17.806l-.024,1.548,1.7.026a2.263,2.263,0,0,0,.19.4l-.6.906a.48.48,0,0,1-.4.213Zm4.193-1.811a3.022,3.022,0,0,1-1.236.262A.739.739,0,0,1,36.716,18l1.305-.87,1,1.668Zm2.326-1.034-.241.107-1.136-1.894.846-.564,2.628.751a5.767,5.767,0,0,1-2.1,1.6Z"/>
        <path id="Trazado_124006" data-name="Trazado 124006" d="M36.387,7.742h1.548V9.29H36.387Z"/>
        <path id="Trazado_124007" data-name="Trazado 124007" d="M11.613,36.387h1.548v1.548H11.613Z"/>
        <path id="Trazado_124008" data-name="Trazado 124008" d="M8.516,41.032h1.548v1.548H8.516Z"/>
        <path id="Trazado_124009" data-name="Trazado 124009" d="M5.419,43.355H6.968V44.9H5.419Z"/>
      </g>
    </g>
  </g>
</svg>
