<svg xmlns="http://www.w3.org/2000/svg" xmlns:xlink="http://www.w3.org/1999/xlink" width="48" height="48" viewBox="0 0 48 48">
  <defs>
    <clipPath id="clip-path">
      <rect id="Rectángulo_35474" data-name="Rectángulo 35474" width="48" height="48" transform="translate(285 2638)" fill="#fff" stroke="#707070" stroke-width="1"/>
    </clipPath>
  </defs>
  <g id="Enmascarar_grupo_212" data-name="Enmascarar grupo 212" transform="translate(-285 -2638)" clip-path="url(#clip-path)">
    <g id="disnea" transform="translate(285 2638)">
      <g id="Grupo_176084" data-name="Grupo 176084">
        <path id="Trazado_124010" data-name="Trazado 124010" d="M47.3,21.537V29.5H38.5l-.9,13.143q-.1,1.415-.1,2.83,0,.9.039,1.8H10.463a41.17,41.17,0,0,0-.057-4.626L9.5,29.5H.7V21.537a6.014,6.014,0,0,1,6.014-6.013H17.053a1.957,1.957,0,0,0,1.957-1.957V8.36H28.99v5.208a1.957,1.957,0,0,0,1.957,1.957H41.283a6.1,6.1,0,0,1,.941.073,6.016,6.016,0,0,1,5.073,5.94Z" fill="#ffdfcf"/>
        <g id="Grupo_176079" data-name="Grupo 176079">
          <path id="Trazado_124011" data-name="Trazado 124011" d="M40.188,19.008H23.5a2.313,2.313,0,0,1-1.973-3.519L25.886,8.36h3.1v5.208a1.957,1.957,0,0,0,1.957,1.957H41.283a6.1,6.1,0,0,1,.941.073,2.313,2.313,0,0,1-2.036,3.411Z" fill="#ffcebf"/>
          <path id="Trazado_124012" data-name="Trazado 124012" d="M36.979,29.5H38.5l-.9,13.143q-.1,1.415-.1,2.83,0,.9.039,1.8H34.725q-.039-.9-.039-1.8,0-1.415.1-2.83L35.6,30.8A1.387,1.387,0,0,1,36.979,29.5Z" fill="#ffcebf"/>
          <path id="Trazado_124013" data-name="Trazado 124013" d="M47.3,21.537V29.5H44.484V21.537A6.014,6.014,0,0,0,38.5,15.524h2.786A6.014,6.014,0,0,1,47.3,21.537Z" fill="#ffcebf"/>
        </g>
        <g id="Grupo_176083" data-name="Grupo 176083">
          <path id="Trazado_124014" data-name="Trazado 124014" d="M43,19.007H26.316a2.313,2.313,0,0,1-1.974-3.519L32.685,1.836a2.313,2.313,0,0,1,3.947,0l8.342,13.653A2.313,2.313,0,0,1,43,19.007Z" fill="#ffe177"/>
          <path id="Trazado_124015" data-name="Trazado 124015" d="M43,19.008H40.188a2.313,2.313,0,0,0,1.973-3.519L33.819,1.836a2.333,2.333,0,0,0-.567-.634,2.316,2.316,0,0,1,3.38.634l8.342,13.653A2.313,2.313,0,0,1,43,19.008Z" fill="#ffd15b"/>
          <g id="Grupo_176082" data-name="Grupo 176082">
            <g id="Grupo_176080" data-name="Grupo 176080">
              <path id="Trazado_124016" data-name="Trazado 124016" d="M34.658,11.389a1.369,1.369,0,0,1-1.369-1.369V6.333a1.369,1.369,0,1,1,2.738,0V10.02A1.369,1.369,0,0,1,34.658,11.389Z" fill="#9e9797"/>
            </g>
            <g id="Grupo_176081" data-name="Grupo 176081">
              <path id="Trazado_124017" data-name="Trazado 124017" d="M34.658,16.553a1.369,1.369,0,1,1,1.369-1.369A1.369,1.369,0,0,1,34.658,16.553Z" fill="#9e9797"/>
            </g>
          </g>
        </g>
        <path id="Trazado_124018" data-name="Trazado 124018" d="M21.274,26.375l.905,8.463a2.341,2.341,0,0,1-1.723,2.511,6.219,6.219,0,0,0-1.886.538c-.223.2-.6.494-.986.775a1.2,1.2,0,0,1-1.816-.5l-.958-2.253a6.018,6.018,0,0,1-.152-4.316c.888-2.574,2.379-6.52,3.33-7.013l.067-.033a2.272,2.272,0,0,1,3.218,1.828Z" fill="#fe5694"/>
        <path id="Trazado_124019" data-name="Trazado 124019" d="M20.456,37.348a6.2,6.2,0,0,0-1.885.538c-.224.2-.6.493-.986.774a1.2,1.2,0,0,1-1.815-.5l-.088-.208.077-.068a6.2,6.2,0,0,1,1.885-.538,2.341,2.341,0,0,0,1.723-2.511l-.9-8.463a2.277,2.277,0,0,0-.806-1.511,1.226,1.226,0,0,1,.334-.284l.068-.033a2.272,2.272,0,0,1,3.217,1.828l.9,8.463A2.341,2.341,0,0,1,20.456,37.348Z" fill="#fd3581"/>
        <path id="Trazado_124020" data-name="Trazado 124020" d="M26.726,26.375l-.905,8.463a2.341,2.341,0,0,0,1.724,2.511,6.219,6.219,0,0,1,1.886.538c.223.2.6.494.986.775a1.2,1.2,0,0,0,1.816-.5l.958-2.253a6.018,6.018,0,0,0,.152-4.316c-.888-2.574-2.379-6.52-3.33-7.013l-.067-.033a2.272,2.272,0,0,0-3.218,1.828Z" fill="#fe5694"/>
        <path id="Trazado_124021" data-name="Trazado 124021" d="M33.188,35.909l-.958,2.253a1.2,1.2,0,0,1-1.815.5c-.341-.251-.681-.51-.909-.707l.87-2.045a6.02,6.02,0,0,0,.152-4.316c-.789-2.288-2.057-5.663-3-6.729a2.23,2.23,0,0,1,2.411-.317l.068.033c.951.493,2.442,4.44,3.33,7.013a6.02,6.02,0,0,1-.152,4.316Z" fill="#fd3581"/>
      </g>
      <g id="Grupo_176085" data-name="Grupo 176085">
        <path id="Trazado_124022" data-name="Trazado 124022" d="M10.255,41.172l.049,0a.7.7,0,0,0,.653-.75l-.751-10.943V24.327a.7.7,0,1,0-1.406,0V29.5c0,.016,0,.032,0,.048l.753,10.967A.7.7,0,0,0,10.255,41.172Z"/>
        <path id="Trazado_124023" data-name="Trazado 124023" d="M10.437,43.049a.7.7,0,0,0-.673.732c.048,1.147.047,2.311,0,3.46a.7.7,0,0,0,.672.733h.031a.7.7,0,0,0,.7-.672c.052-1.188.053-2.393,0-3.58A.7.7,0,0,0,10.437,43.049Z"/>
        <path id="Trazado_124024" data-name="Trazado 124024" d="M38.5,23.624a.7.7,0,0,0-.7.7v5.151l-.9,13.119c-.065.95-.1,1.918-.1,2.878,0,.606.014,1.22.04,1.826a.7.7,0,0,0,.7.672h.031a.7.7,0,0,0,.672-.733c-.026-.585-.039-1.179-.039-1.764,0-.928.032-1.864.095-2.782l.9-13.143c0-.016,0-.032,0-.048V24.327a.7.7,0,0,0-.7-.7Z"/>
        <path id="Trazado_124025" data-name="Trazado 124025" d="M17.053,16.227a2.663,2.663,0,0,0,2.66-2.66V8.36a.7.7,0,1,0-1.406,0v5.208a1.255,1.255,0,0,1-1.253,1.253H6.717A6.724,6.724,0,0,0,0,21.537V29.5a.7.7,0,0,0,1.406,0V21.537a5.317,5.317,0,0,1,5.311-5.311Z"/>
        <path id="Trazado_124026" data-name="Trazado 124026" d="M46.019,16.777a3,3,0,0,0-.445-1.654L37.232,1.469a3.016,3.016,0,0,0-5.147,0L23.743,15.122a3.016,3.016,0,0,0,2.574,4.588H28.1a.7.7,0,0,0,0-1.406H26.316a1.61,1.61,0,0,1-1.374-2.449L33.285,2.2a1.61,1.61,0,0,1,2.747,0l8.342,13.653A1.632,1.632,0,0,1,43,18.3H31.379a.7.7,0,0,0,0,1.406H43a2.976,2.976,0,0,0,2.524-1.365,5.31,5.31,0,0,1,1.069,3.191V29.5A.7.7,0,0,0,48,29.5V21.537a6.718,6.718,0,0,0-1.981-4.76Z"/>
        <path id="Trazado_124027" data-name="Trazado 124027" d="M34.658,12.092a2.075,2.075,0,0,0,2.072-2.072V6.333a2.072,2.072,0,0,0-4.145,0V10.02A2.075,2.075,0,0,0,34.658,12.092Zm-.666-5.759a.666.666,0,0,1,1.332,0V10.02a.666.666,0,1,1-1.332,0Z"/>
        <path id="Trazado_124028" data-name="Trazado 124028" d="M34.658,17.256a2.072,2.072,0,1,0-2.072-2.072A2.075,2.075,0,0,0,34.658,17.256Zm0-2.738a.666.666,0,1,1-.666.666A.667.667,0,0,1,34.658,14.518Z"/>
        <path id="Trazado_124029" data-name="Trazado 124029" d="M30.334,23.955A3.007,3.007,0,0,0,26.026,26.3L25.9,27.527,24.7,26.412V22.37a.7.7,0,0,0-1.406,0v4.042L22.1,27.527,21.974,26.3a3,3,0,0,0-4.307-2.344c-.372.193-1.359.7-3.671,7.408a6.709,6.709,0,0,0,.17,4.821l.957,2.253a1.894,1.894,0,0,0,1.249,1.092,1.915,1.915,0,0,0,.507.069A1.893,1.893,0,0,0,18,39.227c.475-.349.824-.623,1.037-.816.415-.17.912-.2,1.6-.384a3.029,3.029,0,0,0,2.241-3.265l-.587-5.486L24,27.68l1.708,1.6-.587,5.486a3.029,3.029,0,0,0,2.241,3.265c.365.112,1.142.207,1.6.384.213.192.561.467,1.037.816a1.892,1.892,0,0,0,1.123.37,1.92,1.92,0,0,0,.507-.069,1.894,1.894,0,0,0,1.249-1.092l.957-2.253A6.71,6.71,0,0,0,34,31.364c-2.312-6.7-3.3-7.216-3.671-7.408ZM21.481,34.912a1.63,1.63,0,0,1-1.206,1.757,6,6,0,0,0-2.177.7c-.121.11-.38.326-.929.728a.5.5,0,0,1-.752-.207l-.957-2.253a5.306,5.306,0,0,1-.135-3.812c1.66-4.812,2.661-6.425,2.989-6.618a1.6,1.6,0,0,1,2.262,1.246l.244,2.279-1.713,1.6a.7.7,0,1,0,.96,1.027l.94-.878Zm11.06.722-.957,2.253a.5.5,0,0,1-.752.207c-.549-.4-.808-.618-.929-.728a5.6,5.6,0,0,0-2.177-.7,1.63,1.63,0,0,1-1.206-1.757l.474-4.434.94.878a.7.7,0,0,0,.96-1.027l-1.713-1.6.244-2.279a1.591,1.591,0,0,1,2.26-1.247c.33.194,1.331,1.807,2.991,6.619a5.306,5.306,0,0,1-.134,3.812Z"/>
      </g>
    </g>
  </g>
</svg>
